<svg version="1.1" viewBox="0.0 0.0 685.0 424.0" fill="none" stroke="none" stroke-linecap="square" stroke-miterlimit="10" width="685" height="424" xmlns:xlink="http://www.w3.org/1999/xlink" xmlns="http://www.w3.org/2000/svg"><path fill="#ffffff" d="M0 0L685.0 0L685.0 424.0L0 424.0L0 0Z" fill-rule="nonzero"/><path stroke="#333333" stroke-width="1.0" stroke-linecap="butt" d="M90.5 350.5L663.5 350.5" fill-rule="nonzero"/><path stroke="#cccccc" stroke-width="1.0" stroke-linecap="butt" d="M90.5 292.5L663.5 292.5" fill-rule="nonzero"/><path stroke="#cccccc" stroke-width="1.0" stroke-linecap="butt" d="M90.5 234.5L663.5 234.5" fill-rule="nonzero"/><path stroke="#cccccc" stroke-width="1.0" stroke-linecap="butt" d="M90.5 176.5L663.5 176.5" fill-rule="nonzero"/><path stroke="#cccccc" stroke-width="1.0" stroke-linecap="butt" d="M90.5 117.5L663.5 117.5" fill-rule="nonzero"/><clipPath id="id_0"><path d="M90.2 117.96667L663.8 117.96667L663.8 350.8L90.2 350.8L90.2 117.96667Z" clip-rule="nonzero"/></clipPath><path stroke="#000000" stroke-width="2.0" stroke-linecap="butt" stroke-opacity="0.0" clip-path="url(#id_0)" d="M153.0 351.0L138.0 351.0L138.0 187.0C138.0 185.89543 138.89543 185.0 140.0 185.0L151.0 185.0C152.10457 185.0 153.0 185.89543 153.0 187.0Z" fill-rule="nonzero"/><path fill="#4285f4" clip-path="url(#id_0)" d="M153.0 351.0L138.0 351.0L138.0 187.0C138.0 185.89543 138.89543 185.0 140.0 185.0L151.0 185.0C152.10457 185.0 153.0 185.89543 153.0 187.0Z" fill-rule="nonzero"/><path stroke="#000000" stroke-width="2.0" stroke-linecap="butt" stroke-opacity="0.0" clip-path="url(#id_0)" d="M285.0 351.0L270.0 351.0L270.0 188.0C270.0 186.89543 270.89542 186.0 272.0 186.0L283.0 186.0C284.10458 186.0 285.0 186.89543 285.0 188.0Z" fill-rule="nonzero"/><path fill="#4285f4" clip-path="url(#id_0)" d="M285.0 351.0L270.0 351.0L270.0 188.0C270.0 186.89543 270.89542 186.0 272.0 186.0L283.0 186.0C284.10458 186.0 285.0 186.89543 285.0 188.0Z" fill-rule="nonzero"/><path stroke="#000000" stroke-width="2.0" stroke-linecap="butt" stroke-opacity="0.0" clip-path="url(#id_0)" d="M417.0 351.0L402.0 351.0L402.0 188.0C402.0 186.89543 402.89542 186.0 404.0 186.0L415.0 186.0C416.10458 186.0 417.0 186.89543 417.0 188.0Z" fill-rule="nonzero"/><path fill="#4285f4" clip-path="url(#id_0)" d="M417.0 351.0L402.0 351.0L402.0 188.0C402.0 186.89543 402.89542 186.0 404.0 186.0L415.0 186.0C416.10458 186.0 417.0 186.89543 417.0 188.0Z" fill-rule="nonzero"/><path stroke="#000000" stroke-width="2.0" stroke-linecap="butt" stroke-opacity="0.0" clip-path="url(#id_0)" d="M549.0 351.0L534.0 351.0L534.0 193.0C534.0 191.89543 534.89545 191.0 536.0 191.0L547.0 191.0C548.10455 191.0 549.0 191.89543 549.0 193.0Z" fill-rule="nonzero"/><path fill="#4285f4" clip-path="url(#id_0)" d="M549.0 351.0L534.0 351.0L534.0 193.0C534.0 191.89543 534.89545 191.0 536.0 191.0L547.0 191.0C548.10455 191.0 549.0 191.89543 549.0 193.0Z" fill-rule="nonzero"/><path stroke="#000000" stroke-width="2.0" stroke-linecap="butt" stroke-opacity="0.0" clip-path="url(#id_0)" d="M170.0 351.0L155.0 351.0L155.0 167.0C155.0 165.89543 155.89543 165.0 157.0 165.0L168.0 165.0C169.10457 165.0 170.0 165.89543 170.0 167.0Z" fill-rule="nonzero"/><path fill="#ea4335" clip-path="url(#id_0)" d="M170.0 351.0L155.0 351.0L155.0 167.0C155.0 165.89543 155.89543 165.0 157.0 165.0L168.0 165.0C169.10457 165.0 170.0 165.89543 170.0 167.0Z" fill-rule="nonzero"/><path stroke="#000000" stroke-width="2.0" stroke-linecap="butt" stroke-opacity="0.0" clip-path="url(#id_0)" d="M302.0 351.0L287.0 351.0L287.0 168.0C287.0 166.89543 287.89542 166.0 289.0 166.0L300.0 166.0C301.10458 166.0 302.0 166.89543 302.0 168.0Z" fill-rule="nonzero"/><path fill="#ea4335" clip-path="url(#id_0)" d="M302.0 351.0L287.0 351.0L287.0 168.0C287.0 166.89543 287.89542 166.0 289.0 166.0L300.0 166.0C301.10458 166.0 302.0 166.89543 302.0 168.0Z" fill-rule="nonzero"/><path stroke="#000000" stroke-width="2.0" stroke-linecap="butt" stroke-opacity="0.0" clip-path="url(#id_0)" d="M434.0 351.0L419.0 351.0L419.0 171.0C419.0 169.89543 419.89542 169.0 421.0 169.0L432.0 169.0C433.10458 169.0 434.0 169.89543 434.0 171.0Z" fill-rule="nonzero"/><path fill="#ea4335" clip-path="url(#id_0)" d="M434.0 351.0L419.0 351.0L419.0 171.0C419.0 169.89543 419.89542 169.0 421.0 169.0L432.0 169.0C433.10458 169.0 434.0 169.89543 434.0 171.0Z" fill-rule="nonzero"/><path stroke="#000000" stroke-width="2.0" stroke-linecap="butt" stroke-opacity="0.0" clip-path="url(#id_0)" d="M566.0 351.0L551.0 351.0L551.0 176.0C551.0 174.89543 551.89545 174.0 553.0 174.0L564.0 174.0C565.10455 174.0 566.0 174.89543 566.0 176.0Z" fill-rule="nonzero"/><path fill="#ea4335" clip-path="url(#id_0)" d="M566.0 351.0L551.0 351.0L551.0 176.0C551.0 174.89543 551.89545 174.0 553.0 174.0L564.0 174.0C565.10455 174.0 566.0 174.89543 566.0 176.0Z" fill-rule="nonzero"/><path stroke="#000000" stroke-width="2.0" stroke-linecap="butt" stroke-opacity="0.0" clip-path="url(#id_0)" d="M187.0 351.0L172.0 351.0L172.0 171.0C172.0 169.89543 172.89543 169.0 174.0 169.0L185.0 169.0C186.10457 169.0 187.0 169.89543 187.0 171.0Z" fill-rule="nonzero"/><path fill="#fbbc04" clip-path="url(#id_0)" d="M187.0 351.0L172.0 351.0L172.0 171.0C172.0 169.89543 172.89543 169.0 174.0 169.0L185.0 169.0C186.10457 169.0 187.0 169.89543 187.0 171.0Z" fill-rule="nonzero"/><path stroke="#000000" stroke-width="2.0" stroke-linecap="butt" stroke-opacity="0.0" clip-path="url(#id_0)" d="M319.0 351.0L304.0 351.0L304.0 169.0C304.0 167.89543 304.89542 167.0 306.0 167.0L317.0 167.0C318.10458 167.0 319.0 167.89543 319.0 169.0Z" fill-rule="nonzero"/><path fill="#fbbc04" clip-path="url(#id_0)" d="M319.0 351.0L304.0 351.0L304.0 169.0C304.0 167.89543 304.89542 167.0 306.0 167.0L317.0 167.0C318.10458 167.0 319.0 167.89543 319.0 169.0Z" fill-rule="nonzero"/><path stroke="#000000" stroke-width="2.0" stroke-linecap="butt" stroke-opacity="0.0" clip-path="url(#id_0)" d="M451.0 351.0L436.0 351.0L436.0 171.0C436.0 169.89543 436.89542 169.0 438.0 169.0L449.0 169.0C450.10458 169.0 451.0 169.89543 451.0 171.0Z" fill-rule="nonzero"/><path fill="#fbbc04" clip-path="url(#id_0)" d="M451.0 351.0L436.0 351.0L436.0 171.0C436.0 169.89543 436.89542 169.0 438.0 169.0L449.0 169.0C450.10458 169.0 451.0 169.89543 451.0 171.0Z" fill-rule="nonzero"/><path stroke="#000000" stroke-width="2.0" stroke-linecap="butt" stroke-opacity="0.0" clip-path="url(#id_0)" d="M583.0 351.0L568.0 351.0L568.0 176.0C568.0 174.89543 568.89545 174.0 570.0 174.0L581.0 174.0C582.10455 174.0 583.0 174.89543 583.0 176.0Z" fill-rule="nonzero"/><path fill="#fbbc04" clip-path="url(#id_0)" d="M583.0 351.0L568.0 351.0L568.0 176.0C568.0 174.89543 568.89545 174.0 570.0 174.0L581.0 174.0C582.10455 174.0 583.0 174.89543 583.0 176.0Z" fill-rule="nonzero"/><path stroke="#000000" stroke-width="2.0" stroke-linecap="butt" stroke-opacity="0.0" clip-path="url(#id_0)" d="M204.0 351.0L189.0 351.0L189.0 176.0C189.0 174.89543 189.89543 174.0 191.0 174.0L202.0 174.0C203.10457 174.0 204.0 174.89543 204.0 176.0Z" fill-rule="nonzero"/><path fill="#34a853" clip-path="url(#id_0)" d="M204.0 351.0L189.0 351.0L189.0 176.0C189.0 174.89543 189.89543 174.0 191.0 174.0L202.0 174.0C203.10457 174.0 204.0 174.89543 204.0 176.0Z" fill-rule="nonzero"/><path stroke="#000000" stroke-width="2.0" stroke-linecap="butt" stroke-opacity="0.0" clip-path="url(#id_0)" d="M336.0 351.0L321.0 351.0L321.0 182.0C321.0 180.89543 321.89542 180.0 323.0 180.0L334.0 180.0C335.10458 180.0 336.0 180.89543 336.0 182.0Z" fill-rule="nonzero"/><path fill="#34a853" clip-path="url(#id_0)" d="M336.0 351.0L321.0 351.0L321.0 182.0C321.0 180.89543 321.89542 180.0 323.0 180.0L334.0 180.0C335.10458 180.0 336.0 180.89543 336.0 182.0Z" fill-rule="nonzero"/><path stroke="#000000" stroke-width="2.0" stroke-linecap="butt" stroke-opacity="0.0" clip-path="url(#id_0)" d="M468.0 351.0L453.0 351.0L453.0 181.0C453.0 179.89543 453.89542 179.0 455.0 179.0L466.0 179.0C467.10458 179.0 468.0 179.89543 468.0 181.0Z" fill-rule="nonzero"/><path fill="#34a853" clip-path="url(#id_0)" d="M468.0 351.0L453.0 351.0L453.0 181.0C453.0 179.89543 453.89542 179.0 455.0 179.0L466.0 179.0C467.10458 179.0 468.0 179.89543 468.0 181.0Z" fill-rule="nonzero"/><path stroke="#000000" stroke-width="2.0" stroke-linecap="butt" stroke-opacity="0.0" clip-path="url(#id_0)" d="M600.0 351.0L585.0 351.0L585.0 189.0C585.0 187.89543 585.89545 187.0 587.0 187.0L598.0 187.0C599.10455 187.0 600.0 187.89543 600.0 189.0Z" fill-rule="nonzero"/><path fill="#34a853" clip-path="url(#id_0)" d="M600.0 351.0L585.0 351.0L585.0 189.0C585.0 187.89543 585.89545 187.0 587.0 187.0L598.0 187.0C599.10455 187.0 600.0 187.89543 600.0 189.0Z" fill-rule="nonzero"/><path stroke="#000000" stroke-width="2.0" stroke-linecap="butt" stroke-opacity="0.0" clip-path="url(#id_0)" d="M221.0 351.0L206.0 351.0L206.0 187.0C206.0 185.89543 206.89543 185.0 208.0 185.0L219.0 185.0C220.10457 185.0 221.0 185.89543 221.0 187.0Z" fill-rule="nonzero"/><path fill="#ff6d01" clip-path="url(#id_0)" d="M221.0 351.0L206.0 351.0L206.0 187.0C206.0 185.89543 206.89543 185.0 208.0 185.0L219.0 185.0C220.10457 185.0 221.0 185.89543 221.0 187.0Z" fill-rule="nonzero"/><path stroke="#000000" stroke-width="2.0" stroke-linecap="butt" stroke-opacity="0.0" clip-path="url(#id_0)" d="M353.0 351.0L338.0 351.0L338.0 186.0C338.0 184.89543 338.89542 184.0 340.0 184.0L351.0 184.0C352.10458 184.0 353.0 184.89543 353.0 186.0Z" fill-rule="nonzero"/><path fill="#ff6d01" clip-path="url(#id_0)" d="M353.0 351.0L338.0 351.0L338.0 186.0C338.0 184.89543 338.89542 184.0 340.0 184.0L351.0 184.0C352.10458 184.0 353.0 184.89543 353.0 186.0Z" fill-rule="nonzero"/><path stroke="#000000" stroke-width="2.0" stroke-linecap="butt" stroke-opacity="0.0" clip-path="url(#id_0)" d="M485.0 351.0L470.0 351.0L470.0 190.0C470.0 188.89543 470.89542 188.0 472.0 188.0L483.0 188.0C484.10458 188.0 485.0 188.89543 485.0 190.0Z" fill-rule="nonzero"/><path fill="#ff6d01" clip-path="url(#id_0)" d="M485.0 351.0L470.0 351.0L470.0 190.0C470.0 188.89543 470.89542 188.0 472.0 188.0L483.0 188.0C484.10458 188.0 485.0 188.89543 485.0 190.0Z" fill-rule="nonzero"/><path stroke="#000000" stroke-width="2.0" stroke-linecap="butt" stroke-opacity="0.0" clip-path="url(#id_0)" d="M617.0 351.0L602.0 351.0L602.0 183.0C602.0 181.89543 602.89545 181.0 604.0 181.0L615.0 181.0C616.10455 181.0 617.0 181.89543 617.0 183.0Z" fill-rule="nonzero"/><path fill="#ff6d01" clip-path="url(#id_0)" d="M617.0 351.0L602.0 351.0L602.0 183.0C602.0 181.89543 602.89545 181.0 604.0 181.0L615.0 181.0C616.10455 181.0 617.0 181.89543 617.0 183.0Z" fill-rule="nonzero"/><path fill="#000000" d="M328.92188 399.8L328.92188 391.20624L331.89062 391.20624Q332.89062 391.20624 333.42188 391.33124Q334.15625 391.5031 334.67188 391.9406Q335.35938 392.51874 335.6875 393.425Q336.03125 394.3156 336.03125 395.45624Q336.03125 396.4406 335.79688 397.1906Q335.57812 397.9406 335.21875 398.4406Q334.85938 398.9406 334.42188 399.22186Q334.0 399.5031 333.40625 399.65936Q332.8125 399.8 332.03125 399.8L328.92188 399.8ZM330.0625 398.78436L331.89062 398.78436Q332.75 398.78436 333.23438 398.6281Q333.71875 398.47186 334.0 398.175Q334.40625 397.78436 334.625 397.09686Q334.85938 396.40936 334.85938 395.4406Q334.85938 394.09686 334.40625 393.3781Q333.96875 392.64374 333.34375 392.39374Q332.875 392.22186 331.875 392.22186L330.0625 392.22186L330.0625 398.78436ZM337.875 399.8L337.875 391.20624L341.10938 391.20624Q342.09375 391.20624 342.6875 391.47186Q343.28125 391.7375 343.60938 392.28436Q343.95312 392.8156 343.95312 393.40936Q343.95312 393.95624 343.65625 394.4406Q343.35938 394.925 342.75 395.22186Q343.53125 395.45624 343.9375 396.01874Q344.35938 396.5656 344.35938 397.3156Q344.35938 397.90936 344.10938 398.4406Q343.85938 398.95624 343.48438 399.2375Q343.10938 399.51874 342.53125 399.65936Q341.96875 399.8 341.15625 399.8L337.875 399.8ZM339.01562 394.8156L340.875 394.8156Q341.625 394.8156 341.95312 394.72186Q342.39062 394.59686 342.60938 394.3Q342.82812 393.9875 342.82812 393.53436Q342.82812 393.1125 342.625 392.78436Q342.42188 392.45624 342.03125 392.34686Q341.65625 392.22186 340.73438 392.22186L339.01562 392.22186L339.01562 394.8156ZM339.01562 398.78436L341.15625 398.78436Q341.70312 398.78436 341.92188 398.7375Q342.32812 398.675 342.57812 398.51874Q342.84375 398.34686 343.01562 398.03436Q343.1875 397.72186 343.1875 397.3156Q343.1875 396.83124 342.9375 396.47186Q342.70312 396.1125 342.26562 395.97186Q341.82812 395.83124 341.0 395.83124L339.01562 395.83124L339.01562 398.78436ZM348.79688 402.1906L348.79688 393.58124L349.75 393.58124L349.75 394.3781Q350.09375 393.90936 350.51562 393.675Q350.95312 393.4406 351.5625 393.4406Q352.35938 393.4406 352.96875 393.84686Q353.57812 394.2531 353.875 395.0031Q354.1875 395.7531 354.1875 396.64374Q354.1875 397.59686 353.84375 398.3625Q353.51562 399.1281 352.85938 399.53436Q352.20312 399.9406 351.48438 399.9406Q350.95312 399.9406 350.53125 399.72186Q350.10938 399.4875 349.84375 399.15936L349.84375 402.1906L348.79688 402.1906ZM349.75 396.72186Q349.75 397.925 350.23438 398.5031Q350.71875 399.0656 351.40625 399.0656Q352.10938 399.0656 352.60938 398.47186Q353.10938 397.8781 353.10938 396.6281Q353.10938 395.4406 352.625 394.8625Q352.14062 394.26874 351.45312 394.26874Q350.78125 394.26874 350.26562 394.89374Q349.75 395.51874 349.75 396.72186ZM355.40625 396.6906Q355.40625 394.95624 356.35938 394.1281Q357.15625 393.4406 358.3125 393.4406Q359.59375 393.4406 360.40625 394.28436Q361.23438 395.1125 361.23438 396.59686Q361.23438 397.8 360.875 398.4875Q360.51562 399.175 359.8125 399.5656Q359.125 399.9406 358.3125 399.9406Q357.01562 399.9406 356.20312 399.1125Q355.40625 398.26874 355.40625 396.6906ZM356.48438 396.6906Q356.48438 397.8781 357.0 398.47186Q357.53125 399.0656 358.3125 399.0656Q359.10938 399.0656 359.625 398.47186Q360.14062 397.8781 360.14062 396.65936Q360.14062 395.5031 359.60938 394.90936Q359.09375 394.3156 358.3125 394.3156Q357.53125 394.3156 357.0 394.90936Q356.48438 395.4875 356.48438 396.6906ZM362.40625 396.6906Q362.40625 394.95624 363.35938 394.1281Q364.15625 393.4406 365.3125 393.4406Q366.59375 393.4406 367.40625 394.28436Q368.23438 395.1125 368.23438 396.59686Q368.23438 397.8 367.875 398.4875Q367.51562 399.175 366.8125 399.5656Q366.125 399.9406 365.3125 399.9406Q364.01562 399.9406 363.20312 399.1125Q362.40625 398.26874 362.40625 396.6906ZM363.48438 396.6906Q363.48438 397.8781 364.0 398.47186Q364.53125 399.0656 365.3125 399.0656Q366.10938 399.0656 366.625 398.47186Q367.14062 397.8781 367.14062 396.65936Q367.14062 395.5031 366.60938 394.90936Q366.09375 394.3156 365.3125 394.3156Q364.53125 394.3156 364.0 394.90936Q363.48438 395.4875 363.48438 396.6906ZM369.76562 399.8L369.76562 391.20624L370.82812 391.20624L370.82812 399.8L369.76562 399.8ZM375.79688 399.8L375.79688 393.58124L376.73438 393.58124L376.73438 394.45624Q377.03125 393.9875 377.51562 393.72186Q378.0 393.4406 378.625 393.4406Q379.3125 393.4406 379.75 393.72186Q380.20312 394.0031 380.375 394.51874Q381.125 393.4406 382.29688 393.4406Q383.23438 393.4406 383.71875 393.95624Q384.21875 394.45624 384.21875 395.53436L384.21875 399.8L383.17188 399.8L383.17188 395.8781Q383.17188 395.2531 383.0625 394.97186Q382.96875 394.6906 382.70312 394.51874Q382.4375 394.34686 382.0625 394.34686Q381.40625 394.34686 380.96875 394.78436Q380.54688 395.22186 380.54688 396.1906L380.54688 399.8L379.48438 399.8L379.48438 395.7531Q379.48438 395.05 379.21875 394.70624Q378.96875 394.34686 378.39062 394.34686Q377.9375 394.34686 377.5625 394.58124Q377.1875 394.8156 377.01562 395.26874Q376.84375 395.72186 376.84375 396.5656L376.84375 399.8L375.79688 399.8ZM390.875 399.8L390.875 398.8781Q390.14062 399.9406 388.89062 399.9406Q388.34375 399.9406 387.85938 399.7375Q387.39062 399.51874 387.15625 399.20624Q386.92188 398.8781 386.82812 398.40936Q386.76562 398.1125 386.76562 397.425L386.76562 393.58124L387.82812 393.58124L387.82812 397.03436Q387.82812 397.84686 387.89062 398.14374Q387.98438 398.55 388.29688 398.8Q388.625 399.03436 389.10938 399.03436Q389.57812 399.03436 389.98438 398.8Q390.40625 398.55 390.57812 398.1281Q390.76562 397.70624 390.76562 396.90936L390.76562 393.58124L391.8125 393.58124L391.8125 399.8L390.875 399.8ZM393.76562 399.8L393.76562 391.20624L394.82812 391.20624L394.82812 399.8L393.76562 399.8ZM399.09375 398.8625L399.25 399.78436Q398.79688 399.8781 398.45312 399.8781Q397.875 399.8781 397.5625 399.70624Q397.25 399.51874 397.10938 399.22186Q396.98438 398.925 396.98438 397.97186L396.98438 394.39374L396.21875 394.39374L396.21875 393.58124L396.98438 393.58124L396.98438 392.03436L398.03125 391.40936L398.03125 393.58124L399.09375 393.58124L399.09375 394.39374L398.03125 394.39374L398.03125 398.03436Q398.03125 398.4875 398.07812 398.6125Q398.14062 398.7375 398.26562 398.8156Q398.39062 398.89374 398.625 398.89374Q398.8125 398.89374 399.09375 398.8625ZM399.79688 392.425L399.79688 391.20624L400.85938 391.20624L400.85938 392.425L399.79688 392.425ZM399.79688 399.8L399.79688 393.58124L400.85938 393.58124L400.85938 399.8L399.79688 399.8ZM402.79688 402.1906L402.79688 393.58124L403.75 393.58124L403.75 394.3781Q404.09375 393.90936 404.51562 393.675Q404.95312 393.4406 405.5625 393.4406Q406.35938 393.4406 406.96875 393.84686Q407.57812 394.2531 407.875 395.0031Q408.1875 395.7531 408.1875 396.64374Q408.1875 397.59686 407.84375 398.3625Q407.51562 399.1281 406.85938 399.53436Q406.20312 399.9406 405.48438 399.9406Q404.95312 399.9406 404.53125 399.72186Q404.10938 399.4875 403.84375 399.15936L403.84375 402.1906L402.79688 402.1906ZM403.75 396.72186Q403.75 397.925 404.23438 398.5031Q404.71875 399.0656 405.40625 399.0656Q406.10938 399.0656 406.60938 398.47186Q407.10938 397.8781 407.10938 396.6281Q407.10938 395.4406 406.625 394.8625Q406.14062 394.26874 405.45312 394.26874Q404.78125 394.26874 404.26562 394.89374Q403.75 395.51874 403.75 396.72186ZM409.76562 399.8L409.76562 391.20624L410.82812 391.20624L410.82812 399.8L409.76562 399.8ZM412.79688 392.425L412.79688 391.20624L413.85938 391.20624L413.85938 392.425L412.79688 392.425ZM412.79688 399.8L412.79688 393.58124L413.85938 393.58124L413.85938 399.8L412.79688 399.8ZM420.04688 397.8L421.14062 397.925Q420.89062 398.8781 420.1875 399.40936Q419.48438 399.9406 418.40625 399.9406Q417.04688 399.9406 416.23438 399.09686Q415.4375 398.2531 415.4375 396.7375Q415.4375 395.175 416.25 394.3156Q417.0625 393.4406 418.34375 393.4406Q419.59375 393.4406 420.375 394.28436Q421.17188 395.1281 421.17188 396.675Q421.17188 396.76874 421.17188 396.95624L416.53125 396.95624Q416.59375 397.9875 417.10938 398.53436Q417.625 399.0656 418.40625 399.0656Q418.98438 399.0656 419.39062 398.76874Q419.8125 398.45624 420.04688 397.8ZM416.59375 396.09686L420.0625 396.09686Q420.0 395.3 419.67188 394.90936Q419.15625 394.3 418.35938 394.3Q417.625 394.3 417.125 394.78436Q416.64062 395.26874 416.59375 396.09686ZM422.78125 399.8L422.78125 393.58124L423.73438 393.58124L423.73438 394.51874Q424.09375 393.8625 424.39062 393.65936Q424.70312 393.4406 425.07812 393.4406Q425.60938 393.4406 426.15625 393.76874L425.79688 394.7531Q425.40625 394.51874 425.03125 394.51874Q424.67188 394.51874 424.39062 394.7375Q424.125 394.9406 424.01562 395.3156Q423.82812 395.8781 423.82812 396.53436L423.82812 399.8L422.78125 399.8Z" fill-rule="nonzero"/><path fill="#000000" d="M32.19999 252.44583L23.606237 252.44583L23.606237 248.63333Q23.606237 247.47708 23.840612 246.88333Q24.074987 246.28958 24.668737 245.9302Q25.246862 245.57083 25.949987 245.57083Q26.871862 245.57083 27.496862 246.16458Q28.121862 246.75833 28.293737 247.9927Q28.512487 247.53958 28.715612 247.3052Q29.168737 246.8052 29.856237 246.3677L32.19999 244.8677L32.19999 246.3052L30.418737 247.4302Q29.637487 247.9302 29.231237 248.25833Q28.824987 248.57083 28.668737 248.83646Q28.496862 249.08646 28.418737 249.35208Q28.387487 249.53958 28.387487 249.97708L28.387487 251.3052L32.19999 251.3052L32.19999 252.44583ZM27.403112 251.3052L27.403112 248.85208Q27.403112 248.08646 27.246862 247.64896Q27.074987 247.19583 26.731237 246.97708Q26.371862 246.7427 25.949987 246.7427Q25.340612 246.7427 24.949987 247.19583Q24.559362 247.63333 24.559362 248.58646L24.559362 251.3052L27.403112 251.3052ZM32.19999 243.46146L23.606237 243.46146L23.606237 240.21146Q23.606237 239.3677 23.684362 238.91458Q23.793737 238.27396 24.090612 237.85208Q24.387487 237.41458 24.918737 237.16458Q25.449987 236.89896 26.090612 236.89896Q27.184362 236.89896 27.949987 237.60208Q28.699987 238.28958 28.699987 240.1177L28.699987 242.32083L32.19999 242.32083L32.19999 243.46146ZM27.699987 242.32083L27.699987 240.10208Q27.699987 238.9927 27.293737 238.53958Q26.871862 238.07083 26.121862 238.07083Q25.590612 238.07083 25.215612 238.35208Q24.824987 238.6177 24.699987 239.0552Q24.621862 239.35208 24.621862 240.1177L24.621862 242.32083L27.699987 242.32083ZM29.434362 235.83646L29.340612 234.77396Q29.996862 234.69583 30.403112 234.41458Q30.809362 234.13333 31.074987 233.5552Q31.324987 232.96146 31.324987 232.22708Q31.324987 231.58646 31.137487 231.08646Q30.934362 230.58646 30.606237 230.35208Q30.262487 230.10208 29.871862 230.10208Q29.465612 230.10208 29.168737 230.33646Q28.856237 230.57083 28.653112 231.10208Q28.512487 231.46146 28.231237 232.64896Q27.949987 233.82083 27.699987 234.28958Q27.371862 234.91458 26.903112 235.21146Q26.418737 235.50833 25.824987 235.50833Q25.184362 235.50833 24.621862 235.14896Q24.043737 234.77396 23.762487 234.07083Q23.465612 233.35208 23.465612 232.4927Q23.465612 231.53958 23.778112 230.8052Q24.074987 230.07083 24.684362 229.6802Q25.278112 229.28958 26.028112 229.25833L26.106237 230.35208Q25.293737 230.44583 24.887487 230.96146Q24.465612 231.46146 24.465612 232.44583Q24.465612 233.47708 24.840612 233.94583Q25.215612 234.41458 25.746862 234.41458Q26.215612 234.41458 26.512487 234.08646Q26.809362 233.75833 27.121862 232.38333Q27.434362 230.9927 27.668737 230.47708Q28.028112 229.72708 28.559362 229.3677Q29.074987 229.00833 29.778112 229.00833Q30.465612 229.00833 31.074987 229.39896Q31.668737 229.78958 32.01249 230.52396Q32.340614 231.25833 32.340614 232.1802Q32.340614 233.35208 32.01249 234.14896Q31.668737 234.9302 30.981237 235.38333Q30.293737 235.82083 29.434362 235.83646Z" fill-rule="nonzero"/><path fill="#000000" d="M77.7 350.5656Q77.7 349.03436 78.0125 348.1125Q78.325 347.175 78.93437 346.675Q79.55937 346.175 80.49687 346.175Q81.18437 346.175 81.7 346.45624Q82.23125 346.7375 82.575 347.26874Q82.91875 347.78436 83.10625 348.53436Q83.29375 349.28436 83.29375 350.5656Q83.29375 352.08124 82.98125 353.0031Q82.68437 353.925 82.05937 354.4406Q81.45 354.9406 80.49687 354.9406Q79.2625 354.9406 78.54375 354.05Q77.7 352.9875 77.7 350.5656ZM78.77812 350.5656Q78.77812 352.675 79.27812 353.3781Q79.77812 354.08124 80.49687 354.08124Q81.23125 354.08124 81.71562 353.3781Q82.21562 352.675 82.21562 350.5656Q82.21562 348.4406 81.71562 347.7531Q81.23125 347.05 80.48125 347.05Q79.7625 347.05 79.325 347.65936Q78.77812 348.4406 78.77812 350.5656Z" fill-rule="nonzero"/><path fill="#000000" d="M63.7 294.34167L64.80937 294.24792Q64.93437 295.06042 65.37187 295.46667Q65.825 295.87292 66.46562 295.87292Q67.21562 295.87292 67.74687 295.2948Q68.27812 294.71667 68.27812 293.77917Q68.27812 292.87292 67.7625 292.3573Q67.2625 291.82605 66.43437 291.82605Q65.93437 291.82605 65.5125 292.06042Q65.10625 292.2948 64.87187 292.65417L63.8875 292.52917L64.71562 288.12292L68.99687 288.12292L68.99687 289.12292L65.55937 289.12292L65.10625 291.43542Q65.87187 290.88855 66.71562 290.88855Q67.84062 290.88855 68.60625 291.6698Q69.3875 292.45105 69.3875 293.68542Q69.3875 294.84167 68.71562 295.70105Q67.8875 296.7323 66.46562 296.7323Q65.29375 296.7323 64.54375 296.07605Q63.809376 295.4198 63.7 294.34167ZM70.7 292.3573Q70.7 290.82605 71.0125 289.90417Q71.325 288.96667 71.93437 288.46667Q72.55937 287.96667 73.49687 287.96667Q74.18437 287.96667 74.7 288.24792Q75.23125 288.52917 75.575 289.06042Q75.91875 289.57605 76.10625 290.32605Q76.29375 291.07605 76.29375 292.3573Q76.29375 293.87292 75.98125 294.7948Q75.68437 295.71667 75.05937 296.2323Q74.45 296.7323 73.49687 296.7323Q72.2625 296.7323 71.54375 295.84167Q70.7 294.77917 70.7 292.3573ZM71.77812 292.3573Q71.77812 294.46667 72.27812 295.1698Q72.77812 295.87292 73.49687 295.87292Q74.23125 295.87292 74.71562 295.1698Q75.21562 294.46667 75.21562 292.3573Q75.21562 290.2323 74.71562 289.5448Q74.23125 288.84167 73.48125 288.84167Q72.7625 288.84167 72.325 289.45105Q71.77812 290.2323 71.77812 292.3573ZM77.7 292.3573Q77.7 290.82605 78.0125 289.90417Q78.325 288.96667 78.93437 288.46667Q79.55937 287.96667 80.49687 287.96667Q81.18437 287.96667 81.7 288.24792Q82.23125 288.52917 82.575 289.06042Q82.91875 289.57605 83.10625 290.32605Q83.29375 291.07605 83.29375 292.3573Q83.29375 293.87292 82.98125 294.7948Q82.68437 295.71667 82.05937 296.2323Q81.45 296.7323 80.49687 296.7323Q79.2625 296.7323 78.54375 295.84167Q77.7 294.77917 77.7 292.3573ZM78.77812 292.3573Q78.77812 294.46667 79.27812 295.1698Q79.77812 295.87292 80.49687 295.87292Q81.23125 295.87292 81.71562 295.1698Q82.21562 294.46667 82.21562 292.3573Q82.21562 290.2323 81.71562 289.5448Q81.23125 288.84167 80.48125 288.84167Q79.7625 288.84167 79.325 289.45105Q78.77812 290.2323 78.77812 292.3573Z" fill-rule="nonzero"/><path fill="#000000" d="M57.66875 238.38333L56.621876 238.38333L56.621876 231.66458Q56.23125 232.02396 55.60625 232.39896Q54.996876 232.75833 54.5125 232.9302L54.5125 231.91458Q55.3875 231.4927 56.04375 230.91458Q56.715626 230.32083 56.996876 229.75833L57.66875 229.75833L57.66875 238.38333ZM63.7 234.14896Q63.7 232.6177 64.0125 231.69583Q64.325 230.75833 64.93437 230.25833Q65.55937 229.75833 66.49687 229.75833Q67.18437 229.75833 67.7 230.03958Q68.23125 230.32083 68.575 230.85208Q68.91875 231.3677 69.10625 232.1177Q69.29375 232.8677 69.29375 234.14896Q69.29375 235.66458 68.98125 236.58646Q68.68437 237.50833 68.05937 238.02396Q67.45 238.52396 66.49687 238.52396Q65.2625 238.52396 64.54375 237.63333Q63.7 236.57083 63.7 234.14896ZM64.77812 234.14896Q64.77812 236.25833 65.27812 236.96146Q65.77812 237.66458 66.49687 237.66458Q67.23125 237.66458 67.71562 236.96146Q68.21562 236.25833 68.21562 234.14896Q68.21562 232.02396 67.71562 231.33646Q67.23125 230.63333 66.48125 230.63333Q65.7625 230.63333 65.325 231.2427Q64.77812 232.02396 64.77812 234.14896ZM70.7 234.14896Q70.7 232.6177 71.0125 231.69583Q71.325 230.75833 71.93437 230.25833Q72.55937 229.75833 73.49687 229.75833Q74.18437 229.75833 74.7 230.03958Q75.23125 230.32083 75.575 230.85208Q75.91875 231.3677 76.10625 232.1177Q76.29375 232.8677 76.29375 234.14896Q76.29375 235.66458 75.98125 236.58646Q75.68437 237.50833 75.05937 238.02396Q74.45 238.52396 73.49687 238.52396Q72.2625 238.52396 71.54375 237.63333Q70.7 236.57083 70.7 234.14896ZM71.77812 234.14896Q71.77812 236.25833 72.27812 236.96146Q72.77812 237.66458 73.49687 237.66458Q74.23125 237.66458 74.71562 236.96146Q75.21562 236.25833 75.21562 234.14896Q75.21562 232.02396 74.71562 231.33646Q74.23125 230.63333 73.48125 230.63333Q72.7625 230.63333 72.325 231.2427Q71.77812 232.02396 71.77812 234.14896ZM77.7 234.14896Q77.7 232.6177 78.0125 231.69583Q78.325 230.75833 78.93437 230.25833Q79.55937 229.75833 80.49687 229.75833Q81.18437 229.75833 81.7 230.03958Q82.23125 230.32083 82.575 230.85208Q82.91875 231.3677 83.10625 232.1177Q83.29375 232.8677 83.29375 234.14896Q83.29375 235.66458 82.98125 236.58646Q82.68437 237.50833 82.05937 238.02396Q81.45 238.52396 80.49687 238.52396Q79.2625 238.52396 78.54375 237.63333Q77.7 236.57083 77.7 234.14896ZM78.77812 234.14896Q78.77812 236.25833 79.27812 236.96146Q79.77812 237.66458 80.49687 237.66458Q81.23125 237.66458 81.71562 236.96146Q82.21562 236.25833 82.21562 234.14896Q82.21562 232.02396 81.71562 231.33646Q81.23125 230.63333 80.48125 230.63333Q79.7625 230.63333 79.325 231.2427Q78.77812 232.02396 78.77812 234.14896Z" fill-rule="nonzero"/><path fill="#000000" d="M57.66875 180.175L56.621876 180.175L56.621876 173.45625Q56.23125 173.81563 55.60625 174.19063Q54.996876 174.55 54.5125 174.72188L54.5125 173.70625Q55.3875 173.28438 56.04375 172.70625Q56.715626 172.1125 56.996876 171.55L57.66875 171.55L57.66875 180.175ZM63.7 177.925L64.80937 177.83125Q64.93437 178.64375 65.37187 179.05Q65.825 179.45625 66.46562 179.45625Q67.21562 179.45625 67.74687 178.87813Q68.27812 178.3 68.27812 177.3625Q68.27812 176.45625 67.7625 175.94063Q67.2625 175.40938 66.43437 175.40938Q65.93437 175.40938 65.5125 175.64375Q65.10625 175.87813 64.87187 176.2375L63.8875 176.1125L64.71562 171.70625L68.99687 171.70625L68.99687 172.70625L65.55937 172.70625L65.10625 175.01875Q65.87187 174.47188 66.71562 174.47188Q67.84062 174.47188 68.60625 175.25313Q69.3875 176.03438 69.3875 177.26875Q69.3875 178.425 68.71562 179.28438Q67.8875 180.31563 66.46562 180.31563Q65.29375 180.31563 64.54375 179.65938Q63.809376 179.00313 63.7 177.925ZM70.7 175.94063Q70.7 174.40938 71.0125 173.4875Q71.325 172.55 71.93437 172.05Q72.55937 171.55 73.49687 171.55Q74.18437 171.55 74.7 171.83125Q75.23125 172.1125 75.575 172.64375Q75.91875 173.15938 76.10625 173.90938Q76.29375 174.65938 76.29375 175.94063Q76.29375 177.45625 75.98125 178.37813Q75.68437 179.3 75.05937 179.81563Q74.45 180.31563 73.49687 180.31563Q72.2625 180.31563 71.54375 179.425Q70.7 178.3625 70.7 175.94063ZM71.77812 175.94063Q71.77812 178.05 72.27812 178.75313Q72.77812 179.45625 73.49687 179.45625Q74.23125 179.45625 74.71562 178.75313Q75.21562 178.05 75.21562 175.94063Q75.21562 173.81563 74.71562 173.12813Q74.23125 172.425 73.48125 172.425Q72.7625 172.425 72.325 173.03438Q71.77812 173.81563 71.77812 175.94063ZM77.7 175.94063Q77.7 174.40938 78.0125 173.4875Q78.325 172.55 78.93437 172.05Q79.55937 171.55 80.49687 171.55Q81.18437 171.55 81.7 171.83125Q82.23125 172.1125 82.575 172.64375Q82.91875 173.15938 83.10625 173.90938Q83.29375 174.65938 83.29375 175.94063Q83.29375 177.45625 82.98125 178.37813Q82.68437 179.3 82.05937 179.81563Q81.45 180.31563 80.49687 180.31563Q79.2625 180.31563 78.54375 179.425Q77.7 178.3625 77.7 175.94063ZM78.77812 175.94063Q78.77812 178.05 79.27812 178.75313Q79.77812 179.45625 80.49687 179.45625Q81.23125 179.45625 81.71562 178.75313Q82.21562 178.05 82.21562 175.94063Q82.21562 173.81563 81.71562 173.12813Q81.23125 172.425 80.48125 172.425Q79.7625 172.425 79.325 173.03438Q78.77812 173.81563 78.77812 175.94063Z" fill-rule="nonzero"/><path fill="#000000" d="M59.246876 120.95104L59.246876 121.96667L53.559376 121.96667Q53.559376 121.59167 53.684376 121.23229Q53.903126 120.65417 54.371876 120.09167Q54.85625 119.52917 55.7625 118.79479Q57.16875 117.63854 57.653126 116.96667Q58.153126 116.29479 58.153126 115.70104Q58.153126 115.07604 57.7 114.65417Q57.246876 114.21667 56.528126 114.21667Q55.7625 114.21667 55.309376 114.66979Q54.85625 115.12292 54.840626 115.93542L53.7625 115.82604Q53.871876 114.60729 54.590626 113.98229Q55.325 113.34167 56.559376 113.34167Q57.79375 113.34167 58.5125 114.02917Q59.23125 114.71667 59.23125 115.73229Q59.23125 116.24792 59.0125 116.74792Q58.809376 117.23229 58.309376 117.79479Q57.825 118.34167 56.7 119.29479Q55.746876 120.09167 55.465626 120.38854Q55.2 120.66979 55.028126 120.95104L59.246876 120.95104ZM63.7 117.73229Q63.7 116.20104 64.0125 115.27917Q64.325 114.34167 64.93437 113.84167Q65.55937 113.34167 66.49687 113.34167Q67.18437 113.34167 67.7 113.62292Q68.23125 113.90417 68.575 114.43542Q68.91875 114.95104 69.10625 115.70104Q69.29375 116.45104 69.29375 117.73229Q69.29375 119.24792 68.98125 120.16979Q68.68437 121.09167 68.05937 121.60729Q67.45 122.10729 66.49687 122.10729Q65.2625 122.10729 64.54375 121.21667Q63.7 120.15417 63.7 117.73229ZM64.77812 117.73229Q64.77812 119.84167 65.27812 120.54479Q65.77812 121.24792 66.49687 121.24792Q67.23125 121.24792 67.71562 120.54479Q68.21562 119.84167 68.21562 117.73229Q68.21562 115.60729 67.71562 114.91979Q67.23125 114.21667 66.48125 114.21667Q65.7625 114.21667 65.325 114.82604Q64.77812 115.60729 64.77812 117.73229ZM70.7 117.73229Q70.7 116.20104 71.0125 115.27917Q71.325 114.34167 71.93437 113.84167Q72.55937 113.34167 73.49687 113.34167Q74.18437 113.34167 74.7 113.62292Q75.23125 113.90417 75.575 114.43542Q75.91875 114.95104 76.10625 115.70104Q76.29375 116.45104 76.29375 117.73229Q76.29375 119.24792 75.98125 120.16979Q75.68437 121.09167 75.05937 121.60729Q74.45 122.10729 73.49687 122.10729Q72.2625 122.10729 71.54375 121.21667Q70.7 120.15417 70.7 117.73229ZM71.77812 117.73229Q71.77812 119.84167 72.27812 120.54479Q72.77812 121.24792 73.49687 121.24792Q74.23125 121.24792 74.71562 120.54479Q75.21562 119.84167 75.21562 117.73229Q75.21562 115.60729 74.71562 114.91979Q74.23125 114.21667 73.48125 114.21667Q72.7625 114.21667 72.325 114.82604Q71.77812 115.60729 71.77812 117.73229ZM77.7 117.73229Q77.7 116.20104 78.0125 115.27917Q78.325 114.34167 78.93437 113.84167Q79.55937 113.34167 80.49687 113.34167Q81.18437 113.34167 81.7 113.62292Q82.23125 113.90417 82.575 114.43542Q82.91875 114.95104 83.10625 115.70104Q83.29375 116.45104 83.29375 117.73229Q83.29375 119.24792 82.98125 120.16979Q82.68437 121.09167 82.05937 121.60729Q81.45 122.10729 80.49687 122.10729Q79.2625 122.10729 78.54375 121.21667Q77.7 120.15417 77.7 117.73229ZM78.77812 117.73229Q78.77812 119.84167 79.27812 120.54479Q79.77812 121.24792 80.49687 121.24792Q81.23125 121.24792 81.71562 120.54479Q82.21562 119.84167 82.21562 117.73229Q82.21562 115.60729 81.71562 114.91979Q81.23125 114.21667 80.48125 114.21667Q79.7625 114.21667 79.325 114.82604Q78.77812 115.60729 78.77812 117.73229Z" fill-rule="nonzero"/><path fill="#000000" d="M175.17564 367.8L174.12877 367.8L174.12877 361.08124Q173.73814 361.4406 173.11314 361.8156Q172.50377 362.175 172.0194 362.34686L172.0194 361.33124Q172.8944 360.90936 173.55064 360.33124Q174.22252 359.7375 174.50377 359.175L175.17564 359.175L175.17564 367.8ZM178.80064 367.8L178.80064 366.59686L180.00377 366.59686L180.00377 367.8L178.80064 367.8ZM181.2069 365.55L182.31627 365.45624Q182.44127 366.26874 182.87877 366.675Q183.3319 367.08124 183.97252 367.08124Q184.72252 367.08124 185.25377 366.5031Q185.78502 365.925 185.78502 364.9875Q185.78502 364.08124 185.2694 363.5656Q184.7694 363.03436 183.94127 363.03436Q183.44127 363.03436 183.0194 363.26874Q182.61314 363.5031 182.37877 363.8625L181.3944 363.7375L182.22252 359.33124L186.50377 359.33124L186.50377 360.33124L183.06627 360.33124L182.61314 362.64374Q183.37877 362.09686 184.22252 362.09686Q185.34752 362.09686 186.11314 362.8781Q186.8944 363.65936 186.8944 364.89374Q186.8944 366.05 186.22252 366.90936Q185.3944 367.9406 183.97252 367.9406Q182.80064 367.9406 182.05064 367.28436Q181.31627 366.6281 181.2069 365.55Z" fill-rule="nonzero"/><path fill="#000000" d="M313.61584 366.78436L313.61584 367.8L307.92834 367.8Q307.92834 367.425 308.05334 367.0656Q308.2721 366.4875 308.74084 365.925Q309.22522 365.3625 310.13147 364.6281Q311.53772 363.47186 312.0221 362.8Q312.5221 362.1281 312.5221 361.53436Q312.5221 360.90936 312.06897 360.4875Q311.61584 360.05 310.8971 360.05Q310.13147 360.05 309.67834 360.5031Q309.22522 360.95624 309.2096 361.76874L308.13147 361.65936Q308.24084 360.4406 308.9596 359.8156Q309.69397 359.175 310.92834 359.175Q312.16272 359.175 312.88147 359.8625Q313.60022 360.55 313.60022 361.5656Q313.60022 362.08124 313.38147 362.58124Q313.17834 363.0656 312.67834 363.6281Q312.19397 364.175 311.06897 365.1281Q310.11584 365.925 309.8346 366.22186Q309.56897 366.5031 309.3971 366.78436L313.61584 366.78436Z" fill-rule="nonzero"/><path fill="#000000" d="M440.4779 366.78436L440.4779 367.8L434.7904 367.8Q434.7904 367.425 434.9154 367.0656Q435.13416 366.4875 435.6029 365.925Q436.08728 365.3625 436.99353 364.6281Q438.39978 363.47186 438.88416 362.8Q439.38416 362.1281 439.38416 361.53436Q439.38416 360.90936 438.93103 360.4875Q438.4779 360.05 437.75916 360.05Q436.99353 360.05 436.5404 360.5031Q436.08728 360.95624 436.07166 361.76874L434.99353 361.65936Q435.1029 360.4406 435.82166 359.8156Q436.55603 359.175 437.7904 359.175Q439.02478 359.175 439.74353 359.8625Q440.46228 360.55 440.46228 361.5656Q440.46228 362.08124 440.24353 362.58124Q440.0404 363.0656 439.5404 363.6281Q439.05603 364.175 437.93103 365.1281Q436.9779 365.925 436.69666 366.22186Q436.43103 366.5031 436.25916 366.78436L440.4779 366.78436ZM442.52478 367.8L442.52478 366.59686L443.7279 366.59686L443.7279 367.8L442.52478 367.8ZM444.93103 365.55L446.0404 365.45624Q446.1654 366.26874 446.6029 366.675Q447.05603 367.08124 447.69666 367.08124Q448.44666 367.08124 448.9779 366.5031Q449.50916 365.925 449.50916 364.9875Q449.50916 364.08124 448.99353 363.5656Q448.49353 363.03436 447.6654 363.03436Q447.1654 363.03436 446.74353 363.26874Q446.33728 363.5031 446.1029 363.8625L445.11853 363.7375L445.94666 359.33124L450.2279 359.33124L450.2279 360.33124L446.7904 360.33124L446.33728 362.64374Q447.1029 362.09686 447.94666 362.09686Q449.07166 362.09686 449.83728 362.8781Q450.61853 363.65936 450.61853 364.89374Q450.61853 366.05 449.94666 366.90936Q449.11853 367.9406 447.69666 367.9406Q446.52478 367.9406 445.77478 367.28436Q445.0404 366.6281 444.93103 365.55Z" fill-rule="nonzero"/><path fill="#000000" d="M571.7931 365.53436L572.8556 365.39374Q573.02747 366.28436 573.46497 366.6906Q573.90247 367.08124 574.52747 367.08124Q575.27747 367.08124 575.7931 366.5656Q576.3087 366.05 576.3087 365.28436Q576.3087 364.5656 575.82434 364.09686Q575.3556 363.6125 574.6212 363.6125Q574.32434 363.6125 573.8712 363.7375L573.9962 362.8Q574.1056 362.8156 574.1681 362.8156Q574.83997 362.8156 575.3712 362.47186Q575.9181 362.1125 575.9181 361.3781Q575.9181 360.8 575.52747 360.425Q575.13684 360.03436 574.51184 360.03436Q573.90247 360.03436 573.4806 360.425Q573.07434 360.8156 572.96497 361.58124L571.90247 361.39374Q572.08997 360.34686 572.77747 359.76874Q573.46497 359.175 574.4806 359.175Q575.1837 359.175 575.77747 359.4875Q576.3712 359.78436 576.6837 360.3Q576.9962 360.8156 576.9962 361.40936Q576.9962 361.95624 576.69934 362.425Q576.40247 362.8781 575.82434 363.14374Q576.57434 363.3156 576.9962 363.8781Q577.4181 364.425 577.4181 365.26874Q577.4181 366.39374 576.58997 367.175Q575.77747 367.95624 574.52747 367.95624Q573.40247 367.95624 572.65247 367.28436Q571.90247 366.59686 571.7931 365.53436Z" fill-rule="nonzero"/><path fill="#4285f4" d="M60.5 84.833336C60.5 84.28105 60.947716 83.833336 61.5 83.833336L71.5 83.833336C72.052284 83.833336 72.5 84.28105 72.5 84.833336L72.5 94.833336C72.5 95.38562 72.052284 95.833336 71.5 95.833336L61.5 95.833336C60.947716 95.833336 60.5 95.38562 60.5 94.833336Z" fill-rule="nonzero"/><path fill="#1a1a1a" d="M82.921875 93.833336L80.640625 85.239586L81.8125 85.239586L83.125 90.88021Q83.328125 91.75521 83.484375 92.63021Q83.8125 91.25521 83.875 91.03646L85.5 85.239586L86.875 85.239586L88.109375 89.583336Q88.5625 91.208336 88.78125 92.63021Q88.9375 91.81771 89.203125 90.75521L90.546875 85.239586L91.6875 85.239586L89.34375 93.833336L88.234375 93.833336L86.4375 87.28646Q86.203125 86.47396 86.15625 86.28646Q86.03125 86.864586 85.90625 87.28646L84.09375 93.833336L82.921875 93.833336ZM92.453125 93.833336L92.453125 85.239586L98.65625 85.239586L98.65625 86.25521L93.59375 86.25521L93.59375 88.88021L98.34375 88.88021L98.34375 89.895836L93.59375 89.895836L93.59375 92.81771L98.859375 92.81771L98.859375 93.833336L92.453125 93.833336ZM100.375 93.833336L100.375 85.239586L103.609375 85.239586Q104.59375 85.239586 105.1875 85.50521Q105.78125 85.770836 106.109375 86.31771Q106.453125 86.84896 106.453125 87.44271Q106.453125 87.989586 106.15625 88.47396Q105.859375 88.958336 105.25 89.25521Q106.03125 89.489586 106.4375 90.052086Q106.859375 90.59896 106.859375 91.34896Q106.859375 91.94271 106.609375 92.47396Q106.359375 92.989586 105.984375 93.270836Q105.609375 93.552086 105.03125 93.69271Q104.46875 93.833336 103.65625 93.833336L100.375 93.833336ZM101.515625 88.84896L103.375 88.84896Q104.125 88.84896 104.453125 88.75521Q104.890625 88.63021 105.109375 88.333336Q105.328125 88.020836 105.328125 87.56771Q105.328125 87.145836 105.125 86.81771Q104.921875 86.489586 104.53125 86.38021Q104.15625 86.25521 103.234375 86.25521L101.515625 86.25521L101.515625 88.84896ZM101.515625 92.81771L103.65625 92.81771Q104.203125 92.81771 104.421875 92.770836Q104.828125 92.708336 105.078125 92.552086Q105.34375 92.38021 105.515625 92.06771Q105.6875 91.75521 105.6875 91.34896Q105.6875 90.864586 105.4375 90.50521Q105.203125 90.145836 104.765625 90.00521Q104.328125 89.864586 103.5 89.864586L101.515625 89.864586L101.515625 92.81771ZM114.96875 93.833336L113.921875 93.833336L113.921875 87.114586Q113.53125 87.47396 112.90625 87.84896Q112.296875 88.208336 111.8125 88.38021L111.8125 87.364586Q112.6875 86.94271 113.34375 86.364586Q114.015625 85.770836 114.296875 85.208336L114.96875 85.208336L114.96875 93.833336ZM120.546875 93.833336L123.875 89.34896L120.953125 85.239586L122.296875 85.239586L123.859375 87.44271Q124.34375 88.13021 124.546875 88.50521Q124.84375 88.03646 125.234375 87.520836L126.953125 85.239586L128.1875 85.239586L125.171875 89.28646L128.42188 93.833336L127.015625 93.833336L124.859375 90.770836Q124.671875 90.50521 124.484375 90.19271Q124.203125 90.66146 124.078125 90.833336L121.921875 93.833336L120.546875 93.833336ZM137.5625 90.81771L138.6875 91.114586Q138.32812 92.50521 137.40625 93.239586Q136.48438 93.97396 135.14062 93.97396Q133.75 93.97396 132.875 93.41146Q132.0 92.84896 131.54688 91.78646Q131.09375 90.708336 131.09375 89.47396Q131.09375 88.13021 131.60938 87.13021Q132.125 86.13021 133.0625 85.614586Q134.01562 85.09896 135.15625 85.09896Q136.4375 85.09896 137.3125 85.75521Q138.20312 86.41146 138.54688 87.59896L137.42188 87.864586Q137.125 86.927086 136.54688 86.50521Q135.98438 86.06771 135.125 86.06771Q134.14062 86.06771 133.46875 86.552086Q132.8125 87.020836 132.53125 87.81771Q132.26562 88.614586 132.26562 89.47396Q132.26562 90.56771 132.57812 91.38021Q132.90625 92.19271 133.57812 92.59896Q134.25 93.00521 135.04688 93.00521Q136.0 93.00521 136.65625 92.458336Q137.32812 91.91146 137.5625 90.81771ZM140.42188 93.833336L140.42188 85.239586L143.67188 85.239586Q144.51562 85.239586 144.96875 85.31771Q145.60938 85.427086 146.03125 85.72396Q146.46875 86.020836 146.71875 86.552086Q146.98438 87.083336 146.98438 87.72396Q146.98438 88.81771 146.28125 89.583336Q145.59375 90.333336 143.76562 90.333336L141.5625 90.333336L141.5625 93.833336L140.42188 93.833336ZM141.5625 89.333336L143.78125 89.333336Q144.89062 89.333336 145.34375 88.927086Q145.8125 88.50521 145.8125 87.75521Q145.8125 87.22396 145.53125 86.84896Q145.26562 86.458336 144.82812 86.333336Q144.53125 86.25521 143.76562 86.25521L141.5625 86.25521L141.5625 89.333336ZM154.0625 85.239586L155.20312 85.239586L155.20312 90.208336Q155.20312 91.50521 154.90625 92.270836Q154.60938 93.020836 153.84375 93.50521Q153.07812 93.97396 151.84375 93.97396Q150.64062 93.97396 149.85938 93.56771Q149.09375 93.145836 148.76562 92.364586Q148.4375 91.56771 148.4375 90.208336L148.4375 85.239586L149.57812 85.239586L149.57812 90.19271Q149.57812 91.31771 149.78125 91.84896Q150.0 92.38021 150.5 92.677086Q151.01562 92.958336 151.75 92.958336Q153.0 92.958336 153.53125 92.395836Q154.0625 91.81771 154.0625 90.19271L154.0625 85.239586Z" fill-rule="nonzero"/><path fill="#ea4335" d="M172.5 84.833336C172.5 84.28105 172.94771 83.833336 173.5 83.833336L183.5 83.833336C184.05229 83.833336 184.5 84.28105 184.5 84.833336L184.5 94.833336C184.5 95.38562 184.05229 95.833336 183.5 95.833336L173.5 95.833336C172.94771 95.833336 172.5 95.38562 172.5 94.833336Z" fill-rule="nonzero"/><path fill="#1a1a1a" d="M194.92188 93.833336L192.64062 85.239586L193.8125 85.239586L195.125 90.88021Q195.32812 91.75521 195.48438 92.63021Q195.8125 91.25521 195.875 91.03646L197.5 85.239586L198.875 85.239586L200.10938 89.583336Q200.5625 91.208336 200.78125 92.63021Q200.9375 91.81771 201.20312 90.75521L202.54688 85.239586L203.6875 85.239586L201.34375 93.833336L200.23438 93.833336L198.4375 87.28646Q198.20312 86.47396 198.15625 86.28646Q198.03125 86.864586 197.90625 87.28646L196.09375 93.833336L194.92188 93.833336ZM204.45312 93.833336L204.45312 85.239586L210.65625 85.239586L210.65625 86.25521L205.59375 86.25521L205.59375 88.88021L210.34375 88.88021L210.34375 89.895836L205.59375 89.895836L205.59375 92.81771L210.85938 92.81771L210.85938 93.833336L204.45312 93.833336ZM212.375 93.833336L212.375 85.239586L215.60938 85.239586Q216.59375 85.239586 217.1875 85.50521Q217.78125 85.770836 218.10938 86.31771Q218.45312 86.84896 218.45312 87.44271Q218.45312 87.989586 218.15625 88.47396Q217.85938 88.958336 217.25 89.25521Q218.03125 89.489586 218.4375 90.052086Q218.85938 90.59896 218.85938 91.34896Q218.85938 91.94271 218.60938 92.47396Q218.35938 92.989586 217.98438 93.270836Q217.60938 93.552086 217.03125 93.69271Q216.46875 93.833336 215.65625 93.833336L212.375 93.833336ZM213.51562 88.84896L215.375 88.84896Q216.125 88.84896 216.45312 88.75521Q216.89062 88.63021 217.10938 88.333336Q217.32812 88.020836 217.32812 87.56771Q217.32812 87.145836 217.125 86.81771Q216.92188 86.489586 216.53125 86.38021Q216.15625 86.25521 215.23438 86.25521L213.51562 86.25521L213.51562 88.84896ZM213.51562 92.81771L215.65625 92.81771Q216.20312 92.81771 216.42188 92.770836Q216.82812 92.708336 217.07812 92.552086Q217.34375 92.38021 217.51562 92.06771Q217.6875 91.75521 217.6875 91.34896Q217.6875 90.864586 217.4375 90.50521Q217.20312 90.145836 216.76562 90.00521Q216.32812 89.864586 215.5 89.864586L213.51562 89.864586L213.51562 92.81771ZM226.96875 93.833336L225.92188 93.833336L225.92188 87.114586Q225.53125 87.47396 224.90625 87.84896Q224.29688 88.208336 223.8125 88.38021L223.8125 87.364586Q224.6875 86.94271 225.34375 86.364586Q226.01562 85.770836 226.29688 85.208336L226.96875 85.208336L226.96875 93.833336ZM230.59375 93.833336L230.59375 92.63021L231.79688 92.63021L231.79688 93.833336L230.59375 93.833336ZM233.0 91.583336L234.10938 91.489586Q234.23438 92.302086 234.67188 92.708336Q235.125 93.114586 235.76562 93.114586Q236.51562 93.114586 237.04688 92.53646Q237.57812 91.958336 237.57812 91.020836Q237.57812 90.114586 237.0625 89.59896Q236.5625 89.06771 235.73438 89.06771Q235.23438 89.06771 234.8125 89.302086Q234.40625 89.53646 234.17188 89.895836L233.1875 89.770836L234.01562 85.364586L238.29688 85.364586L238.29688 86.364586L234.85938 86.364586L234.40625 88.677086Q235.17188 88.13021 236.01562 88.13021Q237.14062 88.13021 237.90625 88.91146Q238.6875 89.69271 238.6875 90.927086Q238.6875 92.083336 238.01562 92.94271Q237.1875 93.97396 235.76562 93.97396Q234.59375 93.97396 233.84375 93.31771Q233.10938 92.66146 233.0 91.583336ZM242.54688 93.833336L245.875 89.34896L242.95312 85.239586L244.29688 85.239586L245.85938 87.44271Q246.34375 88.13021 246.54688 88.50521Q246.84375 88.03646 247.23438 87.520836L248.95312 85.239586L250.1875 85.239586L247.17188 89.28646L250.42188 93.833336L249.01562 93.833336L246.85938 90.770836Q246.67188 90.50521 246.48438 90.19271Q246.20312 90.66146 246.07812 90.833336L243.92188 93.833336L242.54688 93.833336ZM259.5625 90.81771L260.6875 91.114586Q260.32812 92.50521 259.40625 93.239586Q258.48438 93.97396 257.14062 93.97396Q255.75 93.97396 254.875 93.41146Q254.0 92.84896 253.54688 91.78646Q253.09375 90.708336 253.09375 89.47396Q253.09375 88.13021 253.60938 87.13021Q254.125 86.13021 255.0625 85.614586Q256.01562 85.09896 257.15625 85.09896Q258.4375 85.09896 259.3125 85.75521Q260.20312 86.41146 260.54688 87.59896L259.42188 87.864586Q259.125 86.927086 258.54688 86.50521Q257.98438 86.06771 257.125 86.06771Q256.14062 86.06771 255.46875 86.552086Q254.8125 87.020836 254.53125 87.81771Q254.26562 88.614586 254.26562 89.47396Q254.26562 90.56771 254.57812 91.38021Q254.90625 92.19271 255.57812 92.59896Q256.25 93.00521 257.04688 93.00521Q258.0 93.00521 258.65625 92.458336Q259.32812 91.91146 259.5625 90.81771ZM262.42188 93.833336L262.42188 85.239586L265.67188 85.239586Q266.51562 85.239586 266.96875 85.31771Q267.60938 85.427086 268.03125 85.72396Q268.46875 86.020836 268.71875 86.552086Q268.98438 87.083336 268.98438 87.72396Q268.98438 88.81771 268.28125 89.583336Q267.59375 90.333336 265.76562 90.333336L263.5625 90.333336L263.5625 93.833336L262.42188 93.833336ZM263.5625 89.333336L265.78125 89.333336Q266.89062 89.333336 267.34375 88.927086Q267.8125 88.50521 267.8125 87.75521Q267.8125 87.22396 267.53125 86.84896Q267.26562 86.458336 266.82812 86.333336Q266.53125 86.25521 265.76562 86.25521L263.5625 86.25521L263.5625 89.333336ZM276.0625 85.239586L277.20312 85.239586L277.20312 90.208336Q277.20312 91.50521 276.90625 92.270836Q276.60938 93.020836 275.84375 93.50521Q275.07812 93.97396 273.84375 93.97396Q272.64062 93.97396 271.85938 93.56771Q271.09375 93.145836 270.76562 92.364586Q270.4375 91.56771 270.4375 90.208336L270.4375 85.239586L271.57812 85.239586L271.57812 90.19271Q271.57812 91.31771 271.78125 91.84896Q272.0 92.38021 272.5 92.677086Q273.01562 92.958336 273.75 92.958336Q275.0 92.958336 275.53125 92.395836Q276.0625 91.81771 276.0625 90.19271L276.0625 85.239586Z" fill-rule="nonzero"/><path fill="#fbbc04" d="M294.5 84.833336C294.5 84.28105 294.94772 83.833336 295.5 83.833336L305.5 83.833336C306.05228 83.833336 306.5 84.28105 306.5 84.833336L306.5 94.833336C306.5 95.38562 306.05228 95.833336 305.5 95.833336L295.5 95.833336C294.94772 95.833336 294.5 95.38562 294.5 94.833336Z" fill-rule="nonzero"/><path fill="#1a1a1a" d="M316.92188 93.833336L314.64062 85.239586L315.8125 85.239586L317.125 90.88021Q317.32812 91.75521 317.48438 92.63021Q317.8125 91.25521 317.875 91.03646L319.5 85.239586L320.875 85.239586L322.10938 89.583336Q322.5625 91.208336 322.78125 92.63021Q322.9375 91.81771 323.20312 90.75521L324.54688 85.239586L325.6875 85.239586L323.34375 93.833336L322.23438 93.833336L320.4375 87.28646Q320.20312 86.47396 320.15625 86.28646Q320.03125 86.864586 319.90625 87.28646L318.09375 93.833336L316.92188 93.833336ZM326.45312 93.833336L326.45312 85.239586L332.65625 85.239586L332.65625 86.25521L327.59375 86.25521L327.59375 88.88021L332.34375 88.88021L332.34375 89.895836L327.59375 89.895836L327.59375 92.81771L332.85938 92.81771L332.85938 93.833336L326.45312 93.833336ZM334.375 93.833336L334.375 85.239586L337.60938 85.239586Q338.59375 85.239586 339.1875 85.50521Q339.78125 85.770836 340.10938 86.31771Q340.45312 86.84896 340.45312 87.44271Q340.45312 87.989586 340.15625 88.47396Q339.85938 88.958336 339.25 89.25521Q340.03125 89.489586 340.4375 90.052086Q340.85938 90.59896 340.85938 91.34896Q340.85938 91.94271 340.60938 92.47396Q340.35938 92.989586 339.98438 93.270836Q339.60938 93.552086 339.03125 93.69271Q338.46875 93.833336 337.65625 93.833336L334.375 93.833336ZM335.51562 88.84896L337.375 88.84896Q338.125 88.84896 338.45312 88.75521Q338.89062 88.63021 339.10938 88.333336Q339.32812 88.020836 339.32812 87.56771Q339.32812 87.145836 339.125 86.81771Q338.92188 86.489586 338.53125 86.38021Q338.15625 86.25521 337.23438 86.25521L335.51562 86.25521L335.51562 88.84896ZM335.51562 92.81771L337.65625 92.81771Q338.20312 92.81771 338.42188 92.770836Q338.82812 92.708336 339.07812 92.552086Q339.34375 92.38021 339.51562 92.06771Q339.6875 91.75521 339.6875 91.34896Q339.6875 90.864586 339.4375 90.50521Q339.20312 90.145836 338.76562 90.00521Q338.32812 89.864586 337.5 89.864586L335.51562 89.864586L335.51562 92.81771ZM350.54688 92.81771L350.54688 93.833336L344.85938 93.833336Q344.85938 93.458336 344.98438 93.09896Q345.20312 92.520836 345.67188 91.958336Q346.15625 91.395836 347.0625 90.66146Q348.46875 89.50521 348.95312 88.833336Q349.45312 88.16146 349.45312 87.56771Q349.45312 86.94271 349.0 86.520836Q348.54688 86.083336 347.82812 86.083336Q347.0625 86.083336 346.60938 86.53646Q346.15625 86.989586 346.14062 87.802086L345.0625 87.69271Q345.17188 86.47396 345.89062 85.84896Q346.625 85.208336 347.85938 85.208336Q349.09375 85.208336 349.8125 85.895836Q350.53125 86.583336 350.53125 87.59896Q350.53125 88.114586 350.3125 88.614586Q350.10938 89.09896 349.60938 89.66146Q349.125 90.208336 348.0 91.16146Q347.04688 91.958336 346.76562 92.25521Q346.5 92.53646 346.32812 92.81771L350.54688 92.81771ZM354.54688 93.833336L357.875 89.34896L354.95312 85.239586L356.29688 85.239586L357.85938 87.44271Q358.34375 88.13021 358.54688 88.50521Q358.84375 88.03646 359.23438 87.520836L360.95312 85.239586L362.1875 85.239586L359.17188 89.28646L362.42188 93.833336L361.01562 93.833336L358.85938 90.770836Q358.67188 90.50521 358.48438 90.19271Q358.20312 90.66146 358.07812 90.833336L355.92188 93.833336L354.54688 93.833336ZM371.5625 90.81771L372.6875 91.114586Q372.32812 92.50521 371.40625 93.239586Q370.48438 93.97396 369.14062 93.97396Q367.75 93.97396 366.875 93.41146Q366.0 92.84896 365.54688 91.78646Q365.09375 90.708336 365.09375 89.47396Q365.09375 88.13021 365.60938 87.13021Q366.125 86.13021 367.0625 85.614586Q368.01562 85.09896 369.15625 85.09896Q370.4375 85.09896 371.3125 85.75521Q372.20312 86.41146 372.54688 87.59896L371.42188 87.864586Q371.125 86.927086 370.54688 86.50521Q369.98438 86.06771 369.125 86.06771Q368.14062 86.06771 367.46875 86.552086Q366.8125 87.020836 366.53125 87.81771Q366.26562 88.614586 366.26562 89.47396Q366.26562 90.56771 366.57812 91.38021Q366.90625 92.19271 367.57812 92.59896Q368.25 93.00521 369.04688 93.00521Q370.0 93.00521 370.65625 92.458336Q371.32812 91.91146 371.5625 90.81771ZM374.42188 93.833336L374.42188 85.239586L377.67188 85.239586Q378.51562 85.239586 378.96875 85.31771Q379.60938 85.427086 380.03125 85.72396Q380.46875 86.020836 380.71875 86.552086Q380.98438 87.083336 380.98438 87.72396Q380.98438 88.81771 380.28125 89.583336Q379.59375 90.333336 377.76562 90.333336L375.5625 90.333336L375.5625 93.833336L374.42188 93.833336ZM375.5625 89.333336L377.78125 89.333336Q378.89062 89.333336 379.34375 88.927086Q379.8125 88.50521 379.8125 87.75521Q379.8125 87.22396 379.53125 86.84896Q379.26562 86.458336 378.82812 86.333336Q378.53125 86.25521 377.76562 86.25521L375.5625 86.25521L375.5625 89.333336ZM388.0625 85.239586L389.20312 85.239586L389.20312 90.208336Q389.20312 91.50521 388.90625 92.270836Q388.60938 93.020836 387.84375 93.50521Q387.07812 93.97396 385.84375 93.97396Q384.64062 93.97396 383.85938 93.56771Q383.09375 93.145836 382.76562 92.364586Q382.4375 91.56771 382.4375 90.208336L382.4375 85.239586L383.57812 85.239586L383.57812 90.19271Q383.57812 91.31771 383.78125 91.84896Q384.0 92.38021 384.5 92.677086Q385.01562 92.958336 385.75 92.958336Q387.0 92.958336 387.53125 92.395836Q388.0625 91.81771 388.0625 90.19271L388.0625 85.239586Z" fill-rule="nonzero"/><path fill="#34a853" d="M406.5 84.833336C406.5 84.28105 406.94772 83.833336 407.5 83.833336L417.5 83.833336C418.05228 83.833336 418.5 84.28105 418.5 84.833336L418.5 94.833336C418.5 95.38562 418.05228 95.833336 417.5 95.833336L407.5 95.833336C406.94772 95.833336 406.5 95.38562 406.5 94.833336Z" fill-rule="nonzero"/><path fill="#1a1a1a" d="M428.92188 93.833336L426.64062 85.239586L427.8125 85.239586L429.125 90.88021Q429.32812 91.75521 429.48438 92.63021Q429.8125 91.25521 429.875 91.03646L431.5 85.239586L432.875 85.239586L434.10938 89.583336Q434.5625 91.208336 434.78125 92.63021Q434.9375 91.81771 435.20312 90.75521L436.54688 85.239586L437.6875 85.239586L435.34375 93.833336L434.23438 93.833336L432.4375 87.28646Q432.20312 86.47396 432.15625 86.28646Q432.03125 86.864586 431.90625 87.28646L430.09375 93.833336L428.92188 93.833336ZM438.45312 93.833336L438.45312 85.239586L444.65625 85.239586L444.65625 86.25521L439.59375 86.25521L439.59375 88.88021L444.34375 88.88021L444.34375 89.895836L439.59375 89.895836L439.59375 92.81771L444.85938 92.81771L444.85938 93.833336L438.45312 93.833336ZM446.375 93.833336L446.375 85.239586L449.60938 85.239586Q450.59375 85.239586 451.1875 85.50521Q451.78125 85.770836 452.10938 86.31771Q452.45312 86.84896 452.45312 87.44271Q452.45312 87.989586 452.15625 88.47396Q451.85938 88.958336 451.25 89.25521Q452.03125 89.489586 452.4375 90.052086Q452.85938 90.59896 452.85938 91.34896Q452.85938 91.94271 452.60938 92.47396Q452.35938 92.989586 451.98438 93.270836Q451.60938 93.552086 451.03125 93.69271Q450.46875 93.833336 449.65625 93.833336L446.375 93.833336ZM447.51562 88.84896L449.375 88.84896Q450.125 88.84896 450.45312 88.75521Q450.89062 88.63021 451.10938 88.333336Q451.32812 88.020836 451.32812 87.56771Q451.32812 87.145836 451.125 86.81771Q450.92188 86.489586 450.53125 86.38021Q450.15625 86.25521 449.23438 86.25521L447.51562 86.25521L447.51562 88.84896ZM447.51562 92.81771L449.65625 92.81771Q450.20312 92.81771 450.42188 92.770836Q450.82812 92.708336 451.07812 92.552086Q451.34375 92.38021 451.51562 92.06771Q451.6875 91.75521 451.6875 91.34896Q451.6875 90.864586 451.4375 90.50521Q451.20312 90.145836 450.76562 90.00521Q450.32812 89.864586 449.5 89.864586L447.51562 89.864586L447.51562 92.81771ZM462.54688 92.81771L462.54688 93.833336L456.85938 93.833336Q456.85938 93.458336 456.98438 93.09896Q457.20312 92.520836 457.67188 91.958336Q458.15625 91.395836 459.0625 90.66146Q460.46875 89.50521 460.95312 88.833336Q461.45312 88.16146 461.45312 87.56771Q461.45312 86.94271 461.0 86.520836Q460.54688 86.083336 459.82812 86.083336Q459.0625 86.083336 458.60938 86.53646Q458.15625 86.989586 458.14062 87.802086L457.0625 87.69271Q457.17188 86.47396 457.89062 85.84896Q458.625 85.208336 459.85938 85.208336Q461.09375 85.208336 461.8125 85.895836Q462.53125 86.583336 462.53125 87.59896Q462.53125 88.114586 462.3125 88.614586Q462.10938 89.09896 461.60938 89.66146Q461.125 90.208336 460.0 91.16146Q459.04688 91.958336 458.76562 92.25521Q458.5 92.53646 458.32812 92.81771L462.54688 92.81771ZM464.59375 93.833336L464.59375 92.63021L465.79688 92.63021L465.79688 93.833336L464.59375 93.833336ZM467.0 91.583336L468.10938 91.489586Q468.23438 92.302086 468.67188 92.708336Q469.125 93.114586 469.76562 93.114586Q470.51562 93.114586 471.04688 92.53646Q471.57812 91.958336 471.57812 91.020836Q471.57812 90.114586 471.0625 89.59896Q470.5625 89.06771 469.73438 89.06771Q469.23438 89.06771 468.8125 89.302086Q468.40625 89.53646 468.17188 89.895836L467.1875 89.770836L468.01562 85.364586L472.29688 85.364586L472.29688 86.364586L468.85938 86.364586L468.40625 88.677086Q469.17188 88.13021 470.01562 88.13021Q471.14062 88.13021 471.90625 88.91146Q472.6875 89.69271 472.6875 90.927086Q472.6875 92.083336 472.01562 92.94271Q471.1875 93.97396 469.76562 93.97396Q468.59375 93.97396 467.84375 93.31771Q467.10938 92.66146 467.0 91.583336ZM476.54688 93.833336L479.875 89.34896L476.95312 85.239586L478.29688 85.239586L479.85938 87.44271Q480.34375 88.13021 480.54688 88.50521Q480.84375 88.03646 481.23438 87.520836L482.95312 85.239586L484.1875 85.239586L481.17188 89.28646L484.42188 93.833336L483.01562 93.833336L480.85938 90.770836Q480.67188 90.50521 480.48438 90.19271Q480.20312 90.66146 480.07812 90.833336L477.92188 93.833336L476.54688 93.833336ZM493.5625 90.81771L494.6875 91.114586Q494.32812 92.50521 493.40625 93.239586Q492.48438 93.97396 491.14062 93.97396Q489.75 93.97396 488.875 93.41146Q488.0 92.84896 487.54688 91.78646Q487.09375 90.708336 487.09375 89.47396Q487.09375 88.13021 487.60938 87.13021Q488.125 86.13021 489.0625 85.614586Q490.01562 85.09896 491.15625 85.09896Q492.4375 85.09896 493.3125 85.75521Q494.20312 86.41146 494.54688 87.59896L493.42188 87.864586Q493.125 86.927086 492.54688 86.50521Q491.98438 86.06771 491.125 86.06771Q490.14062 86.06771 489.46875 86.552086Q488.8125 87.020836 488.53125 87.81771Q488.26562 88.614586 488.26562 89.47396Q488.26562 90.56771 488.57812 91.38021Q488.90625 92.19271 489.57812 92.59896Q490.25 93.00521 491.04688 93.00521Q492.0 93.00521 492.65625 92.458336Q493.32812 91.91146 493.5625 90.81771ZM496.42188 93.833336L496.42188 85.239586L499.67188 85.239586Q500.51562 85.239586 500.96875 85.31771Q501.60938 85.427086 502.03125 85.72396Q502.46875 86.020836 502.71875 86.552086Q502.98438 87.083336 502.98438 87.72396Q502.98438 88.81771 502.28125 89.583336Q501.59375 90.333336 499.76562 90.333336L497.5625 90.333336L497.5625 93.833336L496.42188 93.833336ZM497.5625 89.333336L499.78125 89.333336Q500.89062 89.333336 501.34375 88.927086Q501.8125 88.50521 501.8125 87.75521Q501.8125 87.22396 501.53125 86.84896Q501.26562 86.458336 500.82812 86.333336Q500.53125 86.25521 499.76562 86.25521L497.5625 86.25521L497.5625 89.333336ZM510.0625 85.239586L511.20312 85.239586L511.20312 90.208336Q511.20312 91.50521 510.90625 92.270836Q510.60938 93.020836 509.84375 93.50521Q509.07812 93.97396 507.84375 93.97396Q506.64062 93.97396 505.85938 93.56771Q505.09375 93.145836 504.76562 92.364586Q504.4375 91.56771 504.4375 90.208336L504.4375 85.239586L505.57812 85.239586L505.57812 90.19271Q505.57812 91.31771 505.78125 91.84896Q506.0 92.38021 506.5 92.677086Q507.01562 92.958336 507.75 92.958336Q509.0 92.958336 509.53125 92.395836Q510.0625 91.81771 510.0625 90.19271L510.0625 85.239586Z" fill-rule="nonzero"/><path fill="#ff6d01" d="M528.5 84.833336C528.5 84.28105 528.9477 83.833336 529.5 83.833336L539.5 83.833336C540.0523 83.833336 540.5 84.28105 540.5 84.833336L540.5 94.833336C540.5 95.38562 540.0523 95.833336 539.5 95.833336L529.5 95.833336C528.9477 95.833336 528.5 95.38562 528.5 94.833336Z" fill-rule="nonzero"/><path fill="#1a1a1a" d="M550.9219 93.833336L548.6406 85.239586L549.8125 85.239586L551.125 90.88021Q551.3281 91.75521 551.4844 92.63021Q551.8125 91.25521 551.875 91.03646L553.5 85.239586L554.875 85.239586L556.1094 89.583336Q556.5625 91.208336 556.78125 92.63021Q556.9375 91.81771 557.2031 90.75521L558.5469 85.239586L559.6875 85.239586L557.34375 93.833336L556.2344 93.833336L554.4375 87.28646Q554.2031 86.47396 554.15625 86.28646Q554.03125 86.864586 553.90625 87.28646L552.09375 93.833336L550.9219 93.833336ZM560.4531 93.833336L560.4531 85.239586L566.65625 85.239586L566.65625 86.25521L561.59375 86.25521L561.59375 88.88021L566.34375 88.88021L566.34375 89.895836L561.59375 89.895836L561.59375 92.81771L566.8594 92.81771L566.8594 93.833336L560.4531 93.833336ZM568.375 93.833336L568.375 85.239586L571.6094 85.239586Q572.59375 85.239586 573.1875 85.50521Q573.78125 85.770836 574.1094 86.31771Q574.4531 86.84896 574.4531 87.44271Q574.4531 87.989586 574.15625 88.47396Q573.8594 88.958336 573.25 89.25521Q574.03125 89.489586 574.4375 90.052086Q574.8594 90.59896 574.8594 91.34896Q574.8594 91.94271 574.6094 92.47396Q574.3594 92.989586 573.9844 93.270836Q573.6094 93.552086 573.03125 93.69271Q572.46875 93.833336 571.65625 93.833336L568.375 93.833336ZM569.5156 88.84896L571.375 88.84896Q572.125 88.84896 572.4531 88.75521Q572.8906 88.63021 573.1094 88.333336Q573.3281 88.020836 573.3281 87.56771Q573.3281 87.145836 573.125 86.81771Q572.9219 86.489586 572.53125 86.38021Q572.15625 86.25521 571.2344 86.25521L569.5156 86.25521L569.5156 88.84896ZM569.5156 92.81771L571.65625 92.81771Q572.2031 92.81771 572.4219 92.770836Q572.8281 92.708336 573.0781 92.552086Q573.34375 92.38021 573.5156 92.06771Q573.6875 91.75521 573.6875 91.34896Q573.6875 90.864586 573.4375 90.50521Q573.2031 90.145836 572.7656 90.00521Q572.3281 89.864586 571.5 89.864586L569.5156 89.864586L569.5156 92.81771ZM579.0 91.56771L580.0625 91.427086Q580.2344 92.31771 580.6719 92.72396Q581.1094 93.114586 581.7344 93.114586Q582.4844 93.114586 583.0 92.59896Q583.5156 92.083336 583.5156 91.31771Q583.5156 90.59896 583.03125 90.13021Q582.5625 89.645836 581.8281 89.645836Q581.53125 89.645836 581.0781 89.770836L581.2031 88.833336Q581.3125 88.84896 581.375 88.84896Q582.0469 88.84896 582.5781 88.50521Q583.125 88.145836 583.125 87.41146Q583.125 86.833336 582.7344 86.458336Q582.34375 86.06771 581.71875 86.06771Q581.1094 86.06771 580.6875 86.458336Q580.28125 86.84896 580.1719 87.614586L579.1094 87.427086Q579.2969 86.38021 579.9844 85.802086Q580.6719 85.208336 581.6875 85.208336Q582.3906 85.208336 582.9844 85.520836Q583.5781 85.81771 583.8906 86.333336Q584.2031 86.84896 584.2031 87.44271Q584.2031 87.989586 583.90625 88.458336Q583.6094 88.91146 583.03125 89.177086Q583.78125 89.34896 584.2031 89.91146Q584.625 90.458336 584.625 91.302086Q584.625 92.427086 583.7969 93.208336Q582.9844 93.989586 581.7344 93.989586Q580.6094 93.989586 579.8594 93.31771Q579.1094 92.63021 579.0 91.56771ZM588.5469 93.833336L591.875 89.34896L588.9531 85.239586L590.2969 85.239586L591.8594 87.44271Q592.34375 88.13021 592.5469 88.50521Q592.84375 88.03646 593.2344 87.520836L594.9531 85.239586L596.1875 85.239586L593.1719 89.28646L596.4219 93.833336L595.0156 93.833336L592.8594 90.770836Q592.6719 90.50521 592.4844 90.19271Q592.2031 90.66146 592.0781 90.833336L589.9219 93.833336L588.5469 93.833336ZM605.5625 90.81771L606.6875 91.114586Q606.3281 92.50521 605.40625 93.239586Q604.4844 93.97396 603.1406 93.97396Q601.75 93.97396 600.875 93.41146Q600.0 92.84896 599.5469 91.78646Q599.09375 90.708336 599.09375 89.47396Q599.09375 88.13021 599.6094 87.13021Q600.125 86.13021 601.0625 85.614586Q602.0156 85.09896 603.15625 85.09896Q604.4375 85.09896 605.3125 85.75521Q606.2031 86.41146 606.5469 87.59896L605.4219 87.864586Q605.125 86.927086 604.5469 86.50521Q603.9844 86.06771 603.125 86.06771Q602.1406 86.06771 601.46875 86.552086Q600.8125 87.020836 600.53125 87.81771Q600.2656 88.614586 600.2656 89.47396Q600.2656 90.56771 600.5781 91.38021Q600.90625 92.19271 601.5781 92.59896Q602.25 93.00521 603.0469 93.00521Q604.0 93.00521 604.65625 92.458336Q605.3281 91.91146 605.5625 90.81771ZM608.4219 93.833336L608.4219 85.239586L611.6719 85.239586Q612.5156 85.239586 612.96875 85.31771Q613.6094 85.427086 614.03125 85.72396Q614.46875 86.020836 614.71875 86.552086Q614.9844 87.083336 614.9844 87.72396Q614.9844 88.81771 614.28125 89.583336Q613.59375 90.333336 611.7656 90.333336L609.5625 90.333336L609.5625 93.833336L608.4219 93.833336ZM609.5625 89.333336L611.78125 89.333336Q612.8906 89.333336 613.34375 88.927086Q613.8125 88.50521 613.8125 87.75521Q613.8125 87.22396 613.53125 86.84896Q613.2656 86.458336 612.8281 86.333336Q612.53125 86.25521 611.7656 86.25521L609.5625 86.25521L609.5625 89.333336ZM622.0625 85.239586L623.2031 85.239586L623.2031 90.208336Q623.2031 91.50521 622.90625 92.270836Q622.6094 93.020836 621.84375 93.50521Q621.0781 93.97396 619.84375 93.97396Q618.6406 93.97396 617.8594 93.56771Q617.09375 93.145836 616.7656 92.364586Q616.4375 91.56771 616.4375 90.208336L616.4375 85.239586L617.5781 85.239586L617.5781 90.19271Q617.5781 91.31771 617.78125 91.84896Q618.0 92.38021 618.5 92.677086Q619.0156 92.958336 619.75 92.958336Q621.0 92.958336 621.53125 92.395836Q622.0625 91.81771 622.0625 90.19271L622.0625 85.239586Z" fill-rule="nonzero"/><path fill="#999999" d="M22.325 65.7L22.325 55.684372L23.653126 55.684372L23.653126 59.793747L28.85625 59.793747L28.85625 55.684372L30.184376 55.684372L30.184376 65.7L28.85625 65.7L28.85625 60.981247L23.653126 60.981247L23.653126 65.7L22.325 65.7ZM31.1375 57.090622L31.1375 55.684372L32.35625 55.684372L32.35625 57.090622L31.1375 57.090622ZM31.1375 65.7L31.1375 58.434372L32.35625 58.434372L32.35625 65.7L31.1375 65.7ZM33.903126 66.30937L35.090626 66.48125Q35.16875 67.02812 35.5125 67.29375Q35.965626 67.62187 36.7625 67.62187Q37.621876 67.62187 38.075 67.27812Q38.54375 66.95 38.715626 66.325Q38.809376 65.95 38.79375 64.74687Q37.996876 65.7 36.79375 65.7Q35.29375 65.7 34.465626 64.62187Q33.653126 63.543747 33.653126 62.028122Q33.653126 60.996872 34.028126 60.121872Q34.403126 59.231247 35.10625 58.762497Q35.825 58.278122 36.79375 58.278122Q38.075 58.278122 38.91875 59.309372L38.91875 58.434372L40.04375 58.434372L40.04375 64.71562Q40.04375 66.41875 39.7 67.12187Q39.35625 67.825 38.60625 68.23125Q37.85625 68.65312 36.7625 68.65312Q35.465626 68.65312 34.66875 68.05937Q33.871876 67.48125 33.903126 66.30937ZM34.91875 61.934372Q34.91875 63.371872 35.48125 64.02812Q36.04375 64.68437 36.903126 64.68437Q37.746876 64.68437 38.325 64.02812Q38.903126 63.371872 38.903126 61.981247Q38.903126 60.653122 38.309376 59.981247Q37.715626 59.293747 36.8875 59.293747Q36.059376 59.293747 35.48125 59.965622Q34.91875 60.621872 34.91875 61.934372ZM42.121876 65.7L42.121876 55.684372L43.35625 55.684372L43.35625 59.278122Q44.215626 58.278122 45.528126 58.278122Q46.340626 58.278122 46.934376 58.606247Q47.528126 58.918747 47.778126 59.481247Q48.04375 60.028122 48.04375 61.106247L48.04375 65.7L46.809376 65.7L46.809376 61.106247Q46.809376 60.168747 46.403126 59.762497Q46.0125 59.340622 45.278126 59.340622Q44.73125 59.340622 44.246876 59.621872Q43.7625 59.903122 43.559376 60.387497Q43.35625 60.871872 43.35625 61.731247L43.35625 65.7L42.121876 65.7ZM55.090626 63.356247L56.371876 63.512497Q56.059376 64.6375 55.246876 65.2625Q54.434376 65.87187 53.16875 65.87187Q51.575 65.87187 50.6375 64.8875Q49.715626 63.903122 49.715626 62.137497Q49.715626 60.293747 50.653126 59.293747Q51.60625 58.278122 53.10625 58.278122Q54.559376 58.278122 55.48125 59.278122Q56.403126 60.262497 56.403126 62.059372Q56.403126 62.168747 56.403126 62.387497L50.98125 62.387497Q51.059376 63.574997 51.653126 64.21562Q52.2625 64.85625 53.184376 64.85625Q53.85625 64.85625 54.325 64.49687Q54.809376 64.1375 55.090626 63.356247ZM51.059376 61.371872L55.10625 61.371872Q55.028126 60.449997 54.6375 59.996872Q54.059376 59.293747 53.121876 59.293747Q52.2625 59.293747 51.684376 59.856247Q51.121876 60.418747 51.059376 61.371872ZM58.10625 65.7L58.10625 58.434372L59.215626 58.434372L59.215626 59.543747Q59.6375 58.762497 59.996876 58.528122Q60.35625 58.278122 60.79375 58.278122Q61.41875 58.278122 62.059376 58.668747L61.6375 59.809372Q61.184376 59.543747 60.73125 59.543747Q60.325 59.543747 59.996876 59.793747Q59.684376 60.028122 59.54375 60.465622Q59.340626 61.121872 59.340626 61.903122L59.340626 65.7L58.10625 65.7ZM67.1375 57.090622L67.1375 55.684372L68.35625 55.684372L68.35625 57.090622L67.1375 57.090622ZM67.1375 65.7L67.1375 58.434372L68.35625 58.434372L68.35625 65.7L67.1375 65.7ZM69.6375 63.528122L70.84062 63.340622Q70.95 64.075 71.41875 64.46562Q71.8875 64.85625 72.73125 64.85625Q73.575 64.85625 73.98125 64.5125Q74.40312 64.16875 74.40312 63.699997Q74.40312 63.278122 74.02812 63.043747Q73.77812 62.871872 72.77812 62.621872Q71.41875 62.278122 70.8875 62.028122Q70.37187 61.778122 70.10625 61.340622Q69.84062 60.903122 69.84062 60.371872Q69.84062 59.887497 70.05937 59.481247Q70.27812 59.059372 70.66875 58.778122Q70.95 58.574997 71.43437 58.434372Q71.93437 58.278122 72.5125 58.278122Q73.35625 58.278122 73.99687 58.528122Q74.65312 58.762497 74.96562 59.184372Q75.27812 59.606247 75.3875 60.309372L74.18437 60.481247Q74.10625 59.918747 73.7 59.606247Q73.30937 59.293747 72.59062 59.293747Q71.74687 59.293747 71.3875 59.574997Q71.02812 59.840622 71.02812 60.231247Q71.02812 60.465622 71.16875 60.653122Q71.325 60.856247 71.65312 60.981247Q71.825 61.043747 72.73125 61.293747Q74.04375 61.653122 74.55937 61.871872Q75.075 62.090622 75.35625 62.512497Q75.65312 62.934372 75.65312 63.559372Q75.65312 64.18437 75.29375 64.73125Q74.95 65.2625 74.2625 65.575Q73.59062 65.87187 72.73125 65.87187Q71.325 65.87187 70.575 65.27812Q69.84062 64.68437 69.6375 63.528122ZM82.2625 65.7L81.12187 65.7L81.12187 55.684372L82.34062 55.684372L82.34062 59.246872Q83.12187 58.278122 84.34062 58.278122Q85.0125 58.278122 85.60625 58.543747Q86.2 58.809372 86.59062 59.309372Q86.98125 59.793747 87.2 60.481247Q87.41875 61.168747 87.41875 61.965622Q87.41875 63.824997 86.48125 64.85625Q85.55937 65.87187 84.27812 65.87187Q82.99687 65.87187 82.2625 64.79375L82.2625 65.7ZM82.24687 62.012497Q82.24687 63.324997 82.60625 63.903122Q83.18437 64.85625 84.16875 64.85625Q84.98125 64.85625 85.55937 64.15312Q86.15312 63.449997 86.15312 62.059372Q86.15312 60.637497 85.59062 59.965622Q85.02812 59.293747 84.23125 59.293747Q83.41875 59.293747 82.825 59.996872Q82.24687 60.684372 82.24687 62.012497ZM94.09062 63.356247L95.37187 63.512497Q95.05937 64.6375 94.24687 65.2625Q93.43437 65.87187 92.16875 65.87187Q90.575 65.87187 89.6375 64.8875Q88.71562 63.903122 88.71562 62.137497Q88.71562 60.293747 89.65312 59.293747Q90.60625 58.278122 92.10625 58.278122Q93.55937 58.278122 94.48125 59.278122Q95.40312 60.262497 95.40312 62.059372Q95.40312 62.168747 95.40312 62.387497L89.98125 62.387497Q90.05937 63.574997 90.65312 64.21562Q91.2625 64.85625 92.18437 64.85625Q92.85625 64.85625 93.325 64.49687Q93.80937 64.1375 94.09062 63.356247ZM90.05937 61.371872L94.10625 61.371872Q94.02812 60.449997 93.6375 59.996872Q93.05937 59.293747 92.12187 59.293747Q91.2625 59.293747 90.68437 59.856247Q90.12187 60.418747 90.05937 61.371872ZM99.80937 64.60625L99.98125 65.68437Q99.46562 65.79375 99.05937 65.79375Q98.3875 65.79375 98.0125 65.59062Q97.65312 65.37187 97.49687 65.02812Q97.35625 64.68437 97.35625 63.574997L97.35625 59.403122L96.45 59.403122L96.45 58.434372L97.35625 58.434372L97.35625 56.637497L98.575 55.903122L98.575 58.434372L99.80937 58.434372L99.80937 59.403122L98.575 59.403122L98.575 63.637497Q98.575 64.16875 98.6375 64.325Q98.7 64.46562 98.84062 64.55937Q98.99687 64.65312 99.2625 64.65312Q99.48125 64.65312 99.80937 64.60625ZM103.80937 64.60625L103.98125 65.68437Q103.46562 65.79375 103.05937 65.79375Q102.3875 65.79375 102.0125 65.59062Q101.65312 65.37187 101.49687 65.02812Q101.35625 64.68437 101.35625 63.574997L101.35625 59.403122L100.45 59.403122L100.45 58.434372L101.35625 58.434372L101.35625 56.637497L102.575 55.903122L102.575 58.434372L103.80937 58.434372L103.80937 59.403122L102.575 59.403122L102.575 63.637497Q102.575 64.16875 102.6375 64.325Q102.7 64.46562 102.84062 64.55937Q102.99687 64.65312 103.2625 64.65312Q103.48125 64.65312 103.80937 64.60625ZM110.09062 63.356247L111.37187 63.512497Q111.05937 64.6375 110.24687 65.2625Q109.43437 65.87187 108.16875 65.87187Q106.575 65.87187 105.6375 64.8875Q104.71562 63.903122 104.71562 62.137497Q104.71562 60.293747 105.65312 59.293747Q106.60625 58.278122 108.10625 58.278122Q109.55937 58.278122 110.48125 59.278122Q111.40312 60.262497 111.40312 62.059372Q111.40312 62.168747 111.40312 62.387497L105.98125 62.387497Q106.05937 63.574997 106.65312 64.21562Q107.2625 64.85625 108.18437 64.85625Q108.85625 64.85625 109.325 64.49687Q109.80937 64.1375 110.09062 63.356247ZM106.05937 61.371872L110.10625 61.371872Q110.02812 60.449997 109.6375 59.996872Q109.05937 59.293747 108.12187 59.293747Q107.2625 59.293747 106.68437 59.856247Q106.12187 60.418747 106.05937 61.371872ZM113.10625 65.7L113.10625 58.434372L114.21562 58.434372L114.21562 59.543747Q114.6375 58.762497 114.99687 58.528122Q115.35625 58.278122 115.79375 58.278122Q116.41875 58.278122 117.05937 58.668747L116.6375 59.809372Q116.18437 59.543747 115.73125 59.543747Q115.325 59.543747 114.99687 59.793747Q114.68437 60.028122 114.54375 60.465622Q114.34062 61.121872 114.34062 61.903122L114.34062 65.7L113.10625 65.7Z" fill-rule="nonzero"/><path fill="#757575" d="M31.2625 38.5125L31.2625 40.2L21.809376 40.2Q21.79375 39.559376 22.0125 38.98125Q22.371876 38.0125 23.16875 37.075Q23.965626 36.1375 25.465626 34.903126Q27.809376 32.996876 28.621876 31.8875Q29.45 30.7625 29.45 29.7625Q29.45 28.715626 28.7 27.996876Q27.95 27.278126 26.746876 27.278126Q25.48125 27.278126 24.715626 28.04375Q23.95 28.809376 23.95 30.153126L22.1375 29.965626Q22.325 27.95 23.528126 26.8875Q24.746876 25.825 26.79375 25.825Q28.840626 25.825 30.04375 26.965626Q31.246876 28.10625 31.246876 29.79375Q31.246876 30.653126 30.8875 31.496876Q30.54375 32.325 29.73125 33.246876Q28.91875 34.153126 27.028126 35.7625Q25.434376 37.090626 24.98125 37.559376Q24.54375 38.028126 24.246876 38.5125L31.2625 38.5125ZM49.965626 35.184376L51.85625 35.653126Q51.2625 37.996876 49.715626 39.23125Q48.16875 40.45 45.91875 40.45Q43.60625 40.45 42.153126 39.5125Q40.715626 38.559376 39.95 36.778126Q39.2 34.98125 39.2 32.934376Q39.2 30.7 40.04375 29.04375Q40.903126 27.371876 42.48125 26.5125Q44.059376 25.6375 45.95 25.6375Q48.10625 25.6375 49.559376 26.73125Q51.028126 27.825 51.60625 29.809376L49.746876 30.246876Q49.246876 28.684376 48.29375 27.98125Q47.35625 27.2625 45.91875 27.2625Q44.2625 27.2625 43.153126 28.059376Q42.04375 28.840626 41.590626 30.184376Q41.153126 31.5125 41.153126 32.91875Q41.153126 34.746876 41.684376 36.121876Q42.215626 37.48125 43.340626 38.153126Q44.465626 38.825 45.7625 38.825Q47.35625 38.825 48.465626 37.903126Q49.575 36.98125 49.965626 35.184376ZM53.746876 40.2L53.746876 25.8875L59.1375 25.8875Q60.575 25.8875 61.325 26.0125Q62.371876 26.2 63.090626 26.7Q63.809376 27.184376 64.23125 28.075Q64.66875 28.965626 64.66875 30.028126Q64.66875 31.85625 63.496876 33.121876Q62.340626 34.371876 59.309376 34.371876L55.6375 34.371876L55.6375 40.2L53.746876 40.2ZM55.6375 32.684376L59.340626 32.684376Q61.16875 32.684376 61.934376 32.0125Q62.715626 31.325 62.715626 30.075Q62.715626 29.184376 62.2625 28.54375Q61.809376 27.903126 61.075 27.7Q60.590626 27.575 59.29375 27.575L55.6375 27.575L55.6375 32.684376ZM76.1375 25.8875L78.02812 25.8875L78.02812 34.153126Q78.02812 36.309376 77.54375 37.590626Q77.05937 38.85625 75.77812 39.653126Q74.5125 40.45 72.43437 40.45Q70.41875 40.45 69.1375 39.7625Q67.87187 39.059376 67.325 37.746876Q66.77812 36.434376 66.77812 34.153126L66.77812 25.8875L68.66875 25.8875L68.66875 34.1375Q68.66875 36.0125 69.0125 36.903126Q69.35625 37.778126 70.2 38.2625Q71.04375 38.73125 72.27812 38.73125Q74.35625 38.73125 75.24687 37.79375Q76.1375 36.840626 76.1375 34.1375L76.1375 25.8875ZM89.3875 40.2L89.3875 27.575L84.66875 27.575L84.66875 25.8875L96.0125 25.8875L96.0125 27.575L91.27812 27.575L91.27812 40.2L89.3875 40.2ZM97.5125 40.2L97.5125 25.8875L99.27812 25.8875L99.27812 31.0125Q100.5125 29.590626 102.3875 29.590626Q103.52812 29.590626 104.37187 30.04375Q105.23125 30.496876 105.59062 31.309376Q105.96562 32.10625 105.96562 33.621876L105.96562 40.2L104.21562 40.2L104.21562 33.621876Q104.21562 32.309376 103.6375 31.715626Q103.05937 31.10625 102.02812 31.10625Q101.24687 31.10625 100.54375 31.5125Q99.85625 31.91875 99.55937 32.621876Q99.27812 33.309376 99.27812 34.528126L99.27812 40.2L97.5125 40.2ZM107.49687 40.2L107.49687 29.825L109.075 29.825L109.075 31.403126Q109.68437 30.29375 110.2 29.95Q110.71562 29.590626 111.325 29.590626Q112.21562 29.590626 113.1375 30.153126L112.52812 31.79375Q111.8875 31.403126 111.24687 31.403126Q110.66875 31.403126 110.2 31.7625Q109.74687 32.10625 109.54375 32.715626Q109.2625 33.653126 109.2625 34.7625L109.2625 40.2L107.49687 40.2ZM113.87187 35.0125Q113.87187 32.1375 115.46562 30.746876Q116.80937 29.590626 118.73125 29.590626Q120.87187 29.590626 122.21562 30.996876Q123.575 32.403126 123.575 34.871876Q123.575 36.871876 122.98125 38.028126Q122.3875 39.16875 121.23125 39.809376Q120.09062 40.434376 118.73125 40.434376Q116.54375 40.434376 115.2 39.04375Q113.87187 37.6375 113.87187 35.0125ZM115.66875 35.0125Q115.66875 37.0125 116.52812 37.996876Q117.40312 38.98125 118.73125 38.98125Q120.04375 38.98125 120.90312 37.996876Q121.77812 36.996876 121.77812 34.95Q121.77812 33.028126 120.90312 32.04375Q120.02812 31.04375 118.73125 31.04375Q117.40312 31.04375 116.52812 32.04375Q115.66875 33.028126 115.66875 35.0125ZM132.30937 40.2L132.30937 38.66875Q131.10625 40.434376 129.02812 40.434376Q128.10625 40.434376 127.30937 40.090626Q126.5125 39.73125 126.12187 39.2Q125.74687 38.66875 125.59062 37.8875Q125.48125 37.371876 125.48125 36.246876L125.48125 29.825L127.23125 29.825L127.23125 35.575Q127.23125 36.95 127.34062 37.434376Q127.5125 38.121876 128.04375 38.528126Q128.59062 38.91875 129.37187 38.91875Q130.16875 38.91875 130.85625 38.5125Q131.55937 38.10625 131.84062 37.41875Q132.1375 36.715626 132.1375 35.3875L132.1375 29.825L133.8875 29.825L133.8875 40.2L132.30937 40.2ZM135.2 41.059376L136.90312 41.309376Q137.0125 42.10625 137.49687 42.465626Q138.15312 42.95 139.29375 42.95Q140.5125 42.95 141.16875 42.465626Q141.84062 41.98125 142.075 41.10625Q142.21562 40.559376 142.2 38.840626Q141.04375 40.2 139.325 40.2Q137.18437 40.2 136.0125 38.653126Q134.84062 37.10625 134.84062 34.95Q134.84062 33.465626 135.37187 32.215626Q135.91875 30.965626 136.93437 30.278126Q137.96562 29.590626 139.34062 29.590626Q141.16875 29.590626 142.37187 31.075L142.37187 29.825L143.98125 29.825L143.98125 38.79375Q143.98125 41.215626 143.48125 42.215626Q142.99687 43.23125 141.91875 43.809376Q140.85625 44.403126 139.29375 44.403126Q137.45 44.403126 136.29375 43.575Q135.15312 42.746876 135.2 41.059376ZM136.65312 34.825Q136.65312 36.871876 137.46562 37.809376Q138.27812 38.746876 139.49687 38.746876Q140.7 38.746876 141.5125 37.809376Q142.34062 36.871876 142.34062 34.8875Q142.34062 32.98125 141.49687 32.0125Q140.65312 31.04375 139.46562 31.04375Q138.29375 31.04375 137.46562 31.996876Q136.65312 32.95 136.65312 34.825ZM146.5125 40.2L146.5125 25.8875L148.27812 25.8875L148.27812 31.0125Q149.5125 29.590626 151.3875 29.590626Q152.52812 29.590626 153.37187 30.04375Q154.23125 30.496876 154.59062 31.309376Q154.96562 32.10625 154.96562 33.621876L154.96562 40.2L153.21562 40.2L153.21562 33.621876Q153.21562 32.309376 152.6375 31.715626Q152.05937 31.10625 151.02812 31.10625Q150.24687 31.10625 149.54375 31.5125Q148.85625 31.91875 148.55937 32.621876Q148.27812 33.309376 148.27812 34.528126L148.27812 40.2L146.5125 40.2ZM156.5125 44.16875L156.5125 29.825L158.12187 29.825L158.12187 31.16875Q158.68437 30.3875 159.3875 29.996876Q160.10625 29.590626 161.12187 29.590626Q162.45 29.590626 163.46562 30.278126Q164.48125 30.965626 164.99687 32.215626Q165.52812 33.45 165.52812 34.934376Q165.52812 36.528126 164.95 37.809376Q164.3875 39.075 163.29375 39.7625Q162.2 40.434376 160.99687 40.434376Q160.12187 40.434376 159.41875 40.059376Q158.73125 39.684376 158.27812 39.121876L158.27812 44.16875L156.5125 44.16875ZM158.10625 35.075Q158.10625 37.075 158.91875 38.028126Q159.73125 38.98125 160.8875 38.98125Q162.05937 38.98125 162.8875 37.996876Q163.73125 37.0125 163.73125 34.91875Q163.73125 32.95 162.90312 31.965626Q162.09062 30.965626 160.96562 30.965626Q159.84062 30.965626 158.96562 32.028126Q158.10625 33.075 158.10625 35.075ZM174.30937 40.2L174.30937 38.66875Q173.10625 40.434376 171.02812 40.434376Q170.10625 40.434376 169.30937 40.090626Q168.5125 39.73125 168.12187 39.2Q167.74687 38.66875 167.59062 37.8875Q167.48125 37.371876 167.48125 36.246876L167.48125 29.825L169.23125 29.825L169.23125 35.575Q169.23125 36.95 169.34062 37.434376Q169.5125 38.121876 170.04375 38.528126Q170.59062 38.91875 171.37187 38.91875Q172.16875 38.91875 172.85625 38.5125Q173.55937 38.10625 173.84062 37.41875Q174.1375 36.715626 174.1375 35.3875L174.1375 29.825L175.8875 29.825L175.8875 40.2L174.30937 40.2ZM181.35625 38.621876L181.60625 40.184376Q180.87187 40.340626 180.27812 40.340626Q179.325 40.340626 178.79375 40.04375Q178.27812 39.73125 178.05937 39.246876Q177.84062 38.746876 177.84062 37.16875L177.84062 31.2L176.55937 31.2L176.55937 29.825L177.84062 29.825L177.84062 27.2625L179.59062 26.2L179.59062 29.825L181.35625 29.825L181.35625 31.2L179.59062 31.2L179.59062 37.2625Q179.59062 38.0125 179.68437 38.23125Q179.77812 38.434376 179.98125 38.575Q180.2 38.7 180.59062 38.7Q180.87187 38.7 181.35625 38.621876Z" fill-rule="nonzero"/></svg>