<svg version="1.1" viewBox="0.0 0.0 685.0 424.0" fill="none" stroke="none" stroke-linecap="square" stroke-miterlimit="10" width="685" height="424" xmlns:xlink="http://www.w3.org/1999/xlink" xmlns="http://www.w3.org/2000/svg"><path fill="#ffffff" d="M0 0L685.0 0L685.0 424.0L0 424.0L0 0Z" fill-rule="nonzero"/><path stroke="#333333" stroke-width="1.0" stroke-linecap="butt" d="M80.5 350.5L663.5 350.5" fill-rule="nonzero"/><path stroke="#cccccc" stroke-width="1.0" stroke-linecap="butt" d="M80.5 292.5L663.5 292.5" fill-rule="nonzero"/><path stroke="#cccccc" stroke-width="1.0" stroke-linecap="butt" d="M80.5 234.5L663.5 234.5" fill-rule="nonzero"/><path stroke="#cccccc" stroke-width="1.0" stroke-linecap="butt" d="M80.5 176.5L663.5 176.5" fill-rule="nonzero"/><path stroke="#cccccc" stroke-width="1.0" stroke-linecap="butt" d="M80.5 117.5L663.5 117.5" fill-rule="nonzero"/><clipPath id="id_0"><path d="M80.2 117.96667L663.8 117.96667L663.8 350.8L80.2 350.8L80.2 117.96667Z" clip-rule="nonzero"/></clipPath><path stroke="#000000" stroke-width="2.0" stroke-linecap="butt" stroke-opacity="0.0" clip-path="url(#id_0)" d="M145.0 351.0L130.0 351.0L130.0 335.0C130.0 333.89542 130.89543 333.0 132.0 333.0L143.0 333.0C144.10457 333.0 145.0 333.89542 145.0 335.0Z" fill-rule="nonzero"/><path fill="#4285f4" clip-path="url(#id_0)" d="M145.0 351.0L130.0 351.0L130.0 335.0C130.0 333.89542 130.89543 333.0 132.0 333.0L143.0 333.0C144.10457 333.0 145.0 333.89542 145.0 335.0Z" fill-rule="nonzero"/><path stroke="#000000" stroke-width="2.0" stroke-linecap="butt" stroke-opacity="0.0" clip-path="url(#id_0)" d="M279.0 351.0L264.0 351.0L264.0 335.0C264.0 333.89542 264.89542 333.0 266.0 333.0L277.0 333.0C278.10458 333.0 279.0 333.89542 279.0 335.0Z" fill-rule="nonzero"/><path fill="#4285f4" clip-path="url(#id_0)" d="M279.0 351.0L264.0 351.0L264.0 335.0C264.0 333.89542 264.89542 333.0 266.0 333.0L277.0 333.0C278.10458 333.0 279.0 333.89542 279.0 335.0Z" fill-rule="nonzero"/><path stroke="#000000" stroke-width="2.0" stroke-linecap="butt" stroke-opacity="0.0" clip-path="url(#id_0)" d="M413.0 351.0L398.0 351.0L398.0 335.0C398.0 333.89542 398.89542 333.0 400.0 333.0L411.0 333.0C412.10458 333.0 413.0 333.89542 413.0 335.0Z" fill-rule="nonzero"/><path fill="#4285f4" clip-path="url(#id_0)" d="M413.0 351.0L398.0 351.0L398.0 335.0C398.0 333.89542 398.89542 333.0 400.0 333.0L411.0 333.0C412.10458 333.0 413.0 333.89542 413.0 335.0Z" fill-rule="nonzero"/><path stroke="#000000" stroke-width="2.0" stroke-linecap="butt" stroke-opacity="0.0" clip-path="url(#id_0)" d="M547.0 351.0L532.0 351.0L532.0 335.0C532.0 333.89542 532.89545 333.0 534.0 333.0L545.0 333.0C546.10455 333.0 547.0 333.89542 547.0 335.0Z" fill-rule="nonzero"/><path fill="#4285f4" clip-path="url(#id_0)" d="M547.0 351.0L532.0 351.0L532.0 335.0C532.0 333.89542 532.89545 333.0 534.0 333.0L545.0 333.0C546.10455 333.0 547.0 333.89542 547.0 335.0Z" fill-rule="nonzero"/><path stroke="#000000" stroke-width="2.0" stroke-linecap="butt" stroke-opacity="0.0" clip-path="url(#id_0)" d="M162.0 351.0L147.0 351.0L147.0 280.0C147.0 278.89542 147.89543 278.0 149.0 278.0L160.0 278.0C161.10457 278.0 162.0 278.89542 162.0 280.0Z" fill-rule="nonzero"/><path fill="#ea4335" clip-path="url(#id_0)" d="M162.0 351.0L147.0 351.0L147.0 280.0C147.0 278.89542 147.89543 278.0 149.0 278.0L160.0 278.0C161.10457 278.0 162.0 278.89542 162.0 280.0Z" fill-rule="nonzero"/><path stroke="#000000" stroke-width="2.0" stroke-linecap="butt" stroke-opacity="0.0" clip-path="url(#id_0)" d="M296.0 351.0L281.0 351.0L281.0 277.0C281.0 275.89542 281.89542 275.0 283.0 275.0L294.0 275.0C295.10458 275.0 296.0 275.89542 296.0 277.0Z" fill-rule="nonzero"/><path fill="#ea4335" clip-path="url(#id_0)" d="M296.0 351.0L281.0 351.0L281.0 277.0C281.0 275.89542 281.89542 275.0 283.0 275.0L294.0 275.0C295.10458 275.0 296.0 275.89542 296.0 277.0Z" fill-rule="nonzero"/><path stroke="#000000" stroke-width="2.0" stroke-linecap="butt" stroke-opacity="0.0" clip-path="url(#id_0)" d="M430.0 351.0L415.0 351.0L415.0 277.0C415.0 275.89542 415.89542 275.0 417.0 275.0L428.0 275.0C429.10458 275.0 430.0 275.89542 430.0 277.0Z" fill-rule="nonzero"/><path fill="#ea4335" clip-path="url(#id_0)" d="M430.0 351.0L415.0 351.0L415.0 277.0C415.0 275.89542 415.89542 275.0 417.0 275.0L428.0 275.0C429.10458 275.0 430.0 275.89542 430.0 277.0Z" fill-rule="nonzero"/><path stroke="#000000" stroke-width="2.0" stroke-linecap="butt" stroke-opacity="0.0" clip-path="url(#id_0)" d="M564.0 351.0L549.0 351.0L549.0 277.0C549.0 275.89542 549.89545 275.0 551.0 275.0L562.0 275.0C563.10455 275.0 564.0 275.89542 564.0 277.0Z" fill-rule="nonzero"/><path fill="#ea4335" clip-path="url(#id_0)" d="M564.0 351.0L549.0 351.0L549.0 277.0C549.0 275.89542 549.89545 275.0 551.0 275.0L562.0 275.0C563.10455 275.0 564.0 275.89542 564.0 277.0Z" fill-rule="nonzero"/><path stroke="#000000" stroke-width="2.0" stroke-linecap="butt" stroke-opacity="0.0" clip-path="url(#id_0)" d="M179.0 351.0L164.0 351.0L164.0 219.0C164.0 217.89543 164.89543 217.0 166.0 217.0L177.0 217.0C178.10457 217.0 179.0 217.89543 179.0 219.0Z" fill-rule="nonzero"/><path fill="#fbbc04" clip-path="url(#id_0)" d="M179.0 351.0L164.0 351.0L164.0 219.0C164.0 217.89543 164.89543 217.0 166.0 217.0L177.0 217.0C178.10457 217.0 179.0 217.89543 179.0 219.0Z" fill-rule="nonzero"/><path stroke="#000000" stroke-width="2.0" stroke-linecap="butt" stroke-opacity="0.0" clip-path="url(#id_0)" d="M313.0 351.0L298.0 351.0L298.0 219.0C298.0 217.89543 298.89542 217.0 300.0 217.0L311.0 217.0C312.10458 217.0 313.0 217.89543 313.0 219.0Z" fill-rule="nonzero"/><path fill="#fbbc04" clip-path="url(#id_0)" d="M313.0 351.0L298.0 351.0L298.0 219.0C298.0 217.89543 298.89542 217.0 300.0 217.0L311.0 217.0C312.10458 217.0 313.0 217.89543 313.0 219.0Z" fill-rule="nonzero"/><path stroke="#000000" stroke-width="2.0" stroke-linecap="butt" stroke-opacity="0.0" clip-path="url(#id_0)" d="M447.0 351.0L432.0 351.0L432.0 222.0C432.0 220.89543 432.89542 220.0 434.0 220.0L445.0 220.0C446.10458 220.0 447.0 220.89543 447.0 222.0Z" fill-rule="nonzero"/><path fill="#fbbc04" clip-path="url(#id_0)" d="M447.0 351.0L432.0 351.0L432.0 222.0C432.0 220.89543 432.89542 220.0 434.0 220.0L445.0 220.0C446.10458 220.0 447.0 220.89543 447.0 222.0Z" fill-rule="nonzero"/><path stroke="#000000" stroke-width="2.0" stroke-linecap="butt" stroke-opacity="0.0" clip-path="url(#id_0)" d="M581.0 351.0L566.0 351.0L566.0 219.0C566.0 217.89543 566.89545 217.0 568.0 217.0L579.0 217.0C580.10455 217.0 581.0 217.89543 581.0 219.0Z" fill-rule="nonzero"/><path fill="#fbbc04" clip-path="url(#id_0)" d="M581.0 351.0L566.0 351.0L566.0 219.0C566.0 217.89543 566.89545 217.0 568.0 217.0L579.0 217.0C580.10455 217.0 581.0 217.89543 581.0 219.0Z" fill-rule="nonzero"/><path stroke="#000000" stroke-width="2.0" stroke-linecap="butt" stroke-opacity="0.0" clip-path="url(#id_0)" d="M196.0 351.0L181.0 351.0L181.0 184.0C181.0 182.89543 181.89543 182.0 183.0 182.0L194.0 182.0C195.10457 182.0 196.0 182.89543 196.0 184.0Z" fill-rule="nonzero"/><path fill="#34a853" clip-path="url(#id_0)" d="M196.0 351.0L181.0 351.0L181.0 184.0C181.0 182.89543 181.89543 182.0 183.0 182.0L194.0 182.0C195.10457 182.0 196.0 182.89543 196.0 184.0Z" fill-rule="nonzero"/><path stroke="#000000" stroke-width="2.0" stroke-linecap="butt" stroke-opacity="0.0" clip-path="url(#id_0)" d="M330.0 351.0L315.0 351.0L315.0 184.0C315.0 182.89543 315.89542 182.0 317.0 182.0L328.0 182.0C329.10458 182.0 330.0 182.89543 330.0 184.0Z" fill-rule="nonzero"/><path fill="#34a853" clip-path="url(#id_0)" d="M330.0 351.0L315.0 351.0L315.0 184.0C315.0 182.89543 315.89542 182.0 317.0 182.0L328.0 182.0C329.10458 182.0 330.0 182.89543 330.0 184.0Z" fill-rule="nonzero"/><path stroke="#000000" stroke-width="2.0" stroke-linecap="butt" stroke-opacity="0.0" clip-path="url(#id_0)" d="M464.0 351.0L449.0 351.0L449.0 184.0C449.0 182.89543 449.89542 182.0 451.0 182.0L462.0 182.0C463.10458 182.0 464.0 182.89543 464.0 184.0Z" fill-rule="nonzero"/><path fill="#34a853" clip-path="url(#id_0)" d="M464.0 351.0L449.0 351.0L449.0 184.0C449.0 182.89543 449.89542 182.0 451.0 182.0L462.0 182.0C463.10458 182.0 464.0 182.89543 464.0 184.0Z" fill-rule="nonzero"/><path stroke="#000000" stroke-width="2.0" stroke-linecap="butt" stroke-opacity="0.0" clip-path="url(#id_0)" d="M598.0 351.0L583.0 351.0L583.0 181.0C583.0 179.89543 583.89545 179.0 585.0 179.0L596.0 179.0C597.10455 179.0 598.0 179.89543 598.0 181.0Z" fill-rule="nonzero"/><path fill="#34a853" clip-path="url(#id_0)" d="M598.0 351.0L583.0 351.0L583.0 181.0C583.0 179.89543 583.89545 179.0 585.0 179.0L596.0 179.0C597.10455 179.0 598.0 179.89543 598.0 181.0Z" fill-rule="nonzero"/><path stroke="#000000" stroke-width="2.0" stroke-linecap="butt" stroke-opacity="0.0" clip-path="url(#id_0)" d="M213.0 351.0L198.0 351.0L198.0 161.0C198.0 159.89543 198.89543 159.0 200.0 159.0L211.0 159.0C212.10457 159.0 213.0 159.89543 213.0 161.0Z" fill-rule="nonzero"/><path fill="#ff6d01" clip-path="url(#id_0)" d="M213.0 351.0L198.0 351.0L198.0 161.0C198.0 159.89543 198.89543 159.0 200.0 159.0L211.0 159.0C212.10457 159.0 213.0 159.89543 213.0 161.0Z" fill-rule="nonzero"/><path stroke="#000000" stroke-width="2.0" stroke-linecap="butt" stroke-opacity="0.0" clip-path="url(#id_0)" d="M347.0 351.0L332.0 351.0L332.0 158.0C332.0 156.89543 332.89542 156.0 334.0 156.0L345.0 156.0C346.10458 156.0 347.0 156.89543 347.0 158.0Z" fill-rule="nonzero"/><path fill="#ff6d01" clip-path="url(#id_0)" d="M347.0 351.0L332.0 351.0L332.0 158.0C332.0 156.89543 332.89542 156.0 334.0 156.0L345.0 156.0C346.10458 156.0 347.0 156.89543 347.0 158.0Z" fill-rule="nonzero"/><path stroke="#000000" stroke-width="2.0" stroke-linecap="butt" stroke-opacity="0.0" clip-path="url(#id_0)" d="M481.0 351.0L466.0 351.0L466.0 161.0C466.0 159.89543 466.89542 159.0 468.0 159.0L479.0 159.0C480.10458 159.0 481.0 159.89543 481.0 161.0Z" fill-rule="nonzero"/><path fill="#ff6d01" clip-path="url(#id_0)" d="M481.0 351.0L466.0 351.0L466.0 161.0C466.0 159.89543 466.89542 159.0 468.0 159.0L479.0 159.0C480.10458 159.0 481.0 159.89543 481.0 161.0Z" fill-rule="nonzero"/><path stroke="#000000" stroke-width="2.0" stroke-linecap="butt" stroke-opacity="0.0" clip-path="url(#id_0)" d="M615.0 351.0L600.0 351.0L600.0 161.0C600.0 159.89543 600.89545 159.0 602.0 159.0L613.0 159.0C614.10455 159.0 615.0 159.89543 615.0 161.0Z" fill-rule="nonzero"/><path fill="#ff6d01" clip-path="url(#id_0)" d="M615.0 351.0L600.0 351.0L600.0 161.0C600.0 159.89543 600.89545 159.0 602.0 159.0L613.0 159.0C614.10455 159.0 615.0 159.89543 615.0 161.0Z" fill-rule="nonzero"/><path fill="#000000" d="M323.92188 399.8L323.92188 391.20624L326.89062 391.20624Q327.89062 391.20624 328.42188 391.33124Q329.15625 391.5031 329.67188 391.9406Q330.35938 392.51874 330.6875 393.425Q331.03125 394.3156 331.03125 395.45624Q331.03125 396.4406 330.79688 397.1906Q330.57812 397.9406 330.21875 398.4406Q329.85938 398.9406 329.42188 399.22186Q329.0 399.5031 328.40625 399.65936Q327.8125 399.8 327.03125 399.8L323.92188 399.8ZM325.0625 398.78436L326.89062 398.78436Q327.75 398.78436 328.23438 398.6281Q328.71875 398.47186 329.0 398.175Q329.40625 397.78436 329.625 397.09686Q329.85938 396.40936 329.85938 395.4406Q329.85938 394.09686 329.40625 393.3781Q328.96875 392.64374 328.34375 392.39374Q327.875 392.22186 326.875 392.22186L325.0625 392.22186L325.0625 398.78436ZM332.875 399.8L332.875 391.20624L336.10938 391.20624Q337.09375 391.20624 337.6875 391.47186Q338.28125 391.7375 338.60938 392.28436Q338.95312 392.8156 338.95312 393.40936Q338.95312 393.95624 338.65625 394.4406Q338.35938 394.925 337.75 395.22186Q338.53125 395.45624 338.9375 396.01874Q339.35938 396.5656 339.35938 397.3156Q339.35938 397.90936 339.10938 398.4406Q338.85938 398.95624 338.48438 399.2375Q338.10938 399.51874 337.53125 399.65936Q336.96875 399.8 336.15625 399.8L332.875 399.8ZM334.01562 394.8156L335.875 394.8156Q336.625 394.8156 336.95312 394.72186Q337.39062 394.59686 337.60938 394.3Q337.82812 393.9875 337.82812 393.53436Q337.82812 393.1125 337.625 392.78436Q337.42188 392.45624 337.03125 392.34686Q336.65625 392.22186 335.73438 392.22186L334.01562 392.22186L334.01562 394.8156ZM334.01562 398.78436L336.15625 398.78436Q336.70312 398.78436 336.92188 398.7375Q337.32812 398.675 337.57812 398.51874Q337.84375 398.34686 338.01562 398.03436Q338.1875 397.72186 338.1875 397.3156Q338.1875 396.83124 337.9375 396.47186Q337.70312 396.1125 337.26562 395.97186Q336.82812 395.83124 336.0 395.83124L334.01562 395.83124L334.01562 398.78436ZM343.79688 402.1906L343.79688 393.58124L344.75 393.58124L344.75 394.3781Q345.09375 393.90936 345.51562 393.675Q345.95312 393.4406 346.5625 393.4406Q347.35938 393.4406 347.96875 393.84686Q348.57812 394.2531 348.875 395.0031Q349.1875 395.7531 349.1875 396.64374Q349.1875 397.59686 348.84375 398.3625Q348.51562 399.1281 347.85938 399.53436Q347.20312 399.9406 346.48438 399.9406Q345.95312 399.9406 345.53125 399.72186Q345.10938 399.4875 344.84375 399.15936L344.84375 402.1906L343.79688 402.1906ZM344.75 396.72186Q344.75 397.925 345.23438 398.5031Q345.71875 399.0656 346.40625 399.0656Q347.10938 399.0656 347.60938 398.47186Q348.10938 397.8781 348.10938 396.6281Q348.10938 395.4406 347.625 394.8625Q347.14062 394.26874 346.45312 394.26874Q345.78125 394.26874 345.26562 394.89374Q344.75 395.51874 344.75 396.72186ZM350.40625 396.6906Q350.40625 394.95624 351.35938 394.1281Q352.15625 393.4406 353.3125 393.4406Q354.59375 393.4406 355.40625 394.28436Q356.23438 395.1125 356.23438 396.59686Q356.23438 397.8 355.875 398.4875Q355.51562 399.175 354.8125 399.5656Q354.125 399.9406 353.3125 399.9406Q352.01562 399.9406 351.20312 399.1125Q350.40625 398.26874 350.40625 396.6906ZM351.48438 396.6906Q351.48438 397.8781 352.0 398.47186Q352.53125 399.0656 353.3125 399.0656Q354.10938 399.0656 354.625 398.47186Q355.14062 397.8781 355.14062 396.65936Q355.14062 395.5031 354.60938 394.90936Q354.09375 394.3156 353.3125 394.3156Q352.53125 394.3156 352.0 394.90936Q351.48438 395.4875 351.48438 396.6906ZM357.40625 396.6906Q357.40625 394.95624 358.35938 394.1281Q359.15625 393.4406 360.3125 393.4406Q361.59375 393.4406 362.40625 394.28436Q363.23438 395.1125 363.23438 396.59686Q363.23438 397.8 362.875 398.4875Q362.51562 399.175 361.8125 399.5656Q361.125 399.9406 360.3125 399.9406Q359.01562 399.9406 358.20312 399.1125Q357.40625 398.26874 357.40625 396.6906ZM358.48438 396.6906Q358.48438 397.8781 359.0 398.47186Q359.53125 399.0656 360.3125 399.0656Q361.10938 399.0656 361.625 398.47186Q362.14062 397.8781 362.14062 396.65936Q362.14062 395.5031 361.60938 394.90936Q361.09375 394.3156 360.3125 394.3156Q359.53125 394.3156 359.0 394.90936Q358.48438 395.4875 358.48438 396.6906ZM364.76562 399.8L364.76562 391.20624L365.82812 391.20624L365.82812 399.8L364.76562 399.8ZM370.79688 399.8L370.79688 393.58124L371.73438 393.58124L371.73438 394.45624Q372.03125 393.9875 372.51562 393.72186Q373.0 393.4406 373.625 393.4406Q374.3125 393.4406 374.75 393.72186Q375.20312 394.0031 375.375 394.51874Q376.125 393.4406 377.29688 393.4406Q378.23438 393.4406 378.71875 393.95624Q379.21875 394.45624 379.21875 395.53436L379.21875 399.8L378.17188 399.8L378.17188 395.8781Q378.17188 395.2531 378.0625 394.97186Q377.96875 394.6906 377.70312 394.51874Q377.4375 394.34686 377.0625 394.34686Q376.40625 394.34686 375.96875 394.78436Q375.54688 395.22186 375.54688 396.1906L375.54688 399.8L374.48438 399.8L374.48438 395.7531Q374.48438 395.05 374.21875 394.70624Q373.96875 394.34686 373.39062 394.34686Q372.9375 394.34686 372.5625 394.58124Q372.1875 394.8156 372.01562 395.26874Q371.84375 395.72186 371.84375 396.5656L371.84375 399.8L370.79688 399.8ZM385.875 399.8L385.875 398.8781Q385.14062 399.9406 383.89062 399.9406Q383.34375 399.9406 382.85938 399.7375Q382.39062 399.51874 382.15625 399.20624Q381.92188 398.8781 381.82812 398.40936Q381.76562 398.1125 381.76562 397.425L381.76562 393.58124L382.82812 393.58124L382.82812 397.03436Q382.82812 397.84686 382.89062 398.14374Q382.98438 398.55 383.29688 398.8Q383.625 399.03436 384.10938 399.03436Q384.57812 399.03436 384.98438 398.8Q385.40625 398.55 385.57812 398.1281Q385.76562 397.70624 385.76562 396.90936L385.76562 393.58124L386.8125 393.58124L386.8125 399.8L385.875 399.8ZM388.76562 399.8L388.76562 391.20624L389.82812 391.20624L389.82812 399.8L388.76562 399.8ZM394.09375 398.8625L394.25 399.78436Q393.79688 399.8781 393.45312 399.8781Q392.875 399.8781 392.5625 399.70624Q392.25 399.51874 392.10938 399.22186Q391.98438 398.925 391.98438 397.97186L391.98438 394.39374L391.21875 394.39374L391.21875 393.58124L391.98438 393.58124L391.98438 392.03436L393.03125 391.40936L393.03125 393.58124L394.09375 393.58124L394.09375 394.39374L393.03125 394.39374L393.03125 398.03436Q393.03125 398.4875 393.07812 398.6125Q393.14062 398.7375 393.26562 398.8156Q393.39062 398.89374 393.625 398.89374Q393.8125 398.89374 394.09375 398.8625ZM394.79688 392.425L394.79688 391.20624L395.85938 391.20624L395.85938 392.425L394.79688 392.425ZM394.79688 399.8L394.79688 393.58124L395.85938 393.58124L395.85938 399.8L394.79688 399.8ZM397.79688 402.1906L397.79688 393.58124L398.75 393.58124L398.75 394.3781Q399.09375 393.90936 399.51562 393.675Q399.95312 393.4406 400.5625 393.4406Q401.35938 393.4406 401.96875 393.84686Q402.57812 394.2531 402.875 395.0031Q403.1875 395.7531 403.1875 396.64374Q403.1875 397.59686 402.84375 398.3625Q402.51562 399.1281 401.85938 399.53436Q401.20312 399.9406 400.48438 399.9406Q399.95312 399.9406 399.53125 399.72186Q399.10938 399.4875 398.84375 399.15936L398.84375 402.1906L397.79688 402.1906ZM398.75 396.72186Q398.75 397.925 399.23438 398.5031Q399.71875 399.0656 400.40625 399.0656Q401.10938 399.0656 401.60938 398.47186Q402.10938 397.8781 402.10938 396.6281Q402.10938 395.4406 401.625 394.8625Q401.14062 394.26874 400.45312 394.26874Q399.78125 394.26874 399.26562 394.89374Q398.75 395.51874 398.75 396.72186ZM404.76562 399.8L404.76562 391.20624L405.82812 391.20624L405.82812 399.8L404.76562 399.8ZM407.79688 392.425L407.79688 391.20624L408.85938 391.20624L408.85938 392.425L407.79688 392.425ZM407.79688 399.8L407.79688 393.58124L408.85938 393.58124L408.85938 399.8L407.79688 399.8ZM415.04688 397.8L416.14062 397.925Q415.89062 398.8781 415.1875 399.40936Q414.48438 399.9406 413.40625 399.9406Q412.04688 399.9406 411.23438 399.09686Q410.4375 398.2531 410.4375 396.7375Q410.4375 395.175 411.25 394.3156Q412.0625 393.4406 413.34375 393.4406Q414.59375 393.4406 415.375 394.28436Q416.17188 395.1281 416.17188 396.675Q416.17188 396.76874 416.17188 396.95624L411.53125 396.95624Q411.59375 397.9875 412.10938 398.53436Q412.625 399.0656 413.40625 399.0656Q413.98438 399.0656 414.39062 398.76874Q414.8125 398.45624 415.04688 397.8ZM411.59375 396.09686L415.0625 396.09686Q415.0 395.3 414.67188 394.90936Q414.15625 394.3 413.35938 394.3Q412.625 394.3 412.125 394.78436Q411.64062 395.26874 411.59375 396.09686ZM417.78125 399.8L417.78125 393.58124L418.73438 393.58124L418.73438 394.51874Q419.09375 393.8625 419.39062 393.65936Q419.70312 393.4406 420.07812 393.4406Q420.60938 393.4406 421.15625 393.76874L420.79688 394.7531Q420.40625 394.51874 420.03125 394.51874Q419.67188 394.51874 419.39062 394.7375Q419.125 394.9406 419.01562 395.3156Q418.82812 395.8781 418.82812 396.53436L418.82812 399.8L417.78125 399.8Z" fill-rule="nonzero"/><path fill="#000000" d="M32.19999 271.50833L23.606237 271.50833L23.606237 270.3677L31.184362 270.3677L31.184362 266.13333L32.19999 266.13333L32.19999 271.50833ZM31.434362 260.52396Q31.934362 261.1177 32.13749 261.66458Q32.340614 262.19583 32.340614 262.82083Q32.340614 263.85208 31.840612 264.39896Q31.340612 264.94583 30.559362 264.94583Q30.106237 264.94583 29.731237 264.7427Q29.340612 264.53958 29.121862 264.19583Q28.887487 263.85208 28.778112 263.4302Q28.684362 263.13333 28.606237 262.4927Q28.465612 261.22708 28.246862 260.6177Q28.028112 260.6177 27.981237 260.6177Q27.324987 260.6177 27.059362 260.91458Q26.715612 261.32083 26.715612 262.1177Q26.715612 262.85208 26.981237 263.21146Q27.231237 263.57083 27.887487 263.7427L27.746862 264.77396Q27.090612 264.63333 26.684362 264.3052Q26.278112 263.97708 26.059362 263.3677Q25.840612 262.75833 25.840612 261.96146Q25.840612 261.16458 26.028112 260.66458Q26.215612 260.16458 26.496862 259.9302Q26.778112 259.69583 27.215612 259.60208Q27.481237 259.5552 28.184362 259.5552L29.590612 259.5552Q31.059362 259.5552 31.449987 259.4927Q31.840612 259.41458 32.19999 259.21146L32.19999 260.32083Q31.871862 260.47708 31.434362 260.52396ZM29.074987 260.6177Q29.309362 261.19583 29.481237 262.33646Q29.574987 262.9927 29.699987 263.25833Q29.809362 263.52396 30.028112 263.6802Q30.246862 263.82083 30.528112 263.82083Q30.949987 263.82083 31.231237 263.50833Q31.512487 263.1802 31.512487 262.57083Q31.512487 261.96146 31.246862 261.4927Q30.981237 261.00833 30.512487 260.78958Q30.153112 260.6177 29.465612 260.6177L29.074987 260.6177ZM31.262487 255.28958L32.184364 255.13333Q32.278114 255.58646 32.278114 255.9302Q32.278114 256.50833 32.10624 256.82083Q31.918737 257.13333 31.621862 257.27396Q31.324987 257.39896 30.371862 257.39896L26.793737 257.39896L26.793737 258.16458L25.981237 258.16458L25.981237 257.39896L24.434362 257.39896L23.809362 256.35208L25.981237 256.35208L25.981237 255.28958L26.793737 255.28958L26.793737 256.35208L30.434362 256.35208Q30.887487 256.35208 31.012487 256.3052Q31.137487 256.2427 31.215612 256.1177Q31.293737 255.9927 31.293737 255.75833Q31.293737 255.57083 31.262487 255.28958ZM30.199987 250.33646L30.324987 249.2427Q31.278112 249.4927 31.809362 250.19583Q32.340614 250.89896 32.340614 251.97708Q32.340614 253.33646 31.496862 254.14896Q30.653112 254.94583 29.137487 254.94583Q27.574987 254.94583 26.715612 254.13333Q25.840612 253.32083 25.840612 252.03958Q25.840612 250.78958 26.684362 250.00833Q27.528112 249.21146 29.074987 249.21146Q29.168737 249.21146 29.356237 249.21146L29.356237 253.85208Q30.387487 253.78958 30.934362 253.27396Q31.465612 252.75833 31.465612 251.97708Q31.465612 251.39896 31.168737 250.9927Q30.856237 250.57083 30.199987 250.33646ZM28.496862 253.78958L28.496862 250.32083Q27.699987 250.38333 27.309362 250.71146Q26.699987 251.22708 26.699987 252.02396Q26.699987 252.75833 27.184362 253.25833Q27.668737 253.7427 28.496862 253.78958ZM32.19999 247.58646L25.981237 247.58646L25.981237 246.64896L26.856237 246.64896Q25.840612 245.96146 25.840612 244.66458Q25.840612 244.10208 26.043737 243.63333Q26.246862 243.14896 26.574987 242.91458Q26.903112 242.6802 27.340612 242.58646Q27.637487 242.53958 28.371862 242.53958L32.19999 242.53958L32.19999 243.58646L28.418737 243.58646Q27.762487 243.58646 27.449987 243.71146Q27.137487 243.83646 26.949987 244.14896Q26.746862 244.46146 26.746862 244.88333Q26.746862 245.5552 27.184362 246.0552Q27.606237 246.53958 28.793737 246.53958L32.19999 246.53958L32.19999 247.58646ZM29.918737 236.52396L30.059362 235.4927Q31.121862 235.66458 31.731237 236.3677Q32.340614 237.07083 32.340614 238.08646Q32.340614 239.3677 31.512487 240.14896Q30.668737 240.91458 29.106237 240.91458Q28.106237 240.91458 27.356237 240.58646Q26.590612 240.2427 26.215612 239.57083Q25.840612 238.88333 25.840612 238.07083Q25.840612 237.07083 26.356237 236.4302Q26.856237 235.77396 27.809362 235.58646L27.965612 236.6177Q27.340612 236.75833 27.028112 237.13333Q26.699987 237.50833 26.699987 238.03958Q26.699987 238.83646 27.278112 239.33646Q27.840612 239.83646 29.074987 239.83646Q30.340612 239.83646 30.903112 239.35208Q31.465612 238.8677 31.465612 238.10208Q31.465612 237.47708 31.090612 237.07083Q30.715612 236.64896 29.918737 236.52396ZM34.590614 234.63333L33.60624 234.75833Q33.69999 234.41458 33.69999 234.14896Q33.69999 233.8052 33.57499 233.60208Q33.465614 233.38333 33.26249 233.2427Q33.090614 233.14896 32.465614 232.91458Q32.38749 232.89896 32.215614 232.82083L25.981237 235.19583L25.981237 234.0552L29.574987 232.75833Q30.262487 232.50833 31.028112 232.3052Q30.293737 232.1177 29.606237 231.8677L25.981237 230.53958L25.981237 229.4927L32.309364 231.85208Q33.32499 232.2427 33.715614 232.44583Q34.246864 232.72708 34.48124 233.10208Q34.73124 233.46146 34.73124 233.96146Q34.73124 234.25833 34.590614 234.63333ZM32.19999 226.58646L25.981237 226.58646L25.981237 225.64896L26.856237 225.64896Q26.387487 225.35208 26.121862 224.8677Q25.840612 224.38333 25.840612 223.75833Q25.840612 223.07083 26.121862 222.63333Q26.403112 222.1802 26.918737 222.00833Q25.840612 221.25833 25.840612 220.08646Q25.840612 219.14896 26.356237 218.66458Q26.856237 218.16458 27.934362 218.16458L32.19999 218.16458L32.19999 219.21146L28.278112 219.21146Q27.653112 219.21146 27.371862 219.32083Q27.090612 219.41458 26.918737 219.6802Q26.746862 219.94583 26.746862 220.32083Q26.746862 220.97708 27.184362 221.41458Q27.621862 221.83646 28.590612 221.83646L32.19999 221.83646L32.19999 222.89896L28.153112 222.89896Q27.449987 222.89896 27.106237 223.16458Q26.746862 223.41458 26.746862 223.9927Q26.746862 224.44583 26.981237 224.82083Q27.215612 225.19583 27.668737 225.3677Q28.121862 225.53958 28.965612 225.53958L32.19999 225.53958L32.19999 226.58646ZM30.340612 216.00833L30.184362 214.97708Q30.809362 214.88333 31.137487 214.4927Q31.465612 214.08646 31.465612 213.35208Q31.465612 212.63333 31.184362 212.28958Q30.887487 211.9302 30.481237 211.9302Q30.121862 211.9302 29.918737 212.2427Q29.778112 212.46146 29.559362 213.32083Q29.262487 214.47708 29.059362 214.9302Q28.840612 215.3677 28.465612 215.60208Q28.090612 215.83646 27.621862 215.83646Q27.215612 215.83646 26.856237 215.64896Q26.496862 215.46146 26.262487 215.13333Q26.090612 214.88333 25.965612 214.46146Q25.840612 214.03958 25.840612 213.53958Q25.840612 212.82083 26.059362 212.27396Q26.262487 211.71146 26.621862 211.44583Q26.981237 211.1802 27.574987 211.08646L27.715612 212.1177Q27.246862 212.1802 26.981237 212.52396Q26.699987 212.85208 26.699987 213.47708Q26.699987 214.19583 26.949987 214.50833Q27.184362 214.82083 27.512487 214.82083Q27.715612 214.82083 27.871862 214.69583Q28.043737 214.5552 28.153112 214.28958Q28.215612 214.13333 28.418737 213.35208Q28.731237 212.22708 28.918737 211.78958Q29.106237 211.35208 29.465612 211.10208Q29.824987 210.85208 30.371862 210.85208Q30.903112 210.85208 31.371862 211.16458Q31.824987 211.46146 32.090614 212.03958Q32.340614 212.6177 32.340614 213.35208Q32.340614 214.57083 31.840612 215.21146Q31.324987 215.83646 30.340612 216.00833Z" fill-rule="nonzero"/><path fill="#000000" d="M67.7 350.5656Q67.7 349.03436 68.0125 348.1125Q68.325 347.175 68.93437 346.675Q69.55937 346.175 70.49687 346.175Q71.18437 346.175 71.7 346.45624Q72.23125 346.7375 72.575 347.26874Q72.91875 347.78436 73.10625 348.53436Q73.29375 349.28436 73.29375 350.5656Q73.29375 352.08124 72.98125 353.0031Q72.68437 353.925 72.05937 354.4406Q71.45 354.9406 70.49687 354.9406Q69.2625 354.9406 68.54375 354.05Q67.7 352.9875 67.7 350.5656ZM68.77812 350.5656Q68.77812 352.675 69.27812 353.3781Q69.77812 354.08124 70.49687 354.08124Q71.23125 354.08124 71.71562 353.3781Q72.21562 352.675 72.21562 350.5656Q72.21562 348.4406 71.71562 347.7531Q71.23125 347.05 70.48125 347.05Q69.7625 347.05 69.325 347.65936Q68.77812 348.4406 68.77812 350.5656Z" fill-rule="nonzero"/><path fill="#000000" d="M66.24687 295.57605L66.24687 296.59167L60.559376 296.59167Q60.559376 296.21667 60.684376 295.8573Q60.903126 295.27917 61.371876 294.71667Q61.85625 294.15417 62.7625 293.4198Q64.16875 292.26355 64.65312 291.59167Q65.15312 290.9198 65.15312 290.32605Q65.15312 289.70105 64.7 289.27917Q64.24687 288.84167 63.528126 288.84167Q62.7625 288.84167 62.309376 289.2948Q61.85625 289.74792 61.840626 290.56042L60.7625 290.45105Q60.871876 289.2323 61.590626 288.6073Q62.325 287.96667 63.559376 287.96667Q64.79375 287.96667 65.5125 288.65417Q66.23125 289.34167 66.23125 290.3573Q66.23125 290.87292 66.0125 291.37292Q65.80937 291.8573 65.30937 292.4198Q64.825 292.96667 63.7 293.9198Q62.746876 294.71667 62.465626 295.01355Q62.2 295.2948 62.028126 295.57605L66.24687 295.57605ZM67.7 292.3573Q67.7 290.82605 68.0125 289.90417Q68.325 288.96667 68.93437 288.46667Q69.55937 287.96667 70.49687 287.96667Q71.18437 287.96667 71.7 288.24792Q72.23125 288.52917 72.575 289.06042Q72.91875 289.57605 73.10625 290.32605Q73.29375 291.07605 73.29375 292.3573Q73.29375 293.87292 72.98125 294.7948Q72.68437 295.71667 72.05937 296.2323Q71.45 296.7323 70.49687 296.7323Q69.2625 296.7323 68.54375 295.84167Q67.7 294.77917 67.7 292.3573ZM68.77812 292.3573Q68.77812 294.46667 69.27812 295.1698Q69.77812 295.87292 70.49687 295.87292Q71.23125 295.87292 71.71562 295.1698Q72.21562 294.46667 72.21562 292.3573Q72.21562 290.2323 71.71562 289.5448Q71.23125 288.84167 70.48125 288.84167Q69.7625 288.84167 69.325 289.45105Q68.77812 290.2323 68.77812 292.3573Z" fill-rule="nonzero"/><path fill="#000000" d="M64.075 238.38333L64.075 236.32083L60.35625 236.32083L60.35625 235.35208L64.27812 229.78958L65.1375 229.78958L65.1375 235.35208L66.29375 235.35208L66.29375 236.32083L65.1375 236.32083L65.1375 238.38333L64.075 238.38333ZM64.075 235.35208L64.075 231.4927L61.3875 235.35208L64.075 235.35208ZM67.7 234.14896Q67.7 232.6177 68.0125 231.69583Q68.325 230.75833 68.93437 230.25833Q69.55937 229.75833 70.49687 229.75833Q71.18437 229.75833 71.7 230.03958Q72.23125 230.32083 72.575 230.85208Q72.91875 231.3677 73.10625 232.1177Q73.29375 232.8677 73.29375 234.14896Q73.29375 235.66458 72.98125 236.58646Q72.68437 237.50833 72.05937 238.02396Q71.45 238.52396 70.49687 238.52396Q69.2625 238.52396 68.54375 237.63333Q67.7 236.57083 67.7 234.14896ZM68.77812 234.14896Q68.77812 236.25833 69.27812 236.96146Q69.77812 237.66458 70.49687 237.66458Q71.23125 237.66458 71.71562 236.96146Q72.21562 236.25833 72.21562 234.14896Q72.21562 232.02396 71.71562 231.33646Q71.23125 230.63333 70.48125 230.63333Q69.7625 230.63333 69.325 231.2427Q68.77812 232.02396 68.77812 234.14896Z" fill-rule="nonzero"/><path fill="#000000" d="M66.16875 173.69063L65.12187 173.76875Q64.98125 173.14375 64.73125 172.8625Q64.29375 172.40938 63.66875 172.40938Q63.16875 172.40938 62.778126 172.69063Q62.29375 173.06563 61.996876 173.76875Q61.715626 174.45625 61.7 175.7375Q62.075 175.15938 62.621876 174.87813Q63.184376 174.59688 63.79375 174.59688Q64.84062 174.59688 65.575 175.37813Q66.325 176.15938 66.325 177.37813Q66.325 178.19063 65.96562 178.89375Q65.62187 179.58125 65.0125 179.95625Q64.40312 180.31563 63.6375 180.31563Q62.309376 180.31563 61.48125 179.34688Q60.653126 178.37813 60.653126 176.15938Q60.653126 173.65938 61.575 172.53438Q62.371876 171.55 63.73125 171.55Q64.74687 171.55 65.3875 172.12813Q66.04375 172.69063 66.16875 173.69063ZM61.871876 177.39375Q61.871876 177.94063 62.090626 178.44063Q62.325 178.925 62.73125 179.19063Q63.153126 179.45625 63.621876 179.45625Q64.27812 179.45625 64.7625 178.925Q65.24687 178.37813 65.24687 177.45625Q65.24687 176.56563 64.7625 176.05Q64.29375 175.53438 63.575 175.53438Q62.85625 175.53438 62.35625 176.05Q61.871876 176.56563 61.871876 177.39375ZM67.7 175.94063Q67.7 174.40938 68.0125 173.4875Q68.325 172.55 68.93437 172.05Q69.55937 171.55 70.49687 171.55Q71.18437 171.55 71.7 171.83125Q72.23125 172.1125 72.575 172.64375Q72.91875 173.15938 73.10625 173.90938Q73.29375 174.65938 73.29375 175.94063Q73.29375 177.45625 72.98125 178.37813Q72.68437 179.3 72.05937 179.81563Q71.45 180.31563 70.49687 180.31563Q69.2625 180.31563 68.54375 179.425Q67.7 178.3625 67.7 175.94063ZM68.77812 175.94063Q68.77812 178.05 69.27812 178.75313Q69.77812 179.45625 70.49687 179.45625Q71.23125 179.45625 71.71562 178.75313Q72.21562 178.05 72.21562 175.94063Q72.21562 173.81563 71.71562 173.12813Q71.23125 172.425 70.48125 172.425Q69.7625 172.425 69.325 173.03438Q68.77812 173.81563 68.77812 175.94063Z" fill-rule="nonzero"/><path fill="#000000" d="M62.325 117.31042Q61.66875 117.06042 61.340626 116.62292Q61.028126 116.16979 61.028126 115.56042Q61.028126 114.62292 61.7 113.98229Q62.3875 113.34167 63.496876 113.34167Q64.62187 113.34167 65.30937 113.99792Q65.99687 114.65417 65.99687 115.59167Q65.99687 116.18542 65.68437 116.62292Q65.37187 117.06042 64.73125 117.31042Q65.52812 117.56042 65.93437 118.13854Q66.34062 118.71667 66.34062 119.51354Q66.34062 120.60729 65.55937 121.35729Q64.79375 122.10729 63.5125 122.10729Q62.246876 122.10729 61.465626 121.35729Q60.684376 120.60729 60.684376 119.48229Q60.684376 118.63854 61.10625 118.07604Q61.54375 117.51354 62.325 117.31042ZM62.10625 115.51354Q62.10625 116.12292 62.496876 116.51354Q62.903126 116.90417 63.528126 116.90417Q64.1375 116.90417 64.52812 116.52917Q64.91875 116.13854 64.91875 115.57604Q64.91875 114.99792 64.5125 114.60729Q64.10625 114.20104 63.5125 114.20104Q62.903126 114.20104 62.496876 114.59167Q62.10625 114.98229 62.10625 115.51354ZM61.778126 119.48229Q61.778126 119.93542 61.98125 120.35729Q62.2 120.77917 62.621876 121.01354Q63.04375 121.24792 63.528126 121.24792Q64.27812 121.24792 64.7625 120.76354Q65.2625 120.27917 65.2625 119.52917Q65.2625 118.76354 64.7625 118.26354Q64.2625 117.76354 63.496876 117.76354Q62.746876 117.76354 62.2625 118.26354Q61.778126 118.74792 61.778126 119.48229ZM67.7 117.73229Q67.7 116.20104 68.0125 115.27917Q68.325 114.34167 68.93437 113.84167Q69.55937 113.34167 70.49687 113.34167Q71.18437 113.34167 71.7 113.62292Q72.23125 113.90417 72.575 114.43542Q72.91875 114.95104 73.10625 115.70104Q73.29375 116.45104 73.29375 117.73229Q73.29375 119.24792 72.98125 120.16979Q72.68437 121.09167 72.05937 121.60729Q71.45 122.10729 70.49687 122.10729Q69.2625 122.10729 68.54375 121.21667Q67.7 120.15417 67.7 117.73229ZM68.77812 117.73229Q68.77812 119.84167 69.27812 120.54479Q69.77812 121.24792 70.49687 121.24792Q71.23125 121.24792 71.71562 120.54479Q72.21562 119.84167 72.21562 117.73229Q72.21562 115.60729 71.71562 114.91979Q71.23125 114.21667 70.48125 114.21667Q69.7625 114.21667 69.325 114.82604Q68.77812 115.60729 68.77812 117.73229Z" fill-rule="nonzero"/><path fill="#000000" d="M166.72737 367.8L165.6805 367.8L165.6805 361.08124Q165.28987 361.4406 164.66487 361.8156Q164.0555 362.175 163.57112 362.34686L163.57112 361.33124Q164.44612 360.90936 165.10237 360.33124Q165.77425 359.7375 166.0555 359.175L166.72737 359.175L166.72737 367.8ZM170.35237 367.8L170.35237 366.59686L171.5555 366.59686L171.5555 367.8L170.35237 367.8ZM172.75862 365.55L173.868 365.45624Q173.993 366.26874 174.4305 366.675Q174.88362 367.08124 175.52425 367.08124Q176.27425 367.08124 176.8055 366.5031Q177.33675 365.925 177.33675 364.9875Q177.33675 364.08124 176.82112 363.5656Q176.32112 363.03436 175.493 363.03436Q174.993 363.03436 174.57112 363.26874Q174.16487 363.5031 173.9305 363.8625L172.94612 363.7375L173.77425 359.33124L178.0555 359.33124L178.0555 360.33124L174.618 360.33124L174.16487 362.64374Q174.9305 362.09686 175.77425 362.09686Q176.89925 362.09686 177.66487 362.8781Q178.44612 363.65936 178.44612 364.89374Q178.44612 366.05 177.77425 366.90936Q176.94612 367.9406 175.52425 367.9406Q174.35237 367.9406 173.60237 367.28436Q172.868 366.6281 172.75862 365.55Z" fill-rule="nonzero"/><path fill="#000000" d="M307.4664 366.78436L307.4664 367.8L301.7789 367.8Q301.7789 367.425 301.9039 367.0656Q302.12265 366.4875 302.5914 365.925Q303.07578 365.3625 303.98203 364.6281Q305.38828 363.47186 305.87265 362.8Q306.37265 362.1281 306.37265 361.53436Q306.37265 360.90936 305.91953 360.4875Q305.4664 360.05 304.74765 360.05Q303.98203 360.05 303.5289 360.5031Q303.07578 360.95624 303.06015 361.76874L301.98203 361.65936Q302.0914 360.4406 302.81015 359.8156Q303.54453 359.175 304.7789 359.175Q306.01328 359.175 306.73203 359.8625Q307.45078 360.55 307.45078 361.5656Q307.45078 362.08124 307.23203 362.58124Q307.0289 363.0656 306.5289 363.6281Q306.04453 364.175 304.91953 365.1281Q303.9664 365.925 303.68515 366.22186Q303.41953 366.5031 303.24765 366.78436L307.4664 366.78436Z" fill-rule="nonzero"/><path fill="#000000" d="M436.62735 366.78436L436.62735 367.8L430.93985 367.8Q430.93985 367.425 431.06485 367.0656Q431.2836 366.4875 431.75235 365.925Q432.23672 365.3625 433.14297 364.6281Q434.54922 363.47186 435.0336 362.8Q435.5336 362.1281 435.5336 361.53436Q435.5336 360.90936 435.08047 360.4875Q434.62735 360.05 433.9086 360.05Q433.14297 360.05 432.68985 360.5031Q432.23672 360.95624 432.2211 361.76874L431.14297 361.65936Q431.25235 360.4406 431.9711 359.8156Q432.70547 359.175 433.93985 359.175Q435.17422 359.175 435.89297 359.8625Q436.61172 360.55 436.61172 361.5656Q436.61172 362.08124 436.39297 362.58124Q436.18985 363.0656 435.68985 363.6281Q435.20547 364.175 434.08047 365.1281Q433.12735 365.925 432.8461 366.22186Q432.58047 366.5031 432.4086 366.78436L436.62735 366.78436ZM438.67422 367.8L438.67422 366.59686L439.87735 366.59686L439.87735 367.8L438.67422 367.8ZM441.08047 365.55L442.18985 365.45624Q442.31485 366.26874 442.75235 366.675Q443.20547 367.08124 443.8461 367.08124Q444.5961 367.08124 445.12735 366.5031Q445.6586 365.925 445.6586 364.9875Q445.6586 364.08124 445.14297 363.5656Q444.64297 363.03436 443.81485 363.03436Q443.31485 363.03436 442.89297 363.26874Q442.48672 363.5031 442.25235 363.8625L441.26797 363.7375L442.0961 359.33124L446.37735 359.33124L446.37735 360.33124L442.93985 360.33124L442.48672 362.64374Q443.25235 362.09686 444.0961 362.09686Q445.2211 362.09686 445.98672 362.8781Q446.76797 363.65936 446.76797 364.89374Q446.76797 366.05 446.0961 366.90936Q445.26797 367.9406 443.8461 367.9406Q442.67422 367.9406 441.92422 367.28436Q441.18985 366.6281 441.08047 365.55Z" fill-rule="nonzero"/><path fill="#000000" d="M570.2414 365.53436L571.3039 365.39374Q571.47577 366.28436 571.91327 366.6906Q572.35077 367.08124 572.97577 367.08124Q573.72577 367.08124 574.2414 366.5656Q574.757 366.05 574.757 365.28436Q574.757 364.5656 574.27264 364.09686Q573.8039 363.6125 573.0695 363.6125Q572.77264 363.6125 572.3195 363.7375L572.4445 362.8Q572.5539 362.8156 572.6164 362.8156Q573.28827 362.8156 573.8195 362.47186Q574.3664 362.1125 574.3664 361.3781Q574.3664 360.8 573.97577 360.425Q573.58514 360.03436 572.96014 360.03436Q572.35077 360.03436 571.9289 360.425Q571.52264 360.8156 571.41327 361.58124L570.35077 361.39374Q570.53827 360.34686 571.22577 359.76874Q571.91327 359.175 572.9289 359.175Q573.632 359.175 574.22577 359.4875Q574.8195 359.78436 575.132 360.3Q575.4445 360.8156 575.4445 361.40936Q575.4445 361.95624 575.14764 362.425Q574.85077 362.8781 574.27264 363.14374Q575.02264 363.3156 575.4445 363.8781Q575.8664 364.425 575.8664 365.26874Q575.8664 366.39374 575.03827 367.175Q574.22577 367.95624 572.97577 367.95624Q571.85077 367.95624 571.10077 367.28436Q570.35077 366.59686 570.2414 365.53436Z" fill-rule="nonzero"/><path fill="#4285f4" d="M60.5 84.833336C60.5 84.28105 60.947716 83.833336 61.5 83.833336L71.5 83.833336C72.052284 83.833336 72.5 84.28105 72.5 84.833336L72.5 94.833336C72.5 95.38562 72.052284 95.833336 71.5 95.833336L61.5 95.833336C60.947716 95.833336 60.5 95.38562 60.5 94.833336Z" fill-rule="nonzero"/><path fill="#1a1a1a" d="M82.921875 93.833336L80.640625 85.239586L81.8125 85.239586L83.125 90.88021Q83.328125 91.75521 83.484375 92.63021Q83.8125 91.25521 83.875 91.03646L85.5 85.239586L86.875 85.239586L88.109375 89.583336Q88.5625 91.208336 88.78125 92.63021Q88.9375 91.81771 89.203125 90.75521L90.546875 85.239586L91.6875 85.239586L89.34375 93.833336L88.234375 93.833336L86.4375 87.28646Q86.203125 86.47396 86.15625 86.28646Q86.03125 86.864586 85.90625 87.28646L84.09375 93.833336L82.921875 93.833336ZM92.453125 93.833336L92.453125 85.239586L98.65625 85.239586L98.65625 86.25521L93.59375 86.25521L93.59375 88.88021L98.34375 88.88021L98.34375 89.895836L93.59375 89.895836L93.59375 92.81771L98.859375 92.81771L98.859375 93.833336L92.453125 93.833336ZM100.375 93.833336L100.375 85.239586L103.609375 85.239586Q104.59375 85.239586 105.1875 85.50521Q105.78125 85.770836 106.109375 86.31771Q106.453125 86.84896 106.453125 87.44271Q106.453125 87.989586 106.15625 88.47396Q105.859375 88.958336 105.25 89.25521Q106.03125 89.489586 106.4375 90.052086Q106.859375 90.59896 106.859375 91.34896Q106.859375 91.94271 106.609375 92.47396Q106.359375 92.989586 105.984375 93.270836Q105.609375 93.552086 105.03125 93.69271Q104.46875 93.833336 103.65625 93.833336L100.375 93.833336ZM101.515625 88.84896L103.375 88.84896Q104.125 88.84896 104.453125 88.75521Q104.890625 88.63021 105.109375 88.333336Q105.328125 88.020836 105.328125 87.56771Q105.328125 87.145836 105.125 86.81771Q104.921875 86.489586 104.53125 86.38021Q104.15625 86.25521 103.234375 86.25521L101.515625 86.25521L101.515625 88.84896ZM101.515625 92.81771L103.65625 92.81771Q104.203125 92.81771 104.421875 92.770836Q104.828125 92.708336 105.078125 92.552086Q105.34375 92.38021 105.515625 92.06771Q105.6875 91.75521 105.6875 91.34896Q105.6875 90.864586 105.4375 90.50521Q105.203125 90.145836 104.765625 90.00521Q104.328125 89.864586 103.5 89.864586L101.515625 89.864586L101.515625 92.81771ZM114.96875 93.833336L113.921875 93.833336L113.921875 87.114586Q113.53125 87.47396 112.90625 87.84896Q112.296875 88.208336 111.8125 88.38021L111.8125 87.364586Q112.6875 86.94271 113.34375 86.364586Q114.015625 85.770836 114.296875 85.208336L114.96875 85.208336L114.96875 93.833336ZM120.546875 93.833336L123.875 89.34896L120.953125 85.239586L122.296875 85.239586L123.859375 87.44271Q124.34375 88.13021 124.546875 88.50521Q124.84375 88.03646 125.234375 87.520836L126.953125 85.239586L128.1875 85.239586L125.171875 89.28646L128.42188 93.833336L127.015625 93.833336L124.859375 90.770836Q124.671875 90.50521 124.484375 90.19271Q124.203125 90.66146 124.078125 90.833336L121.921875 93.833336L120.546875 93.833336ZM137.5625 90.81771L138.6875 91.114586Q138.32812 92.50521 137.40625 93.239586Q136.48438 93.97396 135.14062 93.97396Q133.75 93.97396 132.875 93.41146Q132.0 92.84896 131.54688 91.78646Q131.09375 90.708336 131.09375 89.47396Q131.09375 88.13021 131.60938 87.13021Q132.125 86.13021 133.0625 85.614586Q134.01562 85.09896 135.15625 85.09896Q136.4375 85.09896 137.3125 85.75521Q138.20312 86.41146 138.54688 87.59896L137.42188 87.864586Q137.125 86.927086 136.54688 86.50521Q135.98438 86.06771 135.125 86.06771Q134.14062 86.06771 133.46875 86.552086Q132.8125 87.020836 132.53125 87.81771Q132.26562 88.614586 132.26562 89.47396Q132.26562 90.56771 132.57812 91.38021Q132.90625 92.19271 133.57812 92.59896Q134.25 93.00521 135.04688 93.00521Q136.0 93.00521 136.65625 92.458336Q137.32812 91.91146 137.5625 90.81771ZM140.42188 93.833336L140.42188 85.239586L143.67188 85.239586Q144.51562 85.239586 144.96875 85.31771Q145.60938 85.427086 146.03125 85.72396Q146.46875 86.020836 146.71875 86.552086Q146.98438 87.083336 146.98438 87.72396Q146.98438 88.81771 146.28125 89.583336Q145.59375 90.333336 143.76562 90.333336L141.5625 90.333336L141.5625 93.833336L140.42188 93.833336ZM141.5625 89.333336L143.78125 89.333336Q144.89062 89.333336 145.34375 88.927086Q145.8125 88.50521 145.8125 87.75521Q145.8125 87.22396 145.53125 86.84896Q145.26562 86.458336 144.82812 86.333336Q144.53125 86.25521 143.76562 86.25521L141.5625 86.25521L141.5625 89.333336ZM154.0625 85.239586L155.20312 85.239586L155.20312 90.208336Q155.20312 91.50521 154.90625 92.270836Q154.60938 93.020836 153.84375 93.50521Q153.07812 93.97396 151.84375 93.97396Q150.64062 93.97396 149.85938 93.56771Q149.09375 93.145836 148.76562 92.364586Q148.4375 91.56771 148.4375 90.208336L148.4375 85.239586L149.57812 85.239586L149.57812 90.19271Q149.57812 91.31771 149.78125 91.84896Q150.0 92.38021 150.5 92.677086Q151.01562 92.958336 151.75 92.958336Q153.0 92.958336 153.53125 92.395836Q154.0625 91.81771 154.0625 90.19271L154.0625 85.239586Z" fill-rule="nonzero"/><path fill="#ea4335" d="M172.5 84.833336C172.5 84.28105 172.94771 83.833336 173.5 83.833336L183.5 83.833336C184.05229 83.833336 184.5 84.28105 184.5 84.833336L184.5 94.833336C184.5 95.38562 184.05229 95.833336 183.5 95.833336L173.5 95.833336C172.94771 95.833336 172.5 95.38562 172.5 94.833336Z" fill-rule="nonzero"/><path fill="#1a1a1a" d="M194.92188 93.833336L192.64062 85.239586L193.8125 85.239586L195.125 90.88021Q195.32812 91.75521 195.48438 92.63021Q195.8125 91.25521 195.875 91.03646L197.5 85.239586L198.875 85.239586L200.10938 89.583336Q200.5625 91.208336 200.78125 92.63021Q200.9375 91.81771 201.20312 90.75521L202.54688 85.239586L203.6875 85.239586L201.34375 93.833336L200.23438 93.833336L198.4375 87.28646Q198.20312 86.47396 198.15625 86.28646Q198.03125 86.864586 197.90625 87.28646L196.09375 93.833336L194.92188 93.833336ZM204.45312 93.833336L204.45312 85.239586L210.65625 85.239586L210.65625 86.25521L205.59375 86.25521L205.59375 88.88021L210.34375 88.88021L210.34375 89.895836L205.59375 89.895836L205.59375 92.81771L210.85938 92.81771L210.85938 93.833336L204.45312 93.833336ZM212.375 93.833336L212.375 85.239586L215.60938 85.239586Q216.59375 85.239586 217.1875 85.50521Q217.78125 85.770836 218.10938 86.31771Q218.45312 86.84896 218.45312 87.44271Q218.45312 87.989586 218.15625 88.47396Q217.85938 88.958336 217.25 89.25521Q218.03125 89.489586 218.4375 90.052086Q218.85938 90.59896 218.85938 91.34896Q218.85938 91.94271 218.60938 92.47396Q218.35938 92.989586 217.98438 93.270836Q217.60938 93.552086 217.03125 93.69271Q216.46875 93.833336 215.65625 93.833336L212.375 93.833336ZM213.51562 88.84896L215.375 88.84896Q216.125 88.84896 216.45312 88.75521Q216.89062 88.63021 217.10938 88.333336Q217.32812 88.020836 217.32812 87.56771Q217.32812 87.145836 217.125 86.81771Q216.92188 86.489586 216.53125 86.38021Q216.15625 86.25521 215.23438 86.25521L213.51562 86.25521L213.51562 88.84896ZM213.51562 92.81771L215.65625 92.81771Q216.20312 92.81771 216.42188 92.770836Q216.82812 92.708336 217.07812 92.552086Q217.34375 92.38021 217.51562 92.06771Q217.6875 91.75521 217.6875 91.34896Q217.6875 90.864586 217.4375 90.50521Q217.20312 90.145836 216.76562 90.00521Q216.32812 89.864586 215.5 89.864586L213.51562 89.864586L213.51562 92.81771ZM226.96875 93.833336L225.92188 93.833336L225.92188 87.114586Q225.53125 87.47396 224.90625 87.84896Q224.29688 88.208336 223.8125 88.38021L223.8125 87.364586Q224.6875 86.94271 225.34375 86.364586Q226.01562 85.770836 226.29688 85.208336L226.96875 85.208336L226.96875 93.833336ZM230.59375 93.833336L230.59375 92.63021L231.79688 92.63021L231.79688 93.833336L230.59375 93.833336ZM233.0 91.583336L234.10938 91.489586Q234.23438 92.302086 234.67188 92.708336Q235.125 93.114586 235.76562 93.114586Q236.51562 93.114586 237.04688 92.53646Q237.57812 91.958336 237.57812 91.020836Q237.57812 90.114586 237.0625 89.59896Q236.5625 89.06771 235.73438 89.06771Q235.23438 89.06771 234.8125 89.302086Q234.40625 89.53646 234.17188 89.895836L233.1875 89.770836L234.01562 85.364586L238.29688 85.364586L238.29688 86.364586L234.85938 86.364586L234.40625 88.677086Q235.17188 88.13021 236.01562 88.13021Q237.14062 88.13021 237.90625 88.91146Q238.6875 89.69271 238.6875 90.927086Q238.6875 92.083336 238.01562 92.94271Q237.1875 93.97396 235.76562 93.97396Q234.59375 93.97396 233.84375 93.31771Q233.10938 92.66146 233.0 91.583336ZM242.54688 93.833336L245.875 89.34896L242.95312 85.239586L244.29688 85.239586L245.85938 87.44271Q246.34375 88.13021 246.54688 88.50521Q246.84375 88.03646 247.23438 87.520836L248.95312 85.239586L250.1875 85.239586L247.17188 89.28646L250.42188 93.833336L249.01562 93.833336L246.85938 90.770836Q246.67188 90.50521 246.48438 90.19271Q246.20312 90.66146 246.07812 90.833336L243.92188 93.833336L242.54688 93.833336ZM259.5625 90.81771L260.6875 91.114586Q260.32812 92.50521 259.40625 93.239586Q258.48438 93.97396 257.14062 93.97396Q255.75 93.97396 254.875 93.41146Q254.0 92.84896 253.54688 91.78646Q253.09375 90.708336 253.09375 89.47396Q253.09375 88.13021 253.60938 87.13021Q254.125 86.13021 255.0625 85.614586Q256.01562 85.09896 257.15625 85.09896Q258.4375 85.09896 259.3125 85.75521Q260.20312 86.41146 260.54688 87.59896L259.42188 87.864586Q259.125 86.927086 258.54688 86.50521Q257.98438 86.06771 257.125 86.06771Q256.14062 86.06771 255.46875 86.552086Q254.8125 87.020836 254.53125 87.81771Q254.26562 88.614586 254.26562 89.47396Q254.26562 90.56771 254.57812 91.38021Q254.90625 92.19271 255.57812 92.59896Q256.25 93.00521 257.04688 93.00521Q258.0 93.00521 258.65625 92.458336Q259.32812 91.91146 259.5625 90.81771ZM262.42188 93.833336L262.42188 85.239586L265.67188 85.239586Q266.51562 85.239586 266.96875 85.31771Q267.60938 85.427086 268.03125 85.72396Q268.46875 86.020836 268.71875 86.552086Q268.98438 87.083336 268.98438 87.72396Q268.98438 88.81771 268.28125 89.583336Q267.59375 90.333336 265.76562 90.333336L263.5625 90.333336L263.5625 93.833336L262.42188 93.833336ZM263.5625 89.333336L265.78125 89.333336Q266.89062 89.333336 267.34375 88.927086Q267.8125 88.50521 267.8125 87.75521Q267.8125 87.22396 267.53125 86.84896Q267.26562 86.458336 266.82812 86.333336Q266.53125 86.25521 265.76562 86.25521L263.5625 86.25521L263.5625 89.333336ZM276.0625 85.239586L277.20312 85.239586L277.20312 90.208336Q277.20312 91.50521 276.90625 92.270836Q276.60938 93.020836 275.84375 93.50521Q275.07812 93.97396 273.84375 93.97396Q272.64062 93.97396 271.85938 93.56771Q271.09375 93.145836 270.76562 92.364586Q270.4375 91.56771 270.4375 90.208336L270.4375 85.239586L271.57812 85.239586L271.57812 90.19271Q271.57812 91.31771 271.78125 91.84896Q272.0 92.38021 272.5 92.677086Q273.01562 92.958336 273.75 92.958336Q275.0 92.958336 275.53125 92.395836Q276.0625 91.81771 276.0625 90.19271L276.0625 85.239586Z" fill-rule="nonzero"/><path fill="#fbbc04" d="M294.5 84.833336C294.5 84.28105 294.94772 83.833336 295.5 83.833336L305.5 83.833336C306.05228 83.833336 306.5 84.28105 306.5 84.833336L306.5 94.833336C306.5 95.38562 306.05228 95.833336 305.5 95.833336L295.5 95.833336C294.94772 95.833336 294.5 95.38562 294.5 94.833336Z" fill-rule="nonzero"/><path fill="#1a1a1a" d="M316.92188 93.833336L314.64062 85.239586L315.8125 85.239586L317.125 90.88021Q317.32812 91.75521 317.48438 92.63021Q317.8125 91.25521 317.875 91.03646L319.5 85.239586L320.875 85.239586L322.10938 89.583336Q322.5625 91.208336 322.78125 92.63021Q322.9375 91.81771 323.20312 90.75521L324.54688 85.239586L325.6875 85.239586L323.34375 93.833336L322.23438 93.833336L320.4375 87.28646Q320.20312 86.47396 320.15625 86.28646Q320.03125 86.864586 319.90625 87.28646L318.09375 93.833336L316.92188 93.833336ZM326.45312 93.833336L326.45312 85.239586L332.65625 85.239586L332.65625 86.25521L327.59375 86.25521L327.59375 88.88021L332.34375 88.88021L332.34375 89.895836L327.59375 89.895836L327.59375 92.81771L332.85938 92.81771L332.85938 93.833336L326.45312 93.833336ZM334.375 93.833336L334.375 85.239586L337.60938 85.239586Q338.59375 85.239586 339.1875 85.50521Q339.78125 85.770836 340.10938 86.31771Q340.45312 86.84896 340.45312 87.44271Q340.45312 87.989586 340.15625 88.47396Q339.85938 88.958336 339.25 89.25521Q340.03125 89.489586 340.4375 90.052086Q340.85938 90.59896 340.85938 91.34896Q340.85938 91.94271 340.60938 92.47396Q340.35938 92.989586 339.98438 93.270836Q339.60938 93.552086 339.03125 93.69271Q338.46875 93.833336 337.65625 93.833336L334.375 93.833336ZM335.51562 88.84896L337.375 88.84896Q338.125 88.84896 338.45312 88.75521Q338.89062 88.63021 339.10938 88.333336Q339.32812 88.020836 339.32812 87.56771Q339.32812 87.145836 339.125 86.81771Q338.92188 86.489586 338.53125 86.38021Q338.15625 86.25521 337.23438 86.25521L335.51562 86.25521L335.51562 88.84896ZM335.51562 92.81771L337.65625 92.81771Q338.20312 92.81771 338.42188 92.770836Q338.82812 92.708336 339.07812 92.552086Q339.34375 92.38021 339.51562 92.06771Q339.6875 91.75521 339.6875 91.34896Q339.6875 90.864586 339.4375 90.50521Q339.20312 90.145836 338.76562 90.00521Q338.32812 89.864586 337.5 89.864586L335.51562 89.864586L335.51562 92.81771ZM350.54688 92.81771L350.54688 93.833336L344.85938 93.833336Q344.85938 93.458336 344.98438 93.09896Q345.20312 92.520836 345.67188 91.958336Q346.15625 91.395836 347.0625 90.66146Q348.46875 89.50521 348.95312 88.833336Q349.45312 88.16146 349.45312 87.56771Q349.45312 86.94271 349.0 86.520836Q348.54688 86.083336 347.82812 86.083336Q347.0625 86.083336 346.60938 86.53646Q346.15625 86.989586 346.14062 87.802086L345.0625 87.69271Q345.17188 86.47396 345.89062 85.84896Q346.625 85.208336 347.85938 85.208336Q349.09375 85.208336 349.8125 85.895836Q350.53125 86.583336 350.53125 87.59896Q350.53125 88.114586 350.3125 88.614586Q350.10938 89.09896 349.60938 89.66146Q349.125 90.208336 348.0 91.16146Q347.04688 91.958336 346.76562 92.25521Q346.5 92.53646 346.32812 92.81771L350.54688 92.81771ZM354.54688 93.833336L357.875 89.34896L354.95312 85.239586L356.29688 85.239586L357.85938 87.44271Q358.34375 88.13021 358.54688 88.50521Q358.84375 88.03646 359.23438 87.520836L360.95312 85.239586L362.1875 85.239586L359.17188 89.28646L362.42188 93.833336L361.01562 93.833336L358.85938 90.770836Q358.67188 90.50521 358.48438 90.19271Q358.20312 90.66146 358.07812 90.833336L355.92188 93.833336L354.54688 93.833336ZM371.5625 90.81771L372.6875 91.114586Q372.32812 92.50521 371.40625 93.239586Q370.48438 93.97396 369.14062 93.97396Q367.75 93.97396 366.875 93.41146Q366.0 92.84896 365.54688 91.78646Q365.09375 90.708336 365.09375 89.47396Q365.09375 88.13021 365.60938 87.13021Q366.125 86.13021 367.0625 85.614586Q368.01562 85.09896 369.15625 85.09896Q370.4375 85.09896 371.3125 85.75521Q372.20312 86.41146 372.54688 87.59896L371.42188 87.864586Q371.125 86.927086 370.54688 86.50521Q369.98438 86.06771 369.125 86.06771Q368.14062 86.06771 367.46875 86.552086Q366.8125 87.020836 366.53125 87.81771Q366.26562 88.614586 366.26562 89.47396Q366.26562 90.56771 366.57812 91.38021Q366.90625 92.19271 367.57812 92.59896Q368.25 93.00521 369.04688 93.00521Q370.0 93.00521 370.65625 92.458336Q371.32812 91.91146 371.5625 90.81771ZM374.42188 93.833336L374.42188 85.239586L377.67188 85.239586Q378.51562 85.239586 378.96875 85.31771Q379.60938 85.427086 380.03125 85.72396Q380.46875 86.020836 380.71875 86.552086Q380.98438 87.083336 380.98438 87.72396Q380.98438 88.81771 380.28125 89.583336Q379.59375 90.333336 377.76562 90.333336L375.5625 90.333336L375.5625 93.833336L374.42188 93.833336ZM375.5625 89.333336L377.78125 89.333336Q378.89062 89.333336 379.34375 88.927086Q379.8125 88.50521 379.8125 87.75521Q379.8125 87.22396 379.53125 86.84896Q379.26562 86.458336 378.82812 86.333336Q378.53125 86.25521 377.76562 86.25521L375.5625 86.25521L375.5625 89.333336ZM388.0625 85.239586L389.20312 85.239586L389.20312 90.208336Q389.20312 91.50521 388.90625 92.270836Q388.60938 93.020836 387.84375 93.50521Q387.07812 93.97396 385.84375 93.97396Q384.64062 93.97396 383.85938 93.56771Q383.09375 93.145836 382.76562 92.364586Q382.4375 91.56771 382.4375 90.208336L382.4375 85.239586L383.57812 85.239586L383.57812 90.19271Q383.57812 91.31771 383.78125 91.84896Q384.0 92.38021 384.5 92.677086Q385.01562 92.958336 385.75 92.958336Q387.0 92.958336 387.53125 92.395836Q388.0625 91.81771 388.0625 90.19271L388.0625 85.239586Z" fill-rule="nonzero"/><path fill="#34a853" d="M406.5 84.833336C406.5 84.28105 406.94772 83.833336 407.5 83.833336L417.5 83.833336C418.05228 83.833336 418.5 84.28105 418.5 84.833336L418.5 94.833336C418.5 95.38562 418.05228 95.833336 417.5 95.833336L407.5 95.833336C406.94772 95.833336 406.5 95.38562 406.5 94.833336Z" fill-rule="nonzero"/><path fill="#1a1a1a" d="M428.92188 93.833336L426.64062 85.239586L427.8125 85.239586L429.125 90.88021Q429.32812 91.75521 429.48438 92.63021Q429.8125 91.25521 429.875 91.03646L431.5 85.239586L432.875 85.239586L434.10938 89.583336Q434.5625 91.208336 434.78125 92.63021Q434.9375 91.81771 435.20312 90.75521L436.54688 85.239586L437.6875 85.239586L435.34375 93.833336L434.23438 93.833336L432.4375 87.28646Q432.20312 86.47396 432.15625 86.28646Q432.03125 86.864586 431.90625 87.28646L430.09375 93.833336L428.92188 93.833336ZM438.45312 93.833336L438.45312 85.239586L444.65625 85.239586L444.65625 86.25521L439.59375 86.25521L439.59375 88.88021L444.34375 88.88021L444.34375 89.895836L439.59375 89.895836L439.59375 92.81771L444.85938 92.81771L444.85938 93.833336L438.45312 93.833336ZM446.375 93.833336L446.375 85.239586L449.60938 85.239586Q450.59375 85.239586 451.1875 85.50521Q451.78125 85.770836 452.10938 86.31771Q452.45312 86.84896 452.45312 87.44271Q452.45312 87.989586 452.15625 88.47396Q451.85938 88.958336 451.25 89.25521Q452.03125 89.489586 452.4375 90.052086Q452.85938 90.59896 452.85938 91.34896Q452.85938 91.94271 452.60938 92.47396Q452.35938 92.989586 451.98438 93.270836Q451.60938 93.552086 451.03125 93.69271Q450.46875 93.833336 449.65625 93.833336L446.375 93.833336ZM447.51562 88.84896L449.375 88.84896Q450.125 88.84896 450.45312 88.75521Q450.89062 88.63021 451.10938 88.333336Q451.32812 88.020836 451.32812 87.56771Q451.32812 87.145836 451.125 86.81771Q450.92188 86.489586 450.53125 86.38021Q450.15625 86.25521 449.23438 86.25521L447.51562 86.25521L447.51562 88.84896ZM447.51562 92.81771L449.65625 92.81771Q450.20312 92.81771 450.42188 92.770836Q450.82812 92.708336 451.07812 92.552086Q451.34375 92.38021 451.51562 92.06771Q451.6875 91.75521 451.6875 91.34896Q451.6875 90.864586 451.4375 90.50521Q451.20312 90.145836 450.76562 90.00521Q450.32812 89.864586 449.5 89.864586L447.51562 89.864586L447.51562 92.81771ZM462.54688 92.81771L462.54688 93.833336L456.85938 93.833336Q456.85938 93.458336 456.98438 93.09896Q457.20312 92.520836 457.67188 91.958336Q458.15625 91.395836 459.0625 90.66146Q460.46875 89.50521 460.95312 88.833336Q461.45312 88.16146 461.45312 87.56771Q461.45312 86.94271 461.0 86.520836Q460.54688 86.083336 459.82812 86.083336Q459.0625 86.083336 458.60938 86.53646Q458.15625 86.989586 458.14062 87.802086L457.0625 87.69271Q457.17188 86.47396 457.89062 85.84896Q458.625 85.208336 459.85938 85.208336Q461.09375 85.208336 461.8125 85.895836Q462.53125 86.583336 462.53125 87.59896Q462.53125 88.114586 462.3125 88.614586Q462.10938 89.09896 461.60938 89.66146Q461.125 90.208336 460.0 91.16146Q459.04688 91.958336 458.76562 92.25521Q458.5 92.53646 458.32812 92.81771L462.54688 92.81771ZM464.59375 93.833336L464.59375 92.63021L465.79688 92.63021L465.79688 93.833336L464.59375 93.833336ZM467.0 91.583336L468.10938 91.489586Q468.23438 92.302086 468.67188 92.708336Q469.125 93.114586 469.76562 93.114586Q470.51562 93.114586 471.04688 92.53646Q471.57812 91.958336 471.57812 91.020836Q471.57812 90.114586 471.0625 89.59896Q470.5625 89.06771 469.73438 89.06771Q469.23438 89.06771 468.8125 89.302086Q468.40625 89.53646 468.17188 89.895836L467.1875 89.770836L468.01562 85.364586L472.29688 85.364586L472.29688 86.364586L468.85938 86.364586L468.40625 88.677086Q469.17188 88.13021 470.01562 88.13021Q471.14062 88.13021 471.90625 88.91146Q472.6875 89.69271 472.6875 90.927086Q472.6875 92.083336 472.01562 92.94271Q471.1875 93.97396 469.76562 93.97396Q468.59375 93.97396 467.84375 93.31771Q467.10938 92.66146 467.0 91.583336ZM476.54688 93.833336L479.875 89.34896L476.95312 85.239586L478.29688 85.239586L479.85938 87.44271Q480.34375 88.13021 480.54688 88.50521Q480.84375 88.03646 481.23438 87.520836L482.95312 85.239586L484.1875 85.239586L481.17188 89.28646L484.42188 93.833336L483.01562 93.833336L480.85938 90.770836Q480.67188 90.50521 480.48438 90.19271Q480.20312 90.66146 480.07812 90.833336L477.92188 93.833336L476.54688 93.833336ZM493.5625 90.81771L494.6875 91.114586Q494.32812 92.50521 493.40625 93.239586Q492.48438 93.97396 491.14062 93.97396Q489.75 93.97396 488.875 93.41146Q488.0 92.84896 487.54688 91.78646Q487.09375 90.708336 487.09375 89.47396Q487.09375 88.13021 487.60938 87.13021Q488.125 86.13021 489.0625 85.614586Q490.01562 85.09896 491.15625 85.09896Q492.4375 85.09896 493.3125 85.75521Q494.20312 86.41146 494.54688 87.59896L493.42188 87.864586Q493.125 86.927086 492.54688 86.50521Q491.98438 86.06771 491.125 86.06771Q490.14062 86.06771 489.46875 86.552086Q488.8125 87.020836 488.53125 87.81771Q488.26562 88.614586 488.26562 89.47396Q488.26562 90.56771 488.57812 91.38021Q488.90625 92.19271 489.57812 92.59896Q490.25 93.00521 491.04688 93.00521Q492.0 93.00521 492.65625 92.458336Q493.32812 91.91146 493.5625 90.81771ZM496.42188 93.833336L496.42188 85.239586L499.67188 85.239586Q500.51562 85.239586 500.96875 85.31771Q501.60938 85.427086 502.03125 85.72396Q502.46875 86.020836 502.71875 86.552086Q502.98438 87.083336 502.98438 87.72396Q502.98438 88.81771 502.28125 89.583336Q501.59375 90.333336 499.76562 90.333336L497.5625 90.333336L497.5625 93.833336L496.42188 93.833336ZM497.5625 89.333336L499.78125 89.333336Q500.89062 89.333336 501.34375 88.927086Q501.8125 88.50521 501.8125 87.75521Q501.8125 87.22396 501.53125 86.84896Q501.26562 86.458336 500.82812 86.333336Q500.53125 86.25521 499.76562 86.25521L497.5625 86.25521L497.5625 89.333336ZM510.0625 85.239586L511.20312 85.239586L511.20312 90.208336Q511.20312 91.50521 510.90625 92.270836Q510.60938 93.020836 509.84375 93.50521Q509.07812 93.97396 507.84375 93.97396Q506.64062 93.97396 505.85938 93.56771Q505.09375 93.145836 504.76562 92.364586Q504.4375 91.56771 504.4375 90.208336L504.4375 85.239586L505.57812 85.239586L505.57812 90.19271Q505.57812 91.31771 505.78125 91.84896Q506.0 92.38021 506.5 92.677086Q507.01562 92.958336 507.75 92.958336Q509.0 92.958336 509.53125 92.395836Q510.0625 91.81771 510.0625 90.19271L510.0625 85.239586Z" fill-rule="nonzero"/><path fill="#ff6d01" d="M528.5 84.833336C528.5 84.28105 528.9477 83.833336 529.5 83.833336L539.5 83.833336C540.0523 83.833336 540.5 84.28105 540.5 84.833336L540.5 94.833336C540.5 95.38562 540.0523 95.833336 539.5 95.833336L529.5 95.833336C528.9477 95.833336 528.5 95.38562 528.5 94.833336Z" fill-rule="nonzero"/><path fill="#1a1a1a" d="M550.9219 93.833336L548.6406 85.239586L549.8125 85.239586L551.125 90.88021Q551.3281 91.75521 551.4844 92.63021Q551.8125 91.25521 551.875 91.03646L553.5 85.239586L554.875 85.239586L556.1094 89.583336Q556.5625 91.208336 556.78125 92.63021Q556.9375 91.81771 557.2031 90.75521L558.5469 85.239586L559.6875 85.239586L557.34375 93.833336L556.2344 93.833336L554.4375 87.28646Q554.2031 86.47396 554.15625 86.28646Q554.03125 86.864586 553.90625 87.28646L552.09375 93.833336L550.9219 93.833336ZM560.4531 93.833336L560.4531 85.239586L566.65625 85.239586L566.65625 86.25521L561.59375 86.25521L561.59375 88.88021L566.34375 88.88021L566.34375 89.895836L561.59375 89.895836L561.59375 92.81771L566.8594 92.81771L566.8594 93.833336L560.4531 93.833336ZM568.375 93.833336L568.375 85.239586L571.6094 85.239586Q572.59375 85.239586 573.1875 85.50521Q573.78125 85.770836 574.1094 86.31771Q574.4531 86.84896 574.4531 87.44271Q574.4531 87.989586 574.15625 88.47396Q573.8594 88.958336 573.25 89.25521Q574.03125 89.489586 574.4375 90.052086Q574.8594 90.59896 574.8594 91.34896Q574.8594 91.94271 574.6094 92.47396Q574.3594 92.989586 573.9844 93.270836Q573.6094 93.552086 573.03125 93.69271Q572.46875 93.833336 571.65625 93.833336L568.375 93.833336ZM569.5156 88.84896L571.375 88.84896Q572.125 88.84896 572.4531 88.75521Q572.8906 88.63021 573.1094 88.333336Q573.3281 88.020836 573.3281 87.56771Q573.3281 87.145836 573.125 86.81771Q572.9219 86.489586 572.53125 86.38021Q572.15625 86.25521 571.2344 86.25521L569.5156 86.25521L569.5156 88.84896ZM569.5156 92.81771L571.65625 92.81771Q572.2031 92.81771 572.4219 92.770836Q572.8281 92.708336 573.0781 92.552086Q573.34375 92.38021 573.5156 92.06771Q573.6875 91.75521 573.6875 91.34896Q573.6875 90.864586 573.4375 90.50521Q573.2031 90.145836 572.7656 90.00521Q572.3281 89.864586 571.5 89.864586L569.5156 89.864586L569.5156 92.81771ZM579.0 91.56771L580.0625 91.427086Q580.2344 92.31771 580.6719 92.72396Q581.1094 93.114586 581.7344 93.114586Q582.4844 93.114586 583.0 92.59896Q583.5156 92.083336 583.5156 91.31771Q583.5156 90.59896 583.03125 90.13021Q582.5625 89.645836 581.8281 89.645836Q581.53125 89.645836 581.0781 89.770836L581.2031 88.833336Q581.3125 88.84896 581.375 88.84896Q582.0469 88.84896 582.5781 88.50521Q583.125 88.145836 583.125 87.41146Q583.125 86.833336 582.7344 86.458336Q582.34375 86.06771 581.71875 86.06771Q581.1094 86.06771 580.6875 86.458336Q580.28125 86.84896 580.1719 87.614586L579.1094 87.427086Q579.2969 86.38021 579.9844 85.802086Q580.6719 85.208336 581.6875 85.208336Q582.3906 85.208336 582.9844 85.520836Q583.5781 85.81771 583.8906 86.333336Q584.2031 86.84896 584.2031 87.44271Q584.2031 87.989586 583.90625 88.458336Q583.6094 88.91146 583.03125 89.177086Q583.78125 89.34896 584.2031 89.91146Q584.625 90.458336 584.625 91.302086Q584.625 92.427086 583.7969 93.208336Q582.9844 93.989586 581.7344 93.989586Q580.6094 93.989586 579.8594 93.31771Q579.1094 92.63021 579.0 91.56771ZM588.5469 93.833336L591.875 89.34896L588.9531 85.239586L590.2969 85.239586L591.8594 87.44271Q592.34375 88.13021 592.5469 88.50521Q592.84375 88.03646 593.2344 87.520836L594.9531 85.239586L596.1875 85.239586L593.1719 89.28646L596.4219 93.833336L595.0156 93.833336L592.8594 90.770836Q592.6719 90.50521 592.4844 90.19271Q592.2031 90.66146 592.0781 90.833336L589.9219 93.833336L588.5469 93.833336ZM605.5625 90.81771L606.6875 91.114586Q606.3281 92.50521 605.40625 93.239586Q604.4844 93.97396 603.1406 93.97396Q601.75 93.97396 600.875 93.41146Q600.0 92.84896 599.5469 91.78646Q599.09375 90.708336 599.09375 89.47396Q599.09375 88.13021 599.6094 87.13021Q600.125 86.13021 601.0625 85.614586Q602.0156 85.09896 603.15625 85.09896Q604.4375 85.09896 605.3125 85.75521Q606.2031 86.41146 606.5469 87.59896L605.4219 87.864586Q605.125 86.927086 604.5469 86.50521Q603.9844 86.06771 603.125 86.06771Q602.1406 86.06771 601.46875 86.552086Q600.8125 87.020836 600.53125 87.81771Q600.2656 88.614586 600.2656 89.47396Q600.2656 90.56771 600.5781 91.38021Q600.90625 92.19271 601.5781 92.59896Q602.25 93.00521 603.0469 93.00521Q604.0 93.00521 604.65625 92.458336Q605.3281 91.91146 605.5625 90.81771ZM608.4219 93.833336L608.4219 85.239586L611.6719 85.239586Q612.5156 85.239586 612.96875 85.31771Q613.6094 85.427086 614.03125 85.72396Q614.46875 86.020836 614.71875 86.552086Q614.9844 87.083336 614.9844 87.72396Q614.9844 88.81771 614.28125 89.583336Q613.59375 90.333336 611.7656 90.333336L609.5625 90.333336L609.5625 93.833336L608.4219 93.833336ZM609.5625 89.333336L611.78125 89.333336Q612.8906 89.333336 613.34375 88.927086Q613.8125 88.50521 613.8125 87.75521Q613.8125 87.22396 613.53125 86.84896Q613.2656 86.458336 612.8281 86.333336Q612.53125 86.25521 611.7656 86.25521L609.5625 86.25521L609.5625 89.333336ZM622.0625 85.239586L623.2031 85.239586L623.2031 90.208336Q623.2031 91.50521 622.90625 92.270836Q622.6094 93.020836 621.84375 93.50521Q621.0781 93.97396 619.84375 93.97396Q618.6406 93.97396 617.8594 93.56771Q617.09375 93.145836 616.7656 92.364586Q616.4375 91.56771 616.4375 90.208336L616.4375 85.239586L617.5781 85.239586L617.5781 90.19271Q617.5781 91.31771 617.78125 91.84896Q618.0 92.38021 618.5 92.677086Q619.0156 92.958336 619.75 92.958336Q621.0 92.958336 621.53125 92.395836Q622.0625 91.81771 622.0625 90.19271L622.0625 85.239586Z" fill-rule="nonzero"/><path fill="#999999" d="M22.23125 65.7L22.23125 55.684372L23.559376 55.684372L23.559376 64.5125L28.48125 64.5125L28.48125 65.7L22.23125 65.7ZM29.66875 62.074997Q29.66875 60.059372 30.79375 59.074997Q31.715626 58.278122 33.075 58.278122Q34.559376 58.278122 35.5125 59.262497Q36.465626 60.231247 36.465626 61.965622Q36.465626 63.371872 36.04375 64.18437Q35.621876 64.98125 34.809376 65.43437Q34.0125 65.87187 33.075 65.87187Q31.54375 65.87187 30.60625 64.8875Q29.66875 63.903122 29.66875 62.074997ZM30.934376 62.074997Q30.934376 63.465622 31.54375 64.16875Q32.153126 64.85625 33.075 64.85625Q33.98125 64.85625 34.590626 64.15312Q35.2 63.449997 35.2 62.028122Q35.2 60.684372 34.590626 59.996872Q33.98125 59.293747 33.075 59.293747Q32.153126 59.293747 31.54375 59.981247Q30.934376 60.668747 30.934376 62.074997ZM39.465626 65.7L37.246876 58.434372L38.5125 58.434372L39.66875 62.637497L40.10625 64.18437Q40.121876 64.075 40.48125 62.684372L41.6375 58.434372L42.8875 58.434372L43.98125 62.653122L44.340626 64.04375L44.7625 62.637497L46.0125 58.434372L47.2 58.434372L44.934376 65.7L43.653126 65.7L42.496876 61.356247L42.215626 60.121872L40.746876 65.7L39.465626 65.7ZM52.090626 63.356247L53.371876 63.512497Q53.059376 64.6375 52.246876 65.2625Q51.434376 65.87187 50.16875 65.87187Q48.575 65.87187 47.6375 64.8875Q46.715626 63.903122 46.715626 62.137497Q46.715626 60.293747 47.653126 59.293747Q48.60625 58.278122 50.10625 58.278122Q51.559376 58.278122 52.48125 59.278122Q53.403126 60.262497 53.403126 62.059372Q53.403126 62.168747 53.403126 62.387497L47.98125 62.387497Q48.059376 63.574997 48.653126 64.21562Q49.2625 64.85625 50.184376 64.85625Q50.85625 64.85625 51.325 64.49687Q51.809376 64.1375 52.090626 63.356247ZM48.059376 61.371872L52.10625 61.371872Q52.028126 60.449997 51.6375 59.996872Q51.059376 59.293747 50.121876 59.293747Q49.2625 59.293747 48.684376 59.856247Q48.121876 60.418747 48.059376 61.371872ZM55.10625 65.7L55.10625 58.434372L56.215626 58.434372L56.215626 59.543747Q56.6375 58.762497 56.996876 58.528122Q57.35625 58.278122 57.79375 58.278122Q58.41875 58.278122 59.059376 58.668747L58.6375 59.809372Q58.184376 59.543747 57.73125 59.543747Q57.325 59.543747 56.996876 59.793747Q56.684376 60.028122 56.54375 60.465622Q56.340626 61.121872 56.340626 61.903122L56.340626 65.7L55.10625 65.7ZM64.1375 57.090622L64.1375 55.684372L65.35625 55.684372L65.35625 57.090622L64.1375 57.090622ZM64.1375 65.7L64.1375 58.434372L65.35625 58.434372L65.35625 65.7L64.1375 65.7ZM66.6375 63.528122L67.84062 63.340622Q67.95 64.075 68.41875 64.46562Q68.8875 64.85625 69.73125 64.85625Q70.575 64.85625 70.98125 64.5125Q71.40312 64.16875 71.40312 63.699997Q71.40312 63.278122 71.02812 63.043747Q70.77812 62.871872 69.77812 62.621872Q68.41875 62.278122 67.8875 62.028122Q67.37187 61.778122 67.10625 61.340622Q66.84062 60.903122 66.84062 60.371872Q66.84062 59.887497 67.05937 59.481247Q67.27812 59.059372 67.66875 58.778122Q67.95 58.574997 68.43437 58.434372Q68.93437 58.278122 69.5125 58.278122Q70.35625 58.278122 70.99687 58.528122Q71.65312 58.762497 71.96562 59.184372Q72.27812 59.606247 72.3875 60.309372L71.18437 60.481247Q71.10625 59.918747 70.7 59.606247Q70.30937 59.293747 69.59062 59.293747Q68.74687 59.293747 68.3875 59.574997Q68.02812 59.840622 68.02812 60.231247Q68.02812 60.465622 68.16875 60.653122Q68.325 60.856247 68.65312 60.981247Q68.825 61.043747 69.73125 61.293747Q71.04375 61.653122 71.55937 61.871872Q72.075 62.090622 72.35625 62.512497Q72.65312 62.934372 72.65312 63.559372Q72.65312 64.18437 72.29375 64.73125Q71.95 65.2625 71.2625 65.575Q70.59062 65.87187 69.73125 65.87187Q68.325 65.87187 67.575 65.27812Q66.84062 64.68437 66.6375 63.528122ZM79.2625 65.7L78.12187 65.7L78.12187 55.684372L79.34062 55.684372L79.34062 59.246872Q80.12187 58.278122 81.34062 58.278122Q82.0125 58.278122 82.60625 58.543747Q83.2 58.809372 83.59062 59.309372Q83.98125 59.793747 84.2 60.481247Q84.41875 61.168747 84.41875 61.965622Q84.41875 63.824997 83.48125 64.85625Q82.55937 65.87187 81.27812 65.87187Q79.99687 65.87187 79.2625 64.79375L79.2625 65.7ZM79.24687 62.012497Q79.24687 63.324997 79.60625 63.903122Q80.18437 64.85625 81.16875 64.85625Q81.98125 64.85625 82.55937 64.15312Q83.15312 63.449997 83.15312 62.059372Q83.15312 60.637497 82.59062 59.965622Q82.02812 59.293747 81.23125 59.293747Q80.41875 59.293747 79.825 59.996872Q79.24687 60.684372 79.24687 62.012497ZM91.09062 63.356247L92.37187 63.512497Q92.05937 64.6375 91.24687 65.2625Q90.43437 65.87187 89.16875 65.87187Q87.575 65.87187 86.6375 64.8875Q85.71562 63.903122 85.71562 62.137497Q85.71562 60.293747 86.65312 59.293747Q87.60625 58.278122 89.10625 58.278122Q90.55937 58.278122 91.48125 59.278122Q92.40312 60.262497 92.40312 62.059372Q92.40312 62.168747 92.40312 62.387497L86.98125 62.387497Q87.05937 63.574997 87.65312 64.21562Q88.2625 64.85625 89.18437 64.85625Q89.85625 64.85625 90.325 64.49687Q90.80937 64.1375 91.09062 63.356247ZM87.05937 61.371872L91.10625 61.371872Q91.02812 60.449997 90.6375 59.996872Q90.05937 59.293747 89.12187 59.293747Q88.2625 59.293747 87.68437 59.856247Q87.12187 60.418747 87.05937 61.371872ZM96.80937 64.60625L96.98125 65.68437Q96.46562 65.79375 96.05937 65.79375Q95.3875 65.79375 95.0125 65.59062Q94.65312 65.37187 94.49687 65.02812Q94.35625 64.68437 94.35625 63.574997L94.35625 59.403122L93.45 59.403122L93.45 58.434372L94.35625 58.434372L94.35625 56.637497L95.575 55.903122L95.575 58.434372L96.80937 58.434372L96.80937 59.403122L95.575 59.403122L95.575 63.637497Q95.575 64.16875 95.6375 64.325Q95.7 64.46562 95.84062 64.55937Q95.99687 64.65312 96.2625 64.65312Q96.48125 64.65312 96.80937 64.60625ZM100.80937 64.60625L100.98125 65.68437Q100.46562 65.79375 100.05937 65.79375Q99.3875 65.79375 99.0125 65.59062Q98.65312 65.37187 98.49687 65.02812Q98.35625 64.68437 98.35625 63.574997L98.35625 59.403122L97.45 59.403122L97.45 58.434372L98.35625 58.434372L98.35625 56.637497L99.575 55.903122L99.575 58.434372L100.80937 58.434372L100.80937 59.403122L99.575 59.403122L99.575 63.637497Q99.575 64.16875 99.6375 64.325Q99.7 64.46562 99.84062 64.55937Q99.99687 64.65312 100.2625 64.65312Q100.48125 64.65312 100.80937 64.60625ZM107.09062 63.356247L108.37187 63.512497Q108.05937 64.6375 107.24687 65.2625Q106.43437 65.87187 105.16875 65.87187Q103.575 65.87187 102.6375 64.8875Q101.71562 63.903122 101.71562 62.137497Q101.71562 60.293747 102.65312 59.293747Q103.60625 58.278122 105.10625 58.278122Q106.55937 58.278122 107.48125 59.278122Q108.40312 60.262497 108.40312 62.059372Q108.40312 62.168747 108.40312 62.387497L102.98125 62.387497Q103.05937 63.574997 103.65312 64.21562Q104.2625 64.85625 105.18437 64.85625Q105.85625 64.85625 106.325 64.49687Q106.80937 64.1375 107.09062 63.356247ZM103.05937 61.371872L107.10625 61.371872Q107.02812 60.449997 106.6375 59.996872Q106.05937 59.293747 105.12187 59.293747Q104.2625 59.293747 103.68437 59.856247Q103.12187 60.418747 103.05937 61.371872ZM110.10625 65.7L110.10625 58.434372L111.21562 58.434372L111.21562 59.543747Q111.6375 58.762497 111.99687 58.528122Q112.35625 58.278122 112.79375 58.278122Q113.41875 58.278122 114.05937 58.668747L113.6375 59.809372Q113.18437 59.543747 112.73125 59.543747Q112.325 59.543747 111.99687 59.793747Q111.68437 60.028122 111.54375 60.465622Q111.34062 61.121872 111.34062 61.903122L111.34062 65.7L110.10625 65.7Z" fill-rule="nonzero"/><path fill="#757575" d="M27.66875 40.2L27.66875 36.778126L21.45 36.778126L21.45 35.153126L27.98125 25.8875L29.41875 25.8875L29.41875 35.153126L31.35625 35.153126L31.35625 36.778126L29.41875 36.778126L29.41875 40.2L27.66875 40.2ZM27.66875 35.153126L27.66875 28.7L23.184376 35.153126L27.66875 35.153126ZM49.965626 35.184376L51.85625 35.653126Q51.2625 37.996876 49.715626 39.23125Q48.16875 40.45 45.91875 40.45Q43.60625 40.45 42.153126 39.5125Q40.715626 38.559376 39.95 36.778126Q39.2 34.98125 39.2 32.934376Q39.2 30.7 40.04375 29.04375Q40.903126 27.371876 42.48125 26.5125Q44.059376 25.6375 45.95 25.6375Q48.10625 25.6375 49.559376 26.73125Q51.028126 27.825 51.60625 29.809376L49.746876 30.246876Q49.246876 28.684376 48.29375 27.98125Q47.35625 27.2625 45.91875 27.2625Q44.2625 27.2625 43.153126 28.059376Q42.04375 28.840626 41.590626 30.184376Q41.153126 31.5125 41.153126 32.91875Q41.153126 34.746876 41.684376 36.121876Q42.215626 37.48125 43.340626 38.153126Q44.465626 38.825 45.7625 38.825Q47.35625 38.825 48.465626 37.903126Q49.575 36.98125 49.965626 35.184376ZM53.746876 40.2L53.746876 25.8875L59.1375 25.8875Q60.575 25.8875 61.325 26.0125Q62.371876 26.2 63.090626 26.7Q63.809376 27.184376 64.23125 28.075Q64.66875 28.965626 64.66875 30.028126Q64.66875 31.85625 63.496876 33.121876Q62.340626 34.371876 59.309376 34.371876L55.6375 34.371876L55.6375 40.2L53.746876 40.2ZM55.6375 32.684376L59.340626 32.684376Q61.16875 32.684376 61.934376 32.0125Q62.715626 31.325 62.715626 30.075Q62.715626 29.184376 62.2625 28.54375Q61.809376 27.903126 61.075 27.7Q60.590626 27.575 59.29375 27.575L55.6375 27.575L55.6375 32.684376ZM76.1375 25.8875L78.02812 25.8875L78.02812 34.153126Q78.02812 36.309376 77.54375 37.590626Q77.05937 38.85625 75.77812 39.653126Q74.5125 40.45 72.43437 40.45Q70.41875 40.45 69.1375 39.7625Q67.87187 39.059376 67.325 37.746876Q66.77812 36.434376 66.77812 34.153126L66.77812 25.8875L68.66875 25.8875L68.66875 34.1375Q68.66875 36.0125 69.0125 36.903126Q69.35625 37.778126 70.2 38.2625Q71.04375 38.73125 72.27812 38.73125Q74.35625 38.73125 75.24687 37.79375Q76.1375 36.840626 76.1375 34.1375L76.1375 25.8875ZM85.74687 40.2L85.74687 25.8875L91.1375 25.8875Q92.575 25.8875 93.325 26.0125Q94.37187 26.2 95.09062 26.7Q95.80937 27.184376 96.23125 28.075Q96.66875 28.965626 96.66875 30.028126Q96.66875 31.85625 95.49687 33.121876Q94.34062 34.371876 91.30937 34.371876L87.6375 34.371876L87.6375 40.2L85.74687 40.2ZM87.6375 32.684376L91.34062 32.684376Q93.16875 32.684376 93.93437 32.0125Q94.71562 31.325 94.71562 30.075Q94.71562 29.184376 94.2625 28.54375Q93.80937 27.903126 93.075 27.7Q92.59062 27.575 91.29375 27.575L87.6375 27.575L87.6375 32.684376ZM98.29375 36.8875L99.98125 36.73125Q100.2 37.91875 100.79375 38.465626Q101.40312 38.996876 102.35625 38.996876Q103.16875 38.996876 103.77812 38.6375Q104.3875 38.2625 104.77812 37.6375Q105.16875 37.0125 105.43437 35.965626Q105.7 34.903126 105.7 33.809376Q105.7 33.7 105.68437 33.465626Q105.15312 34.29375 104.24687 34.825Q103.34062 35.340626 102.2625 35.340626Q100.49687 35.340626 99.2625 34.059376Q98.02812 32.7625 98.02812 30.653126Q98.02812 28.48125 99.30937 27.153126Q100.60625 25.825 102.52812 25.825Q103.93437 25.825 105.09062 26.575Q106.24687 27.325 106.84062 28.715626Q107.45 30.10625 107.45 32.746876Q107.45 35.496876 106.84062 37.121876Q106.24687 38.746876 105.075 39.60625Q103.90312 40.45 102.325 40.45Q100.6375 40.45 99.575 39.5125Q98.5125 38.575 98.29375 36.8875ZM105.49687 30.575Q105.49687 29.059376 104.68437 28.16875Q103.8875 27.278126 102.74687 27.278126Q101.575 27.278126 100.7 28.246876Q99.84062 29.2 99.84062 30.715626Q99.84062 32.090626 100.65312 32.95Q101.48125 33.79375 102.7 33.79375Q103.91875 33.79375 104.7 32.95Q105.49687 32.090626 105.49687 30.575ZM109.29375 36.8875L110.98125 36.73125Q111.2 37.91875 111.79375 38.465626Q112.40312 38.996876 113.35625 38.996876Q114.16875 38.996876 114.77812 38.6375Q115.3875 38.2625 115.77812 37.6375Q116.16875 37.0125 116.43437 35.965626Q116.7 34.903126 116.7 33.809376Q116.7 33.7 116.68437 33.465626Q116.15312 34.29375 115.24687 34.825Q114.34062 35.340626 113.2625 35.340626Q111.49687 35.340626 110.2625 34.059376Q109.02812 32.7625 109.02812 30.653126Q109.02812 28.48125 110.30937 27.153126Q111.60625 25.825 113.52812 25.825Q114.93437 25.825 116.09062 26.575Q117.24687 27.325 117.84062 28.715626Q118.45 30.10625 118.45 32.746876Q118.45 35.496876 117.84062 37.121876Q117.24687 38.746876 116.075 39.60625Q114.90312 40.45 113.325 40.45Q111.6375 40.45 110.575 39.5125Q109.5125 38.575 109.29375 36.8875ZM116.49687 30.575Q116.49687 29.059376 115.68437 28.16875Q114.8875 27.278126 113.74687 27.278126Q112.575 27.278126 111.7 28.246876Q110.84062 29.2 110.84062 30.715626Q110.84062 32.090626 111.65312 32.95Q112.48125 33.79375 113.7 33.79375Q114.91875 33.79375 115.7 32.95Q116.49687 32.090626 116.49687 30.575ZM126.66875 40.2L126.66875 25.8875L128.55937 25.8875L128.55937 38.5125L135.60625 38.5125L135.60625 40.2L126.66875 40.2ZM144.29375 38.91875Q143.30937 39.746876 142.40312 40.090626Q141.49687 40.434376 140.46562 40.434376Q138.7625 40.434376 137.84062 39.60625Q136.91875 38.7625 136.91875 37.465626Q136.91875 36.7 137.2625 36.075Q137.62187 35.45 138.18437 35.075Q138.74687 34.684376 139.45 34.48125Q139.96562 34.35625 141.0125 34.215626Q143.1375 33.965626 144.1375 33.621876Q144.15312 33.2625 144.15312 33.153126Q144.15312 32.090626 143.65312 31.6375Q142.98125 31.04375 141.65312 31.04375Q140.40312 31.04375 139.80937 31.48125Q139.23125 31.91875 138.95 33.028126L137.23125 32.79375Q137.46562 31.684376 137.99687 31.0125Q138.52812 30.325 139.54375 29.965626Q140.55937 29.590626 141.90312 29.590626Q143.23125 29.590626 144.05937 29.903126Q144.8875 30.215626 145.27812 30.7Q145.66875 31.16875 145.825 31.8875Q145.91875 32.340626 145.91875 33.5125L145.91875 35.85625Q145.91875 38.309376 146.02812 38.965626Q146.1375 39.60625 146.48125 40.2L144.6375 40.2Q144.37187 39.653126 144.29375 38.91875ZM144.1375 34.996876Q143.18437 35.3875 141.2625 35.653126Q140.18437 35.809376 139.73125 36.0125Q139.29375 36.2 139.04375 36.575Q138.79375 36.95 138.79375 37.41875Q138.79375 38.121876 139.325 38.590626Q139.85625 39.059376 140.8875 39.059376Q141.90312 39.059376 142.68437 38.621876Q143.48125 38.16875 143.85625 37.403126Q144.1375 36.79375 144.1375 35.6375L144.1375 34.996876ZM152.35625 38.621876L152.60625 40.184376Q151.87187 40.340626 151.27812 40.340626Q150.325 40.340626 149.79375 40.04375Q149.27812 39.73125 149.05937 39.246876Q148.84062 38.746876 148.84062 37.16875L148.84062 31.2L147.55937 31.2L147.55937 29.825L148.84062 29.825L148.84062 27.2625L150.59062 26.2L150.59062 29.825L152.35625 29.825L152.35625 31.2L150.59062 31.2L150.59062 37.2625Q150.59062 38.0125 150.68437 38.23125Q150.77812 38.434376 150.98125 38.575Q151.2 38.7 151.59062 38.7Q151.87187 38.7 152.35625 38.621876ZM161.62187 36.85625L163.43437 37.090626Q163.0125 38.66875 161.84062 39.559376Q160.68437 40.434376 158.87187 40.434376Q156.60625 40.434376 155.2625 39.04375Q153.93437 37.6375 153.93437 35.10625Q153.93437 32.48125 155.27812 31.04375Q156.62187 29.590626 158.77812 29.590626Q160.85625 29.590626 162.16875 31.0125Q163.49687 32.41875 163.49687 34.996876Q163.49687 35.153126 163.48125 35.465626L155.74687 35.465626Q155.84062 37.16875 156.71562 38.075Q157.59062 38.98125 158.8875 38.98125Q159.85625 38.98125 160.52812 38.48125Q161.21562 37.965626 161.62187 36.85625ZM155.84062 34.0125L161.6375 34.0125Q161.52812 32.715626 160.98125 32.059376Q160.1375 31.04375 158.79375 31.04375Q157.59062 31.04375 156.7625 31.85625Q155.93437 32.653126 155.84062 34.0125ZM165.5125 40.2L165.5125 29.825L167.10625 29.825L167.10625 31.309376Q168.24687 29.590626 170.40312 29.590626Q171.34062 29.590626 172.12187 29.934376Q172.91875 30.2625 173.30937 30.809376Q173.7 31.35625 173.85625 32.10625Q173.95 32.60625 173.95 33.825L173.95 40.2L172.18437 40.2L172.18437 33.8875Q172.18437 32.809376 171.98125 32.278126Q171.77812 31.746876 171.24687 31.434376Q170.73125 31.121876 170.02812 31.121876Q168.90312 31.121876 168.09062 31.840626Q167.27812 32.54375 167.27812 34.528126L167.27812 40.2L165.5125 40.2ZM182.29375 36.403126L184.0125 36.621876Q183.73125 38.41875 182.55937 39.434376Q181.40312 40.434376 179.7 40.434376Q177.575 40.434376 176.27812 39.04375Q174.98125 37.653126 174.98125 35.059376Q174.98125 33.371876 175.52812 32.121876Q176.09062 30.85625 177.23125 30.23125Q178.37187 29.590626 179.71562 29.590626Q181.40312 29.590626 182.46562 30.45Q183.54375 31.309376 183.85625 32.871876L182.1375 33.1375Q181.90312 32.090626 181.27812 31.575Q180.65312 31.04375 179.77812 31.04375Q178.45 31.04375 177.62187 31.996876Q176.79375 32.95 176.79375 34.996876Q176.79375 37.090626 177.59062 38.04375Q178.3875 38.98125 179.68437 38.98125Q180.71562 38.98125 181.40312 38.35625Q182.10625 37.715626 182.29375 36.403126ZM185.43437 44.2L185.24687 42.54375Q185.825 42.7 186.24687 42.7Q186.84062 42.7 187.18437 42.496876Q187.54375 42.309376 187.7625 41.965626Q187.93437 41.7 188.30937 40.653126Q188.35625 40.496876 188.46562 40.215626L184.52812 29.825L186.41875 29.825L188.575 35.840626Q188.99687 36.98125 189.325 38.23125Q189.6375 37.028126 190.04375 35.871876L192.2625 29.825L194.02812 29.825L190.075 40.371876Q189.45 42.090626 189.09062 42.73125Q188.62187 43.60625 188.0125 43.996876Q187.41875 44.403126 186.575 44.403126Q186.05937 44.403126 185.43437 44.2Z" fill-rule="nonzero"/></svg>