<svg version="1.1" viewBox="0.0 0.0 685.0 424.0" fill="none" stroke="none" stroke-linecap="square" stroke-miterlimit="10" width="685" height="424" xmlns:xlink="http://www.w3.org/1999/xlink" xmlns="http://www.w3.org/2000/svg"><path fill="#ffffff" d="M0 0L685.0 0L685.0 424.0L0 424.0L0 0Z" fill-rule="nonzero"/><path stroke="#333333" stroke-width="1.0" stroke-linecap="butt" d="M87.5 350.5L663.5 350.5" fill-rule="nonzero"/><path stroke="#cccccc" stroke-width="1.0" stroke-linecap="butt" d="M87.5 304.5L663.5 304.5" fill-rule="nonzero"/><path stroke="#cccccc" stroke-width="1.0" stroke-linecap="butt" d="M87.5 257.5L663.5 257.5" fill-rule="nonzero"/><path stroke="#cccccc" stroke-width="1.0" stroke-linecap="butt" d="M87.5 211.5L663.5 211.5" fill-rule="nonzero"/><path stroke="#cccccc" stroke-width="1.0" stroke-linecap="butt" d="M87.5 164.5L663.5 164.5" fill-rule="nonzero"/><path stroke="#cccccc" stroke-width="1.0" stroke-linecap="butt" d="M87.5 117.5L663.5 117.5" fill-rule="nonzero"/><clipPath id="id_0"><path d="M87.2 117.96667L663.8 117.96667L663.8 350.8L87.2 350.8L87.2 117.96667Z" clip-rule="nonzero"/></clipPath><path stroke="#000000" stroke-width="2.0" stroke-linecap="butt" stroke-opacity="0.0" clip-path="url(#id_0)" d="M151.0 351.0L136.0 351.0L136.0 170.0C136.0 168.89543 136.89543 168.0 138.0 168.0L149.0 168.0C150.10457 168.0 151.0 168.89543 151.0 170.0Z" fill-rule="nonzero"/><path fill="#4285f4" clip-path="url(#id_0)" d="M151.0 351.0L136.0 351.0L136.0 170.0C136.0 168.89543 136.89543 168.0 138.0 168.0L149.0 168.0C150.10457 168.0 151.0 168.89543 151.0 170.0Z" fill-rule="nonzero"/><path stroke="#000000" stroke-width="2.0" stroke-linecap="butt" stroke-opacity="0.0" clip-path="url(#id_0)" d="M283.0 351.0L268.0 351.0L268.0 172.0C268.0 170.89543 268.89542 170.0 270.0 170.0L281.0 170.0C282.10458 170.0 283.0 170.89543 283.0 172.0Z" fill-rule="nonzero"/><path fill="#4285f4" clip-path="url(#id_0)" d="M283.0 351.0L268.0 351.0L268.0 172.0C268.0 170.89543 268.89542 170.0 270.0 170.0L281.0 170.0C282.10458 170.0 283.0 170.89543 283.0 172.0Z" fill-rule="nonzero"/><path stroke="#000000" stroke-width="2.0" stroke-linecap="butt" stroke-opacity="0.0" clip-path="url(#id_0)" d="M416.0 351.0L401.0 351.0L401.0 173.0C401.0 171.89543 401.89542 171.0 403.0 171.0L414.0 171.0C415.10458 171.0 416.0 171.89543 416.0 173.0Z" fill-rule="nonzero"/><path fill="#4285f4" clip-path="url(#id_0)" d="M416.0 351.0L401.0 351.0L401.0 173.0C401.0 171.89543 401.89542 171.0 403.0 171.0L414.0 171.0C415.10458 171.0 416.0 171.89543 416.0 173.0Z" fill-rule="nonzero"/><path stroke="#000000" stroke-width="2.0" stroke-linecap="butt" stroke-opacity="0.0" clip-path="url(#id_0)" d="M548.0 351.0L533.0 351.0L533.0 173.0C533.0 171.89543 533.89545 171.0 535.0 171.0L546.0 171.0C547.10455 171.0 548.0 171.89543 548.0 173.0Z" fill-rule="nonzero"/><path fill="#4285f4" clip-path="url(#id_0)" d="M548.0 351.0L533.0 351.0L533.0 173.0C533.0 171.89543 533.89545 171.0 535.0 171.0L546.0 171.0C547.10455 171.0 548.0 171.89543 548.0 173.0Z" fill-rule="nonzero"/><path stroke="#000000" stroke-width="2.0" stroke-linecap="butt" stroke-opacity="0.0" clip-path="url(#id_0)" d="M168.0 351.0L153.0 351.0L153.0 150.0C153.0 148.89543 153.89543 148.0 155.0 148.0L166.0 148.0C167.10457 148.0 168.0 148.89543 168.0 150.0Z" fill-rule="nonzero"/><path fill="#ea4335" clip-path="url(#id_0)" d="M168.0 351.0L153.0 351.0L153.0 150.0C153.0 148.89543 153.89543 148.0 155.0 148.0L166.0 148.0C167.10457 148.0 168.0 148.89543 168.0 150.0Z" fill-rule="nonzero"/><path stroke="#000000" stroke-width="2.0" stroke-linecap="butt" stroke-opacity="0.0" clip-path="url(#id_0)" d="M300.0 351.0L285.0 351.0L285.0 160.0C285.0 158.89543 285.89542 158.0 287.0 158.0L298.0 158.0C299.10458 158.0 300.0 158.89543 300.0 160.0Z" fill-rule="nonzero"/><path fill="#ea4335" clip-path="url(#id_0)" d="M300.0 351.0L285.0 351.0L285.0 160.0C285.0 158.89543 285.89542 158.0 287.0 158.0L298.0 158.0C299.10458 158.0 300.0 158.89543 300.0 160.0Z" fill-rule="nonzero"/><path stroke="#000000" stroke-width="2.0" stroke-linecap="butt" stroke-opacity="0.0" clip-path="url(#id_0)" d="M433.0 351.0L418.0 351.0L418.0 164.0C418.0 162.89543 418.89542 162.0 420.0 162.0L431.0 162.0C432.10458 162.0 433.0 162.89543 433.0 164.0Z" fill-rule="nonzero"/><path fill="#ea4335" clip-path="url(#id_0)" d="M433.0 351.0L418.0 351.0L418.0 164.0C418.0 162.89543 418.89542 162.0 420.0 162.0L431.0 162.0C432.10458 162.0 433.0 162.89543 433.0 164.0Z" fill-rule="nonzero"/><path stroke="#000000" stroke-width="2.0" stroke-linecap="butt" stroke-opacity="0.0" clip-path="url(#id_0)" d="M565.0 351.0L550.0 351.0L550.0 166.0C550.0 164.89543 550.89545 164.0 552.0 164.0L563.0 164.0C564.10455 164.0 565.0 164.89543 565.0 166.0Z" fill-rule="nonzero"/><path fill="#ea4335" clip-path="url(#id_0)" d="M565.0 351.0L550.0 351.0L550.0 166.0C550.0 164.89543 550.89545 164.0 552.0 164.0L563.0 164.0C564.10455 164.0 565.0 164.89543 565.0 166.0Z" fill-rule="nonzero"/><path stroke="#000000" stroke-width="2.0" stroke-linecap="butt" stroke-opacity="0.0" clip-path="url(#id_0)" d="M185.0 351.0L170.0 351.0L170.0 166.0C170.0 164.89543 170.89543 164.0 172.0 164.0L183.0 164.0C184.10457 164.0 185.0 164.89543 185.0 166.0Z" fill-rule="nonzero"/><path fill="#fbbc04" clip-path="url(#id_0)" d="M185.0 351.0L170.0 351.0L170.0 166.0C170.0 164.89543 170.89543 164.0 172.0 164.0L183.0 164.0C184.10457 164.0 185.0 164.89543 185.0 166.0Z" fill-rule="nonzero"/><path stroke="#000000" stroke-width="2.0" stroke-linecap="butt" stroke-opacity="0.0" clip-path="url(#id_0)" d="M317.0 351.0L302.0 351.0L302.0 165.0C302.0 163.89543 302.89542 163.0 304.0 163.0L315.0 163.0C316.10458 163.0 317.0 163.89543 317.0 165.0Z" fill-rule="nonzero"/><path fill="#fbbc04" clip-path="url(#id_0)" d="M317.0 351.0L302.0 351.0L302.0 165.0C302.0 163.89543 302.89542 163.0 304.0 163.0L315.0 163.0C316.10458 163.0 317.0 163.89543 317.0 165.0Z" fill-rule="nonzero"/><path stroke="#000000" stroke-width="2.0" stroke-linecap="butt" stroke-opacity="0.0" clip-path="url(#id_0)" d="M450.0 351.0L435.0 351.0L435.0 154.0C435.0 152.89543 435.89542 152.0 437.0 152.0L448.0 152.0C449.10458 152.0 450.0 152.89543 450.0 154.0Z" fill-rule="nonzero"/><path fill="#fbbc04" clip-path="url(#id_0)" d="M450.0 351.0L435.0 351.0L435.0 154.0C435.0 152.89543 435.89542 152.0 437.0 152.0L448.0 152.0C449.10458 152.0 450.0 152.89543 450.0 154.0Z" fill-rule="nonzero"/><path stroke="#000000" stroke-width="2.0" stroke-linecap="butt" stroke-opacity="0.0" clip-path="url(#id_0)" d="M582.0 351.0L567.0 351.0L567.0 165.0C567.0 163.89543 567.89545 163.0 569.0 163.0L580.0 163.0C581.10455 163.0 582.0 163.89543 582.0 165.0Z" fill-rule="nonzero"/><path fill="#fbbc04" clip-path="url(#id_0)" d="M582.0 351.0L567.0 351.0L567.0 165.0C567.0 163.89543 567.89545 163.0 569.0 163.0L580.0 163.0C581.10455 163.0 582.0 163.89543 582.0 165.0Z" fill-rule="nonzero"/><path stroke="#000000" stroke-width="2.0" stroke-linecap="butt" stroke-opacity="0.0" clip-path="url(#id_0)" d="M202.0 351.0L187.0 351.0L187.0 180.0C187.0 178.89543 187.89543 178.0 189.0 178.0L200.0 178.0C201.10457 178.0 202.0 178.89543 202.0 180.0Z" fill-rule="nonzero"/><path fill="#34a853" clip-path="url(#id_0)" d="M202.0 351.0L187.0 351.0L187.0 180.0C187.0 178.89543 187.89543 178.0 189.0 178.0L200.0 178.0C201.10457 178.0 202.0 178.89543 202.0 180.0Z" fill-rule="nonzero"/><path stroke="#000000" stroke-width="2.0" stroke-linecap="butt" stroke-opacity="0.0" clip-path="url(#id_0)" d="M334.0 351.0L319.0 351.0L319.0 172.0C319.0 170.89543 319.89542 170.0 321.0 170.0L332.0 170.0C333.10458 170.0 334.0 170.89543 334.0 172.0Z" fill-rule="nonzero"/><path fill="#34a853" clip-path="url(#id_0)" d="M334.0 351.0L319.0 351.0L319.0 172.0C319.0 170.89543 319.89542 170.0 321.0 170.0L332.0 170.0C333.10458 170.0 334.0 170.89543 334.0 172.0Z" fill-rule="nonzero"/><path stroke="#000000" stroke-width="2.0" stroke-linecap="butt" stroke-opacity="0.0" clip-path="url(#id_0)" d="M467.0 351.0L452.0 351.0L452.0 171.0C452.0 169.89543 452.89542 169.0 454.0 169.0L465.0 169.0C466.10458 169.0 467.0 169.89543 467.0 171.0Z" fill-rule="nonzero"/><path fill="#34a853" clip-path="url(#id_0)" d="M467.0 351.0L452.0 351.0L452.0 171.0C452.0 169.89543 452.89542 169.0 454.0 169.0L465.0 169.0C466.10458 169.0 467.0 169.89543 467.0 171.0Z" fill-rule="nonzero"/><path stroke="#000000" stroke-width="2.0" stroke-linecap="butt" stroke-opacity="0.0" clip-path="url(#id_0)" d="M599.0 351.0L584.0 351.0L584.0 165.0C584.0 163.89543 584.89545 163.0 586.0 163.0L597.0 163.0C598.10455 163.0 599.0 163.89543 599.0 165.0Z" fill-rule="nonzero"/><path fill="#34a853" clip-path="url(#id_0)" d="M599.0 351.0L584.0 351.0L584.0 165.0C584.0 163.89543 584.89545 163.0 586.0 163.0L597.0 163.0C598.10455 163.0 599.0 163.89543 599.0 165.0Z" fill-rule="nonzero"/><path stroke="#000000" stroke-width="2.0" stroke-linecap="butt" stroke-opacity="0.0" clip-path="url(#id_0)" d="M219.0 351.0L204.0 351.0L204.0 167.0C204.0 165.89543 204.89543 165.0 206.0 165.0L217.0 165.0C218.10457 165.0 219.0 165.89543 219.0 167.0Z" fill-rule="nonzero"/><path fill="#ff6d01" clip-path="url(#id_0)" d="M219.0 351.0L204.0 351.0L204.0 167.0C204.0 165.89543 204.89543 165.0 206.0 165.0L217.0 165.0C218.10457 165.0 219.0 165.89543 219.0 167.0Z" fill-rule="nonzero"/><path stroke="#000000" stroke-width="2.0" stroke-linecap="butt" stroke-opacity="0.0" clip-path="url(#id_0)" d="M351.0 351.0L336.0 351.0L336.0 167.0C336.0 165.89543 336.89542 165.0 338.0 165.0L349.0 165.0C350.10458 165.0 351.0 165.89543 351.0 167.0Z" fill-rule="nonzero"/><path fill="#ff6d01" clip-path="url(#id_0)" d="M351.0 351.0L336.0 351.0L336.0 167.0C336.0 165.89543 336.89542 165.0 338.0 165.0L349.0 165.0C350.10458 165.0 351.0 165.89543 351.0 167.0Z" fill-rule="nonzero"/><path stroke="#000000" stroke-width="2.0" stroke-linecap="butt" stroke-opacity="0.0" clip-path="url(#id_0)" d="M484.0 351.0L469.0 351.0L469.0 173.0C469.0 171.89543 469.89542 171.0 471.0 171.0L482.0 171.0C483.10458 171.0 484.0 171.89543 484.0 173.0Z" fill-rule="nonzero"/><path fill="#ff6d01" clip-path="url(#id_0)" d="M484.0 351.0L469.0 351.0L469.0 173.0C469.0 171.89543 469.89542 171.0 471.0 171.0L482.0 171.0C483.10458 171.0 484.0 171.89543 484.0 173.0Z" fill-rule="nonzero"/><path stroke="#000000" stroke-width="2.0" stroke-linecap="butt" stroke-opacity="0.0" clip-path="url(#id_0)" d="M616.0 351.0L601.0 351.0L601.0 185.0C601.0 183.89543 601.89545 183.0 603.0 183.0L614.0 183.0C615.10455 183.0 616.0 183.89543 616.0 185.0Z" fill-rule="nonzero"/><path fill="#ff6d01" clip-path="url(#id_0)" d="M616.0 351.0L601.0 351.0L601.0 185.0C601.0 183.89543 601.89545 183.0 603.0 183.0L614.0 183.0C615.10455 183.0 616.0 183.89543 616.0 185.0Z" fill-rule="nonzero"/><path fill="#000000" d="M327.42188 399.8L327.42188 391.20624L330.39062 391.20624Q331.39062 391.20624 331.92188 391.33124Q332.65625 391.5031 333.17188 391.9406Q333.85938 392.51874 334.1875 393.425Q334.53125 394.3156 334.53125 395.45624Q334.53125 396.4406 334.29688 397.1906Q334.07812 397.9406 333.71875 398.4406Q333.35938 398.9406 332.92188 399.22186Q332.5 399.5031 331.90625 399.65936Q331.3125 399.8 330.53125 399.8L327.42188 399.8ZM328.5625 398.78436L330.39062 398.78436Q331.25 398.78436 331.73438 398.6281Q332.21875 398.47186 332.5 398.175Q332.90625 397.78436 333.125 397.09686Q333.35938 396.40936 333.35938 395.4406Q333.35938 394.09686 332.90625 393.3781Q332.46875 392.64374 331.84375 392.39374Q331.375 392.22186 330.375 392.22186L328.5625 392.22186L328.5625 398.78436ZM336.375 399.8L336.375 391.20624L339.60938 391.20624Q340.59375 391.20624 341.1875 391.47186Q341.78125 391.7375 342.10938 392.28436Q342.45312 392.8156 342.45312 393.40936Q342.45312 393.95624 342.15625 394.4406Q341.85938 394.925 341.25 395.22186Q342.03125 395.45624 342.4375 396.01874Q342.85938 396.5656 342.85938 397.3156Q342.85938 397.90936 342.60938 398.4406Q342.35938 398.95624 341.98438 399.2375Q341.60938 399.51874 341.03125 399.65936Q340.46875 399.8 339.65625 399.8L336.375 399.8ZM337.51562 394.8156L339.375 394.8156Q340.125 394.8156 340.45312 394.72186Q340.89062 394.59686 341.10938 394.3Q341.32812 393.9875 341.32812 393.53436Q341.32812 393.1125 341.125 392.78436Q340.92188 392.45624 340.53125 392.34686Q340.15625 392.22186 339.23438 392.22186L337.51562 392.22186L337.51562 394.8156ZM337.51562 398.78436L339.65625 398.78436Q340.20312 398.78436 340.42188 398.7375Q340.82812 398.675 341.07812 398.51874Q341.34375 398.34686 341.51562 398.03436Q341.6875 397.72186 341.6875 397.3156Q341.6875 396.83124 341.4375 396.47186Q341.20312 396.1125 340.76562 395.97186Q340.32812 395.83124 339.5 395.83124L337.51562 395.83124L337.51562 398.78436ZM347.29688 402.1906L347.29688 393.58124L348.25 393.58124L348.25 394.3781Q348.59375 393.90936 349.01562 393.675Q349.45312 393.4406 350.0625 393.4406Q350.85938 393.4406 351.46875 393.84686Q352.07812 394.2531 352.375 395.0031Q352.6875 395.7531 352.6875 396.64374Q352.6875 397.59686 352.34375 398.3625Q352.01562 399.1281 351.35938 399.53436Q350.70312 399.9406 349.98438 399.9406Q349.45312 399.9406 349.03125 399.72186Q348.60938 399.4875 348.34375 399.15936L348.34375 402.1906L347.29688 402.1906ZM348.25 396.72186Q348.25 397.925 348.73438 398.5031Q349.21875 399.0656 349.90625 399.0656Q350.60938 399.0656 351.10938 398.47186Q351.60938 397.8781 351.60938 396.6281Q351.60938 395.4406 351.125 394.8625Q350.64062 394.26874 349.95312 394.26874Q349.28125 394.26874 348.76562 394.89374Q348.25 395.51874 348.25 396.72186ZM353.90625 396.6906Q353.90625 394.95624 354.85938 394.1281Q355.65625 393.4406 356.8125 393.4406Q358.09375 393.4406 358.90625 394.28436Q359.73438 395.1125 359.73438 396.59686Q359.73438 397.8 359.375 398.4875Q359.01562 399.175 358.3125 399.5656Q357.625 399.9406 356.8125 399.9406Q355.51562 399.9406 354.70312 399.1125Q353.90625 398.26874 353.90625 396.6906ZM354.98438 396.6906Q354.98438 397.8781 355.5 398.47186Q356.03125 399.0656 356.8125 399.0656Q357.60938 399.0656 358.125 398.47186Q358.64062 397.8781 358.64062 396.65936Q358.64062 395.5031 358.10938 394.90936Q357.59375 394.3156 356.8125 394.3156Q356.03125 394.3156 355.5 394.90936Q354.98438 395.4875 354.98438 396.6906ZM360.90625 396.6906Q360.90625 394.95624 361.85938 394.1281Q362.65625 393.4406 363.8125 393.4406Q365.09375 393.4406 365.90625 394.28436Q366.73438 395.1125 366.73438 396.59686Q366.73438 397.8 366.375 398.4875Q366.01562 399.175 365.3125 399.5656Q364.625 399.9406 363.8125 399.9406Q362.51562 399.9406 361.70312 399.1125Q360.90625 398.26874 360.90625 396.6906ZM361.98438 396.6906Q361.98438 397.8781 362.5 398.47186Q363.03125 399.0656 363.8125 399.0656Q364.60938 399.0656 365.125 398.47186Q365.64062 397.8781 365.64062 396.65936Q365.64062 395.5031 365.10938 394.90936Q364.59375 394.3156 363.8125 394.3156Q363.03125 394.3156 362.5 394.90936Q361.98438 395.4875 361.98438 396.6906ZM368.26562 399.8L368.26562 391.20624L369.32812 391.20624L369.32812 399.8L368.26562 399.8ZM374.29688 399.8L374.29688 393.58124L375.23438 393.58124L375.23438 394.45624Q375.53125 393.9875 376.01562 393.72186Q376.5 393.4406 377.125 393.4406Q377.8125 393.4406 378.25 393.72186Q378.70312 394.0031 378.875 394.51874Q379.625 393.4406 380.79688 393.4406Q381.73438 393.4406 382.21875 393.95624Q382.71875 394.45624 382.71875 395.53436L382.71875 399.8L381.67188 399.8L381.67188 395.8781Q381.67188 395.2531 381.5625 394.97186Q381.46875 394.6906 381.20312 394.51874Q380.9375 394.34686 380.5625 394.34686Q379.90625 394.34686 379.46875 394.78436Q379.04688 395.22186 379.04688 396.1906L379.04688 399.8L377.98438 399.8L377.98438 395.7531Q377.98438 395.05 377.71875 394.70624Q377.46875 394.34686 376.89062 394.34686Q376.4375 394.34686 376.0625 394.58124Q375.6875 394.8156 375.51562 395.26874Q375.34375 395.72186 375.34375 396.5656L375.34375 399.8L374.29688 399.8ZM389.375 399.8L389.375 398.8781Q388.64062 399.9406 387.39062 399.9406Q386.84375 399.9406 386.35938 399.7375Q385.89062 399.51874 385.65625 399.20624Q385.42188 398.8781 385.32812 398.40936Q385.26562 398.1125 385.26562 397.425L385.26562 393.58124L386.32812 393.58124L386.32812 397.03436Q386.32812 397.84686 386.39062 398.14374Q386.48438 398.55 386.79688 398.8Q387.125 399.03436 387.60938 399.03436Q388.07812 399.03436 388.48438 398.8Q388.90625 398.55 389.07812 398.1281Q389.26562 397.70624 389.26562 396.90936L389.26562 393.58124L390.3125 393.58124L390.3125 399.8L389.375 399.8ZM392.26562 399.8L392.26562 391.20624L393.32812 391.20624L393.32812 399.8L392.26562 399.8ZM397.59375 398.8625L397.75 399.78436Q397.29688 399.8781 396.95312 399.8781Q396.375 399.8781 396.0625 399.70624Q395.75 399.51874 395.60938 399.22186Q395.48438 398.925 395.48438 397.97186L395.48438 394.39374L394.71875 394.39374L394.71875 393.58124L395.48438 393.58124L395.48438 392.03436L396.53125 391.40936L396.53125 393.58124L397.59375 393.58124L397.59375 394.39374L396.53125 394.39374L396.53125 398.03436Q396.53125 398.4875 396.57812 398.6125Q396.64062 398.7375 396.76562 398.8156Q396.89062 398.89374 397.125 398.89374Q397.3125 398.89374 397.59375 398.8625ZM398.29688 392.425L398.29688 391.20624L399.35938 391.20624L399.35938 392.425L398.29688 392.425ZM398.29688 399.8L398.29688 393.58124L399.35938 393.58124L399.35938 399.8L398.29688 399.8ZM401.29688 402.1906L401.29688 393.58124L402.25 393.58124L402.25 394.3781Q402.59375 393.90936 403.01562 393.675Q403.45312 393.4406 404.0625 393.4406Q404.85938 393.4406 405.46875 393.84686Q406.07812 394.2531 406.375 395.0031Q406.6875 395.7531 406.6875 396.64374Q406.6875 397.59686 406.34375 398.3625Q406.01562 399.1281 405.35938 399.53436Q404.70312 399.9406 403.98438 399.9406Q403.45312 399.9406 403.03125 399.72186Q402.60938 399.4875 402.34375 399.15936L402.34375 402.1906L401.29688 402.1906ZM402.25 396.72186Q402.25 397.925 402.73438 398.5031Q403.21875 399.0656 403.90625 399.0656Q404.60938 399.0656 405.10938 398.47186Q405.60938 397.8781 405.60938 396.6281Q405.60938 395.4406 405.125 394.8625Q404.64062 394.26874 403.95312 394.26874Q403.28125 394.26874 402.76562 394.89374Q402.25 395.51874 402.25 396.72186ZM408.26562 399.8L408.26562 391.20624L409.32812 391.20624L409.32812 399.8L408.26562 399.8ZM411.29688 392.425L411.29688 391.20624L412.35938 391.20624L412.35938 392.425L411.29688 392.425ZM411.29688 399.8L411.29688 393.58124L412.35938 393.58124L412.35938 399.8L411.29688 399.8ZM418.54688 397.8L419.64062 397.925Q419.39062 398.8781 418.6875 399.40936Q417.98438 399.9406 416.90625 399.9406Q415.54688 399.9406 414.73438 399.09686Q413.9375 398.2531 413.9375 396.7375Q413.9375 395.175 414.75 394.3156Q415.5625 393.4406 416.84375 393.4406Q418.09375 393.4406 418.875 394.28436Q419.67188 395.1281 419.67188 396.675Q419.67188 396.76874 419.67188 396.95624L415.03125 396.95624Q415.09375 397.9875 415.60938 398.53436Q416.125 399.0656 416.90625 399.0656Q417.48438 399.0656 417.89062 398.76874Q418.3125 398.45624 418.54688 397.8ZM415.09375 396.09686L418.5625 396.09686Q418.5 395.3 418.17188 394.90936Q417.65625 394.3 416.85938 394.3Q416.125 394.3 415.625 394.78436Q415.14062 395.26874 415.09375 396.09686ZM421.28125 399.8L421.28125 393.58124L422.23438 393.58124L422.23438 394.51874Q422.59375 393.8625 422.89062 393.65936Q423.20312 393.4406 423.57812 393.4406Q424.10938 393.4406 424.65625 393.76874L424.29688 394.7531Q423.90625 394.51874 423.53125 394.51874Q423.17188 394.51874 422.89062 394.7375Q422.625 394.9406 422.51562 395.3156Q422.32812 395.8781 422.32812 396.53436L422.32812 399.8L421.28125 399.8Z" fill-rule="nonzero"/><path fill="#000000" d="M32.19999 252.44583L23.606237 252.44583L23.606237 248.63333Q23.606237 247.47708 23.840612 246.88333Q24.074987 246.28958 24.668737 245.9302Q25.246862 245.57083 25.949987 245.57083Q26.871862 245.57083 27.496862 246.16458Q28.121862 246.75833 28.293737 247.9927Q28.512487 247.53958 28.715612 247.3052Q29.168737 246.8052 29.856237 246.3677L32.19999 244.8677L32.19999 246.3052L30.418737 247.4302Q29.637487 247.9302 29.231237 248.25833Q28.824987 248.57083 28.668737 248.83646Q28.496862 249.08646 28.418737 249.35208Q28.387487 249.53958 28.387487 249.97708L28.387487 251.3052L32.19999 251.3052L32.19999 252.44583ZM27.403112 251.3052L27.403112 248.85208Q27.403112 248.08646 27.246862 247.64896Q27.074987 247.19583 26.731237 246.97708Q26.371862 246.7427 25.949987 246.7427Q25.340612 246.7427 24.949987 247.19583Q24.559362 247.63333 24.559362 248.58646L24.559362 251.3052L27.403112 251.3052ZM32.19999 243.46146L23.606237 243.46146L23.606237 240.21146Q23.606237 239.3677 23.684362 238.91458Q23.793737 238.27396 24.090612 237.85208Q24.387487 237.41458 24.918737 237.16458Q25.449987 236.89896 26.090612 236.89896Q27.184362 236.89896 27.949987 237.60208Q28.699987 238.28958 28.699987 240.1177L28.699987 242.32083L32.19999 242.32083L32.19999 243.46146ZM27.699987 242.32083L27.699987 240.10208Q27.699987 238.9927 27.293737 238.53958Q26.871862 238.07083 26.121862 238.07083Q25.590612 238.07083 25.215612 238.35208Q24.824987 238.6177 24.699987 239.0552Q24.621862 239.35208 24.621862 240.1177L24.621862 242.32083L27.699987 242.32083ZM29.434362 235.83646L29.340612 234.77396Q29.996862 234.69583 30.403112 234.41458Q30.809362 234.13333 31.074987 233.5552Q31.324987 232.96146 31.324987 232.22708Q31.324987 231.58646 31.137487 231.08646Q30.934362 230.58646 30.606237 230.35208Q30.262487 230.10208 29.871862 230.10208Q29.465612 230.10208 29.168737 230.33646Q28.856237 230.57083 28.653112 231.10208Q28.512487 231.46146 28.231237 232.64896Q27.949987 233.82083 27.699987 234.28958Q27.371862 234.91458 26.903112 235.21146Q26.418737 235.50833 25.824987 235.50833Q25.184362 235.50833 24.621862 235.14896Q24.043737 234.77396 23.762487 234.07083Q23.465612 233.35208 23.465612 232.4927Q23.465612 231.53958 23.778112 230.8052Q24.074987 230.07083 24.684362 229.6802Q25.278112 229.28958 26.028112 229.25833L26.106237 230.35208Q25.293737 230.44583 24.887487 230.96146Q24.465612 231.46146 24.465612 232.44583Q24.465612 233.47708 24.840612 233.94583Q25.215612 234.41458 25.746862 234.41458Q26.215612 234.41458 26.512487 234.08646Q26.809362 233.75833 27.121862 232.38333Q27.434362 230.9927 27.668737 230.47708Q28.028112 229.72708 28.559362 229.3677Q29.074987 229.00833 29.778112 229.00833Q30.465612 229.00833 31.074987 229.39896Q31.668737 229.78958 32.01249 230.52396Q32.340614 231.25833 32.340614 232.1802Q32.340614 233.35208 32.01249 234.14896Q31.668737 234.9302 30.981237 235.38333Q30.293737 235.82083 29.434362 235.83646Z" fill-rule="nonzero"/><path fill="#000000" d="M74.7 350.5656Q74.7 349.03436 75.0125 348.1125Q75.325 347.175 75.93437 346.675Q76.55937 346.175 77.49687 346.175Q78.18437 346.175 78.7 346.45624Q79.23125 346.7375 79.575 347.26874Q79.91875 347.78436 80.10625 348.53436Q80.29375 349.28436 80.29375 350.5656Q80.29375 352.08124 79.98125 353.0031Q79.68437 353.925 79.05937 354.4406Q78.45 354.9406 77.49687 354.9406Q76.2625 354.9406 75.54375 354.05Q74.7 352.9875 74.7 350.5656ZM75.77812 350.5656Q75.77812 352.675 76.27812 353.3781Q76.77812 354.08124 77.49687 354.08124Q78.23125 354.08124 78.71562 353.3781Q79.21562 352.675 79.21562 350.5656Q79.21562 348.4406 78.71562 347.7531Q78.23125 347.05 77.48125 347.05Q76.7625 347.05 76.325 347.65936Q75.77812 348.4406 75.77812 350.5656Z" fill-rule="nonzero"/><path fill="#000000" d="M57.66875 308.23334L56.621876 308.23334L56.621876 301.5146Q56.23125 301.87396 55.60625 302.24896Q54.996876 302.60834 54.5125 302.7802L54.5125 301.7646Q55.3875 301.3427 56.04375 300.7646Q56.715626 300.17084 56.996876 299.60834L57.66875 299.60834L57.66875 308.23334ZM60.7 303.99896Q60.7 302.4677 61.0125 301.54584Q61.325 300.60834 61.934376 300.10834Q62.559376 299.60834 63.496876 299.60834Q64.18437 299.60834 64.7 299.8896Q65.23125 300.17084 65.575 300.7021Q65.91875 301.2177 66.10625 301.9677Q66.29375 302.7177 66.29375 303.99896Q66.29375 305.5146 65.98125 306.43646Q65.68437 307.35834 65.05937 307.87396Q64.45 308.37396 63.496876 308.37396Q62.2625 308.37396 61.54375 307.48334Q60.7 306.42084 60.7 303.99896ZM61.778126 303.99896Q61.778126 306.10834 62.278126 306.81146Q62.778126 307.5146 63.496876 307.5146Q64.23125 307.5146 64.71562 306.81146Q65.21562 306.10834 65.21562 303.99896Q65.21562 301.87396 64.71562 301.18646Q64.23125 300.48334 63.48125 300.48334Q62.7625 300.48334 62.325 301.0927Q61.778126 301.87396 61.778126 303.99896ZM67.7 303.99896Q67.7 302.4677 68.0125 301.54584Q68.325 300.60834 68.93437 300.10834Q69.55937 299.60834 70.49687 299.60834Q71.18437 299.60834 71.7 299.8896Q72.23125 300.17084 72.575 300.7021Q72.91875 301.2177 73.10625 301.9677Q73.29375 302.7177 73.29375 303.99896Q73.29375 305.5146 72.98125 306.43646Q72.68437 307.35834 72.05937 307.87396Q71.45 308.37396 70.49687 308.37396Q69.2625 308.37396 68.54375 307.48334Q67.7 306.42084 67.7 303.99896ZM68.77812 303.99896Q68.77812 306.10834 69.27812 306.81146Q69.77812 307.5146 70.49687 307.5146Q71.23125 307.5146 71.71562 306.81146Q72.21562 306.10834 72.21562 303.99896Q72.21562 301.87396 71.71562 301.18646Q71.23125 300.48334 70.48125 300.48334Q69.7625 300.48334 69.325 301.0927Q68.77812 301.87396 68.77812 303.99896ZM74.7 303.99896Q74.7 302.4677 75.0125 301.54584Q75.325 300.60834 75.93437 300.10834Q76.55937 299.60834 77.49687 299.60834Q78.18437 299.60834 78.7 299.8896Q79.23125 300.17084 79.575 300.7021Q79.91875 301.2177 80.10625 301.9677Q80.29375 302.7177 80.29375 303.99896Q80.29375 305.5146 79.98125 306.43646Q79.68437 307.35834 79.05937 307.87396Q78.45 308.37396 77.49687 308.37396Q76.2625 308.37396 75.54375 307.48334Q74.7 306.42084 74.7 303.99896ZM75.77812 303.99896Q75.77812 306.10834 76.27812 306.81146Q76.77812 307.5146 77.49687 307.5146Q78.23125 307.5146 78.71562 306.81146Q79.21562 306.10834 79.21562 303.99896Q79.21562 301.87396 78.71562 301.18646Q78.23125 300.48334 77.48125 300.48334Q76.7625 300.48334 76.325 301.0927Q75.77812 301.87396 75.77812 303.99896Z" fill-rule="nonzero"/><path fill="#000000" d="M59.246876 260.65103L59.246876 261.66666L53.559376 261.66666Q53.559376 261.29166 53.684376 260.93228Q53.903126 260.35416 54.371876 259.79166Q54.85625 259.22916 55.7625 258.49478Q57.16875 257.33853 57.653126 256.66666Q58.153126 255.99478 58.153126 255.40103Q58.153126 254.77603 57.7 254.35416Q57.246876 253.91666 56.528126 253.91666Q55.7625 253.91666 55.309376 254.36978Q54.85625 254.8229 54.840626 255.6354L53.7625 255.52603Q53.871876 254.30728 54.590626 253.68228Q55.325 253.04166 56.559376 253.04166Q57.79375 253.04166 58.5125 253.72916Q59.23125 254.41666 59.23125 255.43228Q59.23125 255.9479 59.0125 256.4479Q58.809376 256.93228 58.309376 257.49478Q57.825 258.04166 56.7 258.99478Q55.746876 259.79166 55.465626 260.08853Q55.2 260.36978 55.028126 260.65103L59.246876 260.65103ZM60.7 257.43228Q60.7 255.90103 61.0125 254.97916Q61.325 254.04166 61.934376 253.54166Q62.559376 253.04166 63.496876 253.04166Q64.18437 253.04166 64.7 253.3229Q65.23125 253.60416 65.575 254.1354Q65.91875 254.65103 66.10625 255.40103Q66.29375 256.15103 66.29375 257.43228Q66.29375 258.9479 65.98125 259.86978Q65.68437 260.79166 65.05937 261.30728Q64.45 261.80728 63.496876 261.80728Q62.2625 261.80728 61.54375 260.91666Q60.7 259.85416 60.7 257.43228ZM61.778126 257.43228Q61.778126 259.54166 62.278126 260.24478Q62.778126 260.9479 63.496876 260.9479Q64.23125 260.9479 64.71562 260.24478Q65.21562 259.54166 65.21562 257.43228Q65.21562 255.30728 64.71562 254.61978Q64.23125 253.91666 63.48125 253.91666Q62.7625 253.91666 62.325 254.52603Q61.778126 255.30728 61.778126 257.43228ZM67.7 257.43228Q67.7 255.90103 68.0125 254.97916Q68.325 254.04166 68.93437 253.54166Q69.55937 253.04166 70.49687 253.04166Q71.18437 253.04166 71.7 253.3229Q72.23125 253.60416 72.575 254.1354Q72.91875 254.65103 73.10625 255.40103Q73.29375 256.15103 73.29375 257.43228Q73.29375 258.9479 72.98125 259.86978Q72.68437 260.79166 72.05937 261.30728Q71.45 261.80728 70.49687 261.80728Q69.2625 261.80728 68.54375 260.91666Q67.7 259.85416 67.7 257.43228ZM68.77812 257.43228Q68.77812 259.54166 69.27812 260.24478Q69.77812 260.9479 70.49687 260.9479Q71.23125 260.9479 71.71562 260.24478Q72.21562 259.54166 72.21562 257.43228Q72.21562 255.30728 71.71562 254.61978Q71.23125 253.91666 70.48125 253.91666Q69.7625 253.91666 69.325 254.52603Q68.77812 255.30728 68.77812 257.43228ZM74.7 257.43228Q74.7 255.90103 75.0125 254.97916Q75.325 254.04166 75.93437 253.54166Q76.55937 253.04166 77.49687 253.04166Q78.18437 253.04166 78.7 253.3229Q79.23125 253.60416 79.575 254.1354Q79.91875 254.65103 80.10625 255.40103Q80.29375 256.15103 80.29375 257.43228Q80.29375 258.9479 79.98125 259.86978Q79.68437 260.79166 79.05937 261.30728Q78.45 261.80728 77.49687 261.80728Q76.2625 261.80728 75.54375 260.91666Q74.7 259.85416 74.7 257.43228ZM75.77812 257.43228Q75.77812 259.54166 76.27812 260.24478Q76.77812 260.9479 77.49687 260.9479Q78.23125 260.9479 78.71562 260.24478Q79.21562 259.54166 79.21562 257.43228Q79.21562 255.30728 78.71562 254.61978Q78.23125 253.91666 77.48125 253.91666Q76.7625 253.91666 76.325 254.52603Q75.77812 255.30728 75.77812 257.43228Z" fill-rule="nonzero"/><path fill="#000000" d="M53.7 212.83438L54.7625 212.69376Q54.934376 213.58438 55.371876 213.99063Q55.809376 214.38126 56.434376 214.38126Q57.184376 214.38126 57.7 213.86563Q58.215626 213.35 58.215626 212.58438Q58.215626 211.86563 57.73125 211.39688Q57.2625 210.9125 56.528126 210.9125Q56.23125 210.9125 55.778126 211.0375L55.903126 210.1Q56.0125 210.11563 56.075 210.11563Q56.746876 210.11563 57.278126 209.77188Q57.825 209.4125 57.825 208.67813Q57.825 208.1 57.434376 207.725Q57.04375 207.33438 56.41875 207.33438Q55.809376 207.33438 55.3875 207.725Q54.98125 208.11563 54.871876 208.88126L53.809376 208.69376Q53.996876 207.64688 54.684376 207.06876Q55.371876 206.475 56.3875 206.475Q57.090626 206.475 57.684376 206.7875Q58.278126 207.08438 58.590626 207.6Q58.903126 208.11563 58.903126 208.70938Q58.903126 209.25626 58.60625 209.725Q58.309376 210.17813 57.73125 210.44376Q58.48125 210.61563 58.903126 211.17813Q59.325 211.725 59.325 212.56876Q59.325 213.69376 58.496876 214.475Q57.684376 215.25626 56.434376 215.25626Q55.309376 215.25626 54.559376 214.58438Q53.809376 213.89688 53.7 212.83438ZM60.7 210.86563Q60.7 209.33438 61.0125 208.4125Q61.325 207.475 61.934376 206.975Q62.559376 206.475 63.496876 206.475Q64.18437 206.475 64.7 206.75626Q65.23125 207.0375 65.575 207.56876Q65.91875 208.08438 66.10625 208.83438Q66.29375 209.58438 66.29375 210.86563Q66.29375 212.38126 65.98125 213.30313Q65.68437 214.225 65.05937 214.74063Q64.45 215.24063 63.496876 215.24063Q62.2625 215.24063 61.54375 214.35Q60.7 213.2875 60.7 210.86563ZM61.778126 210.86563Q61.778126 212.975 62.278126 213.67813Q62.778126 214.38126 63.496876 214.38126Q64.23125 214.38126 64.71562 213.67813Q65.21562 212.975 65.21562 210.86563Q65.21562 208.74063 64.71562 208.05313Q64.23125 207.35 63.48125 207.35Q62.7625 207.35 62.325 207.95938Q61.778126 208.74063 61.778126 210.86563ZM67.7 210.86563Q67.7 209.33438 68.0125 208.4125Q68.325 207.475 68.93437 206.975Q69.55937 206.475 70.49687 206.475Q71.18437 206.475 71.7 206.75626Q72.23125 207.0375 72.575 207.56876Q72.91875 208.08438 73.10625 208.83438Q73.29375 209.58438 73.29375 210.86563Q73.29375 212.38126 72.98125 213.30313Q72.68437 214.225 72.05937 214.74063Q71.45 215.24063 70.49687 215.24063Q69.2625 215.24063 68.54375 214.35Q67.7 213.2875 67.7 210.86563ZM68.77812 210.86563Q68.77812 212.975 69.27812 213.67813Q69.77812 214.38126 70.49687 214.38126Q71.23125 214.38126 71.71562 213.67813Q72.21562 212.975 72.21562 210.86563Q72.21562 208.74063 71.71562 208.05313Q71.23125 207.35 70.48125 207.35Q69.7625 207.35 69.325 207.95938Q68.77812 208.74063 68.77812 210.86563ZM74.7 210.86563Q74.7 209.33438 75.0125 208.4125Q75.325 207.475 75.93437 206.975Q76.55937 206.475 77.49687 206.475Q78.18437 206.475 78.7 206.75626Q79.23125 207.0375 79.575 207.56876Q79.91875 208.08438 80.10625 208.83438Q80.29375 209.58438 80.29375 210.86563Q80.29375 212.38126 79.98125 213.30313Q79.68437 214.225 79.05937 214.74063Q78.45 215.24063 77.49687 215.24063Q76.2625 215.24063 75.54375 214.35Q74.7 213.2875 74.7 210.86563ZM75.77812 210.86563Q75.77812 212.975 76.27812 213.67813Q76.77812 214.38126 77.49687 214.38126Q78.23125 214.38126 78.71562 213.67813Q79.21562 212.975 79.21562 210.86563Q79.21562 208.74063 78.71562 208.05313Q78.23125 207.35 77.48125 207.35Q76.7625 207.35 76.325 207.95938Q75.77812 208.74063 75.77812 210.86563Z" fill-rule="nonzero"/><path fill="#000000" d="M57.075 168.53334L57.075 166.47084L53.35625 166.47084L53.35625 165.50209L57.278126 159.93959L58.1375 159.93959L58.1375 165.50209L59.29375 165.50209L59.29375 166.47084L58.1375 166.47084L58.1375 168.53334L57.075 168.53334ZM57.075 165.50209L57.075 161.64272L54.3875 165.50209L57.075 165.50209ZM60.7 164.29897Q60.7 162.76772 61.0125 161.84584Q61.325 160.90834 61.934376 160.40834Q62.559376 159.90834 63.496876 159.90834Q64.18437 159.90834 64.7 160.18959Q65.23125 160.47084 65.575 161.00209Q65.91875 161.51772 66.10625 162.26772Q66.29375 163.01772 66.29375 164.29897Q66.29375 165.81459 65.98125 166.73647Q65.68437 167.65834 65.05937 168.17397Q64.45 168.67397 63.496876 168.67397Q62.2625 168.67397 61.54375 167.78334Q60.7 166.72084 60.7 164.29897ZM61.778126 164.29897Q61.778126 166.40834 62.278126 167.11147Q62.778126 167.81459 63.496876 167.81459Q64.23125 167.81459 64.71562 167.11147Q65.21562 166.40834 65.21562 164.29897Q65.21562 162.17397 64.71562 161.48647Q64.23125 160.78334 63.48125 160.78334Q62.7625 160.78334 62.325 161.39272Q61.778126 162.17397 61.778126 164.29897ZM67.7 164.29897Q67.7 162.76772 68.0125 161.84584Q68.325 160.90834 68.93437 160.40834Q69.55937 159.90834 70.49687 159.90834Q71.18437 159.90834 71.7 160.18959Q72.23125 160.47084 72.575 161.00209Q72.91875 161.51772 73.10625 162.26772Q73.29375 163.01772 73.29375 164.29897Q73.29375 165.81459 72.98125 166.73647Q72.68437 167.65834 72.05937 168.17397Q71.45 168.67397 70.49687 168.67397Q69.2625 168.67397 68.54375 167.78334Q67.7 166.72084 67.7 164.29897ZM68.77812 164.29897Q68.77812 166.40834 69.27812 167.11147Q69.77812 167.81459 70.49687 167.81459Q71.23125 167.81459 71.71562 167.11147Q72.21562 166.40834 72.21562 164.29897Q72.21562 162.17397 71.71562 161.48647Q71.23125 160.78334 70.48125 160.78334Q69.7625 160.78334 69.325 161.39272Q68.77812 162.17397 68.77812 164.29897ZM74.7 164.29897Q74.7 162.76772 75.0125 161.84584Q75.325 160.90834 75.93437 160.40834Q76.55937 159.90834 77.49687 159.90834Q78.18437 159.90834 78.7 160.18959Q79.23125 160.47084 79.575 161.00209Q79.91875 161.51772 80.10625 162.26772Q80.29375 163.01772 80.29375 164.29897Q80.29375 165.81459 79.98125 166.73647Q79.68437 167.65834 79.05937 168.17397Q78.45 168.67397 77.49687 168.67397Q76.2625 168.67397 75.54375 167.78334Q74.7 166.72084 74.7 164.29897ZM75.77812 164.29897Q75.77812 166.40834 76.27812 167.11147Q76.77812 167.81459 77.49687 167.81459Q78.23125 167.81459 78.71562 167.11147Q79.21562 166.40834 79.21562 164.29897Q79.21562 162.17397 78.71562 161.48647Q78.23125 160.78334 77.48125 160.78334Q76.7625 160.78334 76.325 161.39272Q75.77812 162.17397 75.77812 164.29897Z" fill-rule="nonzero"/><path fill="#000000" d="M53.7 119.71667L54.809376 119.62292Q54.934376 120.43542 55.371876 120.84167Q55.825 121.24792 56.465626 121.24792Q57.215626 121.24792 57.746876 120.66979Q58.278126 120.09167 58.278126 119.15417Q58.278126 118.24792 57.7625 117.73229Q57.2625 117.20104 56.434376 117.20104Q55.934376 117.20104 55.5125 117.43542Q55.10625 117.66979 54.871876 118.02917L53.8875 117.90417L54.715626 113.49792L58.996876 113.49792L58.996876 114.49792L55.559376 114.49792L55.10625 116.81042Q55.871876 116.26354 56.715626 116.26354Q57.840626 116.26354 58.60625 117.04479Q59.3875 117.82604 59.3875 119.06042Q59.3875 120.21667 58.715626 121.07604Q57.8875 122.10729 56.465626 122.10729Q55.29375 122.10729 54.54375 121.45104Q53.809376 120.79479 53.7 119.71667ZM60.7 117.73229Q60.7 116.20104 61.0125 115.27917Q61.325 114.34167 61.934376 113.84167Q62.559376 113.34167 63.496876 113.34167Q64.18437 113.34167 64.7 113.62292Q65.23125 113.90417 65.575 114.43542Q65.91875 114.95104 66.10625 115.70104Q66.29375 116.45104 66.29375 117.73229Q66.29375 119.24792 65.98125 120.16979Q65.68437 121.09167 65.05937 121.60729Q64.45 122.10729 63.496876 122.10729Q62.2625 122.10729 61.54375 121.21667Q60.7 120.15417 60.7 117.73229ZM61.778126 117.73229Q61.778126 119.84167 62.278126 120.54479Q62.778126 121.24792 63.496876 121.24792Q64.23125 121.24792 64.71562 120.54479Q65.21562 119.84167 65.21562 117.73229Q65.21562 115.60729 64.71562 114.91979Q64.23125 114.21667 63.48125 114.21667Q62.7625 114.21667 62.325 114.82604Q61.778126 115.60729 61.778126 117.73229ZM67.7 117.73229Q67.7 116.20104 68.0125 115.27917Q68.325 114.34167 68.93437 113.84167Q69.55937 113.34167 70.49687 113.34167Q71.18437 113.34167 71.7 113.62292Q72.23125 113.90417 72.575 114.43542Q72.91875 114.95104 73.10625 115.70104Q73.29375 116.45104 73.29375 117.73229Q73.29375 119.24792 72.98125 120.16979Q72.68437 121.09167 72.05937 121.60729Q71.45 122.10729 70.49687 122.10729Q69.2625 122.10729 68.54375 121.21667Q67.7 120.15417 67.7 117.73229ZM68.77812 117.73229Q68.77812 119.84167 69.27812 120.54479Q69.77812 121.24792 70.49687 121.24792Q71.23125 121.24792 71.71562 120.54479Q72.21562 119.84167 72.21562 117.73229Q72.21562 115.60729 71.71562 114.91979Q71.23125 114.21667 70.48125 114.21667Q69.7625 114.21667 69.325 114.82604Q68.77812 115.60729 68.77812 117.73229ZM74.7 117.73229Q74.7 116.20104 75.0125 115.27917Q75.325 114.34167 75.93437 113.84167Q76.55937 113.34167 77.49687 113.34167Q78.18437 113.34167 78.7 113.62292Q79.23125 113.90417 79.575 114.43542Q79.91875 114.95104 80.10625 115.70104Q80.29375 116.45104 80.29375 117.73229Q80.29375 119.24792 79.98125 120.16979Q79.68437 121.09167 79.05937 121.60729Q78.45 122.10729 77.49687 122.10729Q76.2625 122.10729 75.54375 121.21667Q74.7 120.15417 74.7 117.73229ZM75.77812 117.73229Q75.77812 119.84167 76.27812 120.54479Q76.77812 121.24792 77.49687 121.24792Q78.23125 121.24792 78.71562 120.54479Q79.21562 119.84167 79.21562 117.73229Q79.21562 115.60729 78.71562 114.91979Q78.23125 114.21667 77.48125 114.21667Q76.7625 114.21667 76.325 114.82604Q75.77812 115.60729 75.77812 117.73229Z" fill-rule="nonzero"/><path fill="#000000" d="M172.64116 367.8L171.59428 367.8L171.59428 361.08124Q171.20366 361.4406 170.57866 361.8156Q169.96928 362.175 169.48491 362.34686L169.48491 361.33124Q170.35991 360.90936 171.01616 360.33124Q171.68803 359.7375 171.96928 359.175L172.64116 359.175L172.64116 367.8ZM176.26616 367.8L176.26616 366.59686L177.46928 366.59686L177.46928 367.8L176.26616 367.8ZM178.67241 365.55L179.78178 365.45624Q179.90678 366.26874 180.34428 366.675Q180.79741 367.08124 181.43803 367.08124Q182.18803 367.08124 182.71928 366.5031Q183.25053 365.925 183.25053 364.9875Q183.25053 364.08124 182.73491 363.5656Q182.23491 363.03436 181.40678 363.03436Q180.90678 363.03436 180.48491 363.26874Q180.07866 363.5031 179.84428 363.8625L178.85991 363.7375L179.68803 359.33124L183.96928 359.33124L183.96928 360.33124L180.53178 360.33124L180.07866 362.64374Q180.84428 362.09686 181.68803 362.09686Q182.81303 362.09686 183.57866 362.8781Q184.35991 363.65936 184.35991 364.89374Q184.35991 366.05 183.68803 366.90936Q182.85991 367.9406 181.43803 367.9406Q180.26616 367.9406 179.51616 367.28436Q178.78178 366.6281 178.67241 365.55Z" fill-rule="nonzero"/><path fill="#000000" d="M311.77103 366.78436L311.77103 367.8L306.08353 367.8Q306.08353 367.425 306.20853 367.0656Q306.42728 366.4875 306.89603 365.925Q307.3804 365.3625 308.28665 364.6281Q309.6929 363.47186 310.17728 362.8Q310.67728 362.1281 310.67728 361.53436Q310.67728 360.90936 310.22415 360.4875Q309.77103 360.05 309.05228 360.05Q308.28665 360.05 307.83353 360.5031Q307.3804 360.95624 307.36478 361.76874L306.28665 361.65936Q306.39603 360.4406 307.11478 359.8156Q307.84915 359.175 309.08353 359.175Q310.3179 359.175 311.03665 359.8625Q311.7554 360.55 311.7554 361.5656Q311.7554 362.08124 311.53665 362.58124Q311.33353 363.0656 310.83353 363.6281Q310.34915 364.175 309.22415 365.1281Q308.27103 365.925 307.98978 366.22186Q307.72415 366.5031 307.55228 366.78436L311.77103 366.78436Z" fill-rule="nonzero"/><path fill="#000000" d="M439.32272 366.78436L439.32272 367.8L433.63522 367.8Q433.63522 367.425 433.76022 367.0656Q433.97897 366.4875 434.44772 365.925Q434.9321 365.3625 435.83835 364.6281Q437.2446 363.47186 437.72897 362.8Q438.22897 362.1281 438.22897 361.53436Q438.22897 360.90936 437.77585 360.4875Q437.32272 360.05 436.60397 360.05Q435.83835 360.05 435.38522 360.5031Q434.9321 360.95624 434.91647 361.76874L433.83835 361.65936Q433.94772 360.4406 434.66647 359.8156Q435.40085 359.175 436.63522 359.175Q437.8696 359.175 438.58835 359.8625Q439.3071 360.55 439.3071 361.5656Q439.3071 362.08124 439.08835 362.58124Q438.88522 363.0656 438.38522 363.6281Q437.90085 364.175 436.77585 365.1281Q435.82272 365.925 435.54147 366.22186Q435.27585 366.5031 435.10397 366.78436L439.32272 366.78436ZM441.3696 367.8L441.3696 366.59686L442.57272 366.59686L442.57272 367.8L441.3696 367.8ZM443.77585 365.55L444.88522 365.45624Q445.01022 366.26874 445.44772 366.675Q445.90085 367.08124 446.54147 367.08124Q447.29147 367.08124 447.82272 366.5031Q448.35397 365.925 448.35397 364.9875Q448.35397 364.08124 447.83835 363.5656Q447.33835 363.03436 446.51022 363.03436Q446.01022 363.03436 445.58835 363.26874Q445.1821 363.5031 444.94772 363.8625L443.96335 363.7375L444.79147 359.33124L449.07272 359.33124L449.07272 360.33124L445.63522 360.33124L445.1821 362.64374Q445.94772 362.09686 446.79147 362.09686Q447.91647 362.09686 448.6821 362.8781Q449.46335 363.65936 449.46335 364.89374Q449.46335 366.05 448.79147 366.90936Q447.96335 367.9406 446.54147 367.9406Q445.3696 367.9406 444.6196 367.28436Q443.88522 366.6281 443.77585 365.55Z" fill-rule="nonzero"/><path fill="#000000" d="M571.3276 365.53436L572.3901 365.39374Q572.56195 366.28436 572.99945 366.6906Q573.43695 367.08124 574.06195 367.08124Q574.81195 367.08124 575.3276 366.5656Q575.8432 366.05 575.8432 365.28436Q575.8432 364.5656 575.3588 364.09686Q574.8901 363.6125 574.1557 363.6125Q573.8588 363.6125 573.4057 363.7375L573.5307 362.8Q573.6401 362.8156 573.7026 362.8156Q574.37445 362.8156 574.9057 362.47186Q575.4526 362.1125 575.4526 361.3781Q575.4526 360.8 575.06195 360.425Q574.6713 360.03436 574.0463 360.03436Q573.43695 360.03436 573.0151 360.425Q572.6088 360.8156 572.49945 361.58124L571.43695 361.39374Q571.62445 360.34686 572.31195 359.76874Q572.99945 359.175 574.0151 359.175Q574.7182 359.175 575.31195 359.4875Q575.9057 359.78436 576.2182 360.3Q576.5307 360.8156 576.5307 361.40936Q576.5307 361.95624 576.2338 362.425Q575.93695 362.8781 575.3588 363.14374Q576.1088 363.3156 576.5307 363.8781Q576.9526 364.425 576.9526 365.26874Q576.9526 366.39374 576.12445 367.175Q575.31195 367.95624 574.06195 367.95624Q572.93695 367.95624 572.18695 367.28436Q571.43695 366.59686 571.3276 365.53436Z" fill-rule="nonzero"/><path fill="#4285f4" d="M60.5 84.833336C60.5 84.28105 60.947716 83.833336 61.5 83.833336L71.5 83.833336C72.052284 83.833336 72.5 84.28105 72.5 84.833336L72.5 94.833336C72.5 95.38562 72.052284 95.833336 71.5 95.833336L61.5 95.833336C60.947716 95.833336 60.5 95.38562 60.5 94.833336Z" fill-rule="nonzero"/><path fill="#1a1a1a" d="M82.921875 93.833336L80.640625 85.239586L81.8125 85.239586L83.125 90.88021Q83.328125 91.75521 83.484375 92.63021Q83.8125 91.25521 83.875 91.03646L85.5 85.239586L86.875 85.239586L88.109375 89.583336Q88.5625 91.208336 88.78125 92.63021Q88.9375 91.81771 89.203125 90.75521L90.546875 85.239586L91.6875 85.239586L89.34375 93.833336L88.234375 93.833336L86.4375 87.28646Q86.203125 86.47396 86.15625 86.28646Q86.03125 86.864586 85.90625 87.28646L84.09375 93.833336L82.921875 93.833336ZM92.453125 93.833336L92.453125 85.239586L98.65625 85.239586L98.65625 86.25521L93.59375 86.25521L93.59375 88.88021L98.34375 88.88021L98.34375 89.895836L93.59375 89.895836L93.59375 92.81771L98.859375 92.81771L98.859375 93.833336L92.453125 93.833336ZM100.375 93.833336L100.375 85.239586L103.609375 85.239586Q104.59375 85.239586 105.1875 85.50521Q105.78125 85.770836 106.109375 86.31771Q106.453125 86.84896 106.453125 87.44271Q106.453125 87.989586 106.15625 88.47396Q105.859375 88.958336 105.25 89.25521Q106.03125 89.489586 106.4375 90.052086Q106.859375 90.59896 106.859375 91.34896Q106.859375 91.94271 106.609375 92.47396Q106.359375 92.989586 105.984375 93.270836Q105.609375 93.552086 105.03125 93.69271Q104.46875 93.833336 103.65625 93.833336L100.375 93.833336ZM101.515625 88.84896L103.375 88.84896Q104.125 88.84896 104.453125 88.75521Q104.890625 88.63021 105.109375 88.333336Q105.328125 88.020836 105.328125 87.56771Q105.328125 87.145836 105.125 86.81771Q104.921875 86.489586 104.53125 86.38021Q104.15625 86.25521 103.234375 86.25521L101.515625 86.25521L101.515625 88.84896ZM101.515625 92.81771L103.65625 92.81771Q104.203125 92.81771 104.421875 92.770836Q104.828125 92.708336 105.078125 92.552086Q105.34375 92.38021 105.515625 92.06771Q105.6875 91.75521 105.6875 91.34896Q105.6875 90.864586 105.4375 90.50521Q105.203125 90.145836 104.765625 90.00521Q104.328125 89.864586 103.5 89.864586L101.515625 89.864586L101.515625 92.81771ZM114.96875 93.833336L113.921875 93.833336L113.921875 87.114586Q113.53125 87.47396 112.90625 87.84896Q112.296875 88.208336 111.8125 88.38021L111.8125 87.364586Q112.6875 86.94271 113.34375 86.364586Q114.015625 85.770836 114.296875 85.208336L114.96875 85.208336L114.96875 93.833336ZM120.546875 93.833336L123.875 89.34896L120.953125 85.239586L122.296875 85.239586L123.859375 87.44271Q124.34375 88.13021 124.546875 88.50521Q124.84375 88.03646 125.234375 87.520836L126.953125 85.239586L128.1875 85.239586L125.171875 89.28646L128.42188 93.833336L127.015625 93.833336L124.859375 90.770836Q124.671875 90.50521 124.484375 90.19271Q124.203125 90.66146 124.078125 90.833336L121.921875 93.833336L120.546875 93.833336ZM137.5625 90.81771L138.6875 91.114586Q138.32812 92.50521 137.40625 93.239586Q136.48438 93.97396 135.14062 93.97396Q133.75 93.97396 132.875 93.41146Q132.0 92.84896 131.54688 91.78646Q131.09375 90.708336 131.09375 89.47396Q131.09375 88.13021 131.60938 87.13021Q132.125 86.13021 133.0625 85.614586Q134.01562 85.09896 135.15625 85.09896Q136.4375 85.09896 137.3125 85.75521Q138.20312 86.41146 138.54688 87.59896L137.42188 87.864586Q137.125 86.927086 136.54688 86.50521Q135.98438 86.06771 135.125 86.06771Q134.14062 86.06771 133.46875 86.552086Q132.8125 87.020836 132.53125 87.81771Q132.26562 88.614586 132.26562 89.47396Q132.26562 90.56771 132.57812 91.38021Q132.90625 92.19271 133.57812 92.59896Q134.25 93.00521 135.04688 93.00521Q136.0 93.00521 136.65625 92.458336Q137.32812 91.91146 137.5625 90.81771ZM140.42188 93.833336L140.42188 85.239586L143.67188 85.239586Q144.51562 85.239586 144.96875 85.31771Q145.60938 85.427086 146.03125 85.72396Q146.46875 86.020836 146.71875 86.552086Q146.98438 87.083336 146.98438 87.72396Q146.98438 88.81771 146.28125 89.583336Q145.59375 90.333336 143.76562 90.333336L141.5625 90.333336L141.5625 93.833336L140.42188 93.833336ZM141.5625 89.333336L143.78125 89.333336Q144.89062 89.333336 145.34375 88.927086Q145.8125 88.50521 145.8125 87.75521Q145.8125 87.22396 145.53125 86.84896Q145.26562 86.458336 144.82812 86.333336Q144.53125 86.25521 143.76562 86.25521L141.5625 86.25521L141.5625 89.333336ZM154.0625 85.239586L155.20312 85.239586L155.20312 90.208336Q155.20312 91.50521 154.90625 92.270836Q154.60938 93.020836 153.84375 93.50521Q153.07812 93.97396 151.84375 93.97396Q150.64062 93.97396 149.85938 93.56771Q149.09375 93.145836 148.76562 92.364586Q148.4375 91.56771 148.4375 90.208336L148.4375 85.239586L149.57812 85.239586L149.57812 90.19271Q149.57812 91.31771 149.78125 91.84896Q150.0 92.38021 150.5 92.677086Q151.01562 92.958336 151.75 92.958336Q153.0 92.958336 153.53125 92.395836Q154.0625 91.81771 154.0625 90.19271L154.0625 85.239586Z" fill-rule="nonzero"/><path fill="#ea4335" d="M172.5 84.833336C172.5 84.28105 172.94771 83.833336 173.5 83.833336L183.5 83.833336C184.05229 83.833336 184.5 84.28105 184.5 84.833336L184.5 94.833336C184.5 95.38562 184.05229 95.833336 183.5 95.833336L173.5 95.833336C172.94771 95.833336 172.5 95.38562 172.5 94.833336Z" fill-rule="nonzero"/><path fill="#1a1a1a" d="M194.92188 93.833336L192.64062 85.239586L193.8125 85.239586L195.125 90.88021Q195.32812 91.75521 195.48438 92.63021Q195.8125 91.25521 195.875 91.03646L197.5 85.239586L198.875 85.239586L200.10938 89.583336Q200.5625 91.208336 200.78125 92.63021Q200.9375 91.81771 201.20312 90.75521L202.54688 85.239586L203.6875 85.239586L201.34375 93.833336L200.23438 93.833336L198.4375 87.28646Q198.20312 86.47396 198.15625 86.28646Q198.03125 86.864586 197.90625 87.28646L196.09375 93.833336L194.92188 93.833336ZM204.45312 93.833336L204.45312 85.239586L210.65625 85.239586L210.65625 86.25521L205.59375 86.25521L205.59375 88.88021L210.34375 88.88021L210.34375 89.895836L205.59375 89.895836L205.59375 92.81771L210.85938 92.81771L210.85938 93.833336L204.45312 93.833336ZM212.375 93.833336L212.375 85.239586L215.60938 85.239586Q216.59375 85.239586 217.1875 85.50521Q217.78125 85.770836 218.10938 86.31771Q218.45312 86.84896 218.45312 87.44271Q218.45312 87.989586 218.15625 88.47396Q217.85938 88.958336 217.25 89.25521Q218.03125 89.489586 218.4375 90.052086Q218.85938 90.59896 218.85938 91.34896Q218.85938 91.94271 218.60938 92.47396Q218.35938 92.989586 217.98438 93.270836Q217.60938 93.552086 217.03125 93.69271Q216.46875 93.833336 215.65625 93.833336L212.375 93.833336ZM213.51562 88.84896L215.375 88.84896Q216.125 88.84896 216.45312 88.75521Q216.89062 88.63021 217.10938 88.333336Q217.32812 88.020836 217.32812 87.56771Q217.32812 87.145836 217.125 86.81771Q216.92188 86.489586 216.53125 86.38021Q216.15625 86.25521 215.23438 86.25521L213.51562 86.25521L213.51562 88.84896ZM213.51562 92.81771L215.65625 92.81771Q216.20312 92.81771 216.42188 92.770836Q216.82812 92.708336 217.07812 92.552086Q217.34375 92.38021 217.51562 92.06771Q217.6875 91.75521 217.6875 91.34896Q217.6875 90.864586 217.4375 90.50521Q217.20312 90.145836 216.76562 90.00521Q216.32812 89.864586 215.5 89.864586L213.51562 89.864586L213.51562 92.81771ZM226.96875 93.833336L225.92188 93.833336L225.92188 87.114586Q225.53125 87.47396 224.90625 87.84896Q224.29688 88.208336 223.8125 88.38021L223.8125 87.364586Q224.6875 86.94271 225.34375 86.364586Q226.01562 85.770836 226.29688 85.208336L226.96875 85.208336L226.96875 93.833336ZM230.59375 93.833336L230.59375 92.63021L231.79688 92.63021L231.79688 93.833336L230.59375 93.833336ZM233.0 91.583336L234.10938 91.489586Q234.23438 92.302086 234.67188 92.708336Q235.125 93.114586 235.76562 93.114586Q236.51562 93.114586 237.04688 92.53646Q237.57812 91.958336 237.57812 91.020836Q237.57812 90.114586 237.0625 89.59896Q236.5625 89.06771 235.73438 89.06771Q235.23438 89.06771 234.8125 89.302086Q234.40625 89.53646 234.17188 89.895836L233.1875 89.770836L234.01562 85.364586L238.29688 85.364586L238.29688 86.364586L234.85938 86.364586L234.40625 88.677086Q235.17188 88.13021 236.01562 88.13021Q237.14062 88.13021 237.90625 88.91146Q238.6875 89.69271 238.6875 90.927086Q238.6875 92.083336 238.01562 92.94271Q237.1875 93.97396 235.76562 93.97396Q234.59375 93.97396 233.84375 93.31771Q233.10938 92.66146 233.0 91.583336ZM242.54688 93.833336L245.875 89.34896L242.95312 85.239586L244.29688 85.239586L245.85938 87.44271Q246.34375 88.13021 246.54688 88.50521Q246.84375 88.03646 247.23438 87.520836L248.95312 85.239586L250.1875 85.239586L247.17188 89.28646L250.42188 93.833336L249.01562 93.833336L246.85938 90.770836Q246.67188 90.50521 246.48438 90.19271Q246.20312 90.66146 246.07812 90.833336L243.92188 93.833336L242.54688 93.833336ZM259.5625 90.81771L260.6875 91.114586Q260.32812 92.50521 259.40625 93.239586Q258.48438 93.97396 257.14062 93.97396Q255.75 93.97396 254.875 93.41146Q254.0 92.84896 253.54688 91.78646Q253.09375 90.708336 253.09375 89.47396Q253.09375 88.13021 253.60938 87.13021Q254.125 86.13021 255.0625 85.614586Q256.01562 85.09896 257.15625 85.09896Q258.4375 85.09896 259.3125 85.75521Q260.20312 86.41146 260.54688 87.59896L259.42188 87.864586Q259.125 86.927086 258.54688 86.50521Q257.98438 86.06771 257.125 86.06771Q256.14062 86.06771 255.46875 86.552086Q254.8125 87.020836 254.53125 87.81771Q254.26562 88.614586 254.26562 89.47396Q254.26562 90.56771 254.57812 91.38021Q254.90625 92.19271 255.57812 92.59896Q256.25 93.00521 257.04688 93.00521Q258.0 93.00521 258.65625 92.458336Q259.32812 91.91146 259.5625 90.81771ZM262.42188 93.833336L262.42188 85.239586L265.67188 85.239586Q266.51562 85.239586 266.96875 85.31771Q267.60938 85.427086 268.03125 85.72396Q268.46875 86.020836 268.71875 86.552086Q268.98438 87.083336 268.98438 87.72396Q268.98438 88.81771 268.28125 89.583336Q267.59375 90.333336 265.76562 90.333336L263.5625 90.333336L263.5625 93.833336L262.42188 93.833336ZM263.5625 89.333336L265.78125 89.333336Q266.89062 89.333336 267.34375 88.927086Q267.8125 88.50521 267.8125 87.75521Q267.8125 87.22396 267.53125 86.84896Q267.26562 86.458336 266.82812 86.333336Q266.53125 86.25521 265.76562 86.25521L263.5625 86.25521L263.5625 89.333336ZM276.0625 85.239586L277.20312 85.239586L277.20312 90.208336Q277.20312 91.50521 276.90625 92.270836Q276.60938 93.020836 275.84375 93.50521Q275.07812 93.97396 273.84375 93.97396Q272.64062 93.97396 271.85938 93.56771Q271.09375 93.145836 270.76562 92.364586Q270.4375 91.56771 270.4375 90.208336L270.4375 85.239586L271.57812 85.239586L271.57812 90.19271Q271.57812 91.31771 271.78125 91.84896Q272.0 92.38021 272.5 92.677086Q273.01562 92.958336 273.75 92.958336Q275.0 92.958336 275.53125 92.395836Q276.0625 91.81771 276.0625 90.19271L276.0625 85.239586Z" fill-rule="nonzero"/><path fill="#fbbc04" d="M294.5 84.833336C294.5 84.28105 294.94772 83.833336 295.5 83.833336L305.5 83.833336C306.05228 83.833336 306.5 84.28105 306.5 84.833336L306.5 94.833336C306.5 95.38562 306.05228 95.833336 305.5 95.833336L295.5 95.833336C294.94772 95.833336 294.5 95.38562 294.5 94.833336Z" fill-rule="nonzero"/><path fill="#1a1a1a" d="M316.92188 93.833336L314.64062 85.239586L315.8125 85.239586L317.125 90.88021Q317.32812 91.75521 317.48438 92.63021Q317.8125 91.25521 317.875 91.03646L319.5 85.239586L320.875 85.239586L322.10938 89.583336Q322.5625 91.208336 322.78125 92.63021Q322.9375 91.81771 323.20312 90.75521L324.54688 85.239586L325.6875 85.239586L323.34375 93.833336L322.23438 93.833336L320.4375 87.28646Q320.20312 86.47396 320.15625 86.28646Q320.03125 86.864586 319.90625 87.28646L318.09375 93.833336L316.92188 93.833336ZM326.45312 93.833336L326.45312 85.239586L332.65625 85.239586L332.65625 86.25521L327.59375 86.25521L327.59375 88.88021L332.34375 88.88021L332.34375 89.895836L327.59375 89.895836L327.59375 92.81771L332.85938 92.81771L332.85938 93.833336L326.45312 93.833336ZM334.375 93.833336L334.375 85.239586L337.60938 85.239586Q338.59375 85.239586 339.1875 85.50521Q339.78125 85.770836 340.10938 86.31771Q340.45312 86.84896 340.45312 87.44271Q340.45312 87.989586 340.15625 88.47396Q339.85938 88.958336 339.25 89.25521Q340.03125 89.489586 340.4375 90.052086Q340.85938 90.59896 340.85938 91.34896Q340.85938 91.94271 340.60938 92.47396Q340.35938 92.989586 339.98438 93.270836Q339.60938 93.552086 339.03125 93.69271Q338.46875 93.833336 337.65625 93.833336L334.375 93.833336ZM335.51562 88.84896L337.375 88.84896Q338.125 88.84896 338.45312 88.75521Q338.89062 88.63021 339.10938 88.333336Q339.32812 88.020836 339.32812 87.56771Q339.32812 87.145836 339.125 86.81771Q338.92188 86.489586 338.53125 86.38021Q338.15625 86.25521 337.23438 86.25521L335.51562 86.25521L335.51562 88.84896ZM335.51562 92.81771L337.65625 92.81771Q338.20312 92.81771 338.42188 92.770836Q338.82812 92.708336 339.07812 92.552086Q339.34375 92.38021 339.51562 92.06771Q339.6875 91.75521 339.6875 91.34896Q339.6875 90.864586 339.4375 90.50521Q339.20312 90.145836 338.76562 90.00521Q338.32812 89.864586 337.5 89.864586L335.51562 89.864586L335.51562 92.81771ZM350.54688 92.81771L350.54688 93.833336L344.85938 93.833336Q344.85938 93.458336 344.98438 93.09896Q345.20312 92.520836 345.67188 91.958336Q346.15625 91.395836 347.0625 90.66146Q348.46875 89.50521 348.95312 88.833336Q349.45312 88.16146 349.45312 87.56771Q349.45312 86.94271 349.0 86.520836Q348.54688 86.083336 347.82812 86.083336Q347.0625 86.083336 346.60938 86.53646Q346.15625 86.989586 346.14062 87.802086L345.0625 87.69271Q345.17188 86.47396 345.89062 85.84896Q346.625 85.208336 347.85938 85.208336Q349.09375 85.208336 349.8125 85.895836Q350.53125 86.583336 350.53125 87.59896Q350.53125 88.114586 350.3125 88.614586Q350.10938 89.09896 349.60938 89.66146Q349.125 90.208336 348.0 91.16146Q347.04688 91.958336 346.76562 92.25521Q346.5 92.53646 346.32812 92.81771L350.54688 92.81771ZM354.54688 93.833336L357.875 89.34896L354.95312 85.239586L356.29688 85.239586L357.85938 87.44271Q358.34375 88.13021 358.54688 88.50521Q358.84375 88.03646 359.23438 87.520836L360.95312 85.239586L362.1875 85.239586L359.17188 89.28646L362.42188 93.833336L361.01562 93.833336L358.85938 90.770836Q358.67188 90.50521 358.48438 90.19271Q358.20312 90.66146 358.07812 90.833336L355.92188 93.833336L354.54688 93.833336ZM371.5625 90.81771L372.6875 91.114586Q372.32812 92.50521 371.40625 93.239586Q370.48438 93.97396 369.14062 93.97396Q367.75 93.97396 366.875 93.41146Q366.0 92.84896 365.54688 91.78646Q365.09375 90.708336 365.09375 89.47396Q365.09375 88.13021 365.60938 87.13021Q366.125 86.13021 367.0625 85.614586Q368.01562 85.09896 369.15625 85.09896Q370.4375 85.09896 371.3125 85.75521Q372.20312 86.41146 372.54688 87.59896L371.42188 87.864586Q371.125 86.927086 370.54688 86.50521Q369.98438 86.06771 369.125 86.06771Q368.14062 86.06771 367.46875 86.552086Q366.8125 87.020836 366.53125 87.81771Q366.26562 88.614586 366.26562 89.47396Q366.26562 90.56771 366.57812 91.38021Q366.90625 92.19271 367.57812 92.59896Q368.25 93.00521 369.04688 93.00521Q370.0 93.00521 370.65625 92.458336Q371.32812 91.91146 371.5625 90.81771ZM374.42188 93.833336L374.42188 85.239586L377.67188 85.239586Q378.51562 85.239586 378.96875 85.31771Q379.60938 85.427086 380.03125 85.72396Q380.46875 86.020836 380.71875 86.552086Q380.98438 87.083336 380.98438 87.72396Q380.98438 88.81771 380.28125 89.583336Q379.59375 90.333336 377.76562 90.333336L375.5625 90.333336L375.5625 93.833336L374.42188 93.833336ZM375.5625 89.333336L377.78125 89.333336Q378.89062 89.333336 379.34375 88.927086Q379.8125 88.50521 379.8125 87.75521Q379.8125 87.22396 379.53125 86.84896Q379.26562 86.458336 378.82812 86.333336Q378.53125 86.25521 377.76562 86.25521L375.5625 86.25521L375.5625 89.333336ZM388.0625 85.239586L389.20312 85.239586L389.20312 90.208336Q389.20312 91.50521 388.90625 92.270836Q388.60938 93.020836 387.84375 93.50521Q387.07812 93.97396 385.84375 93.97396Q384.64062 93.97396 383.85938 93.56771Q383.09375 93.145836 382.76562 92.364586Q382.4375 91.56771 382.4375 90.208336L382.4375 85.239586L383.57812 85.239586L383.57812 90.19271Q383.57812 91.31771 383.78125 91.84896Q384.0 92.38021 384.5 92.677086Q385.01562 92.958336 385.75 92.958336Q387.0 92.958336 387.53125 92.395836Q388.0625 91.81771 388.0625 90.19271L388.0625 85.239586Z" fill-rule="nonzero"/><path fill="#34a853" d="M406.5 84.833336C406.5 84.28105 406.94772 83.833336 407.5 83.833336L417.5 83.833336C418.05228 83.833336 418.5 84.28105 418.5 84.833336L418.5 94.833336C418.5 95.38562 418.05228 95.833336 417.5 95.833336L407.5 95.833336C406.94772 95.833336 406.5 95.38562 406.5 94.833336Z" fill-rule="nonzero"/><path fill="#1a1a1a" d="M428.92188 93.833336L426.64062 85.239586L427.8125 85.239586L429.125 90.88021Q429.32812 91.75521 429.48438 92.63021Q429.8125 91.25521 429.875 91.03646L431.5 85.239586L432.875 85.239586L434.10938 89.583336Q434.5625 91.208336 434.78125 92.63021Q434.9375 91.81771 435.20312 90.75521L436.54688 85.239586L437.6875 85.239586L435.34375 93.833336L434.23438 93.833336L432.4375 87.28646Q432.20312 86.47396 432.15625 86.28646Q432.03125 86.864586 431.90625 87.28646L430.09375 93.833336L428.92188 93.833336ZM438.45312 93.833336L438.45312 85.239586L444.65625 85.239586L444.65625 86.25521L439.59375 86.25521L439.59375 88.88021L444.34375 88.88021L444.34375 89.895836L439.59375 89.895836L439.59375 92.81771L444.85938 92.81771L444.85938 93.833336L438.45312 93.833336ZM446.375 93.833336L446.375 85.239586L449.60938 85.239586Q450.59375 85.239586 451.1875 85.50521Q451.78125 85.770836 452.10938 86.31771Q452.45312 86.84896 452.45312 87.44271Q452.45312 87.989586 452.15625 88.47396Q451.85938 88.958336 451.25 89.25521Q452.03125 89.489586 452.4375 90.052086Q452.85938 90.59896 452.85938 91.34896Q452.85938 91.94271 452.60938 92.47396Q452.35938 92.989586 451.98438 93.270836Q451.60938 93.552086 451.03125 93.69271Q450.46875 93.833336 449.65625 93.833336L446.375 93.833336ZM447.51562 88.84896L449.375 88.84896Q450.125 88.84896 450.45312 88.75521Q450.89062 88.63021 451.10938 88.333336Q451.32812 88.020836 451.32812 87.56771Q451.32812 87.145836 451.125 86.81771Q450.92188 86.489586 450.53125 86.38021Q450.15625 86.25521 449.23438 86.25521L447.51562 86.25521L447.51562 88.84896ZM447.51562 92.81771L449.65625 92.81771Q450.20312 92.81771 450.42188 92.770836Q450.82812 92.708336 451.07812 92.552086Q451.34375 92.38021 451.51562 92.06771Q451.6875 91.75521 451.6875 91.34896Q451.6875 90.864586 451.4375 90.50521Q451.20312 90.145836 450.76562 90.00521Q450.32812 89.864586 449.5 89.864586L447.51562 89.864586L447.51562 92.81771ZM462.54688 92.81771L462.54688 93.833336L456.85938 93.833336Q456.85938 93.458336 456.98438 93.09896Q457.20312 92.520836 457.67188 91.958336Q458.15625 91.395836 459.0625 90.66146Q460.46875 89.50521 460.95312 88.833336Q461.45312 88.16146 461.45312 87.56771Q461.45312 86.94271 461.0 86.520836Q460.54688 86.083336 459.82812 86.083336Q459.0625 86.083336 458.60938 86.53646Q458.15625 86.989586 458.14062 87.802086L457.0625 87.69271Q457.17188 86.47396 457.89062 85.84896Q458.625 85.208336 459.85938 85.208336Q461.09375 85.208336 461.8125 85.895836Q462.53125 86.583336 462.53125 87.59896Q462.53125 88.114586 462.3125 88.614586Q462.10938 89.09896 461.60938 89.66146Q461.125 90.208336 460.0 91.16146Q459.04688 91.958336 458.76562 92.25521Q458.5 92.53646 458.32812 92.81771L462.54688 92.81771ZM464.59375 93.833336L464.59375 92.63021L465.79688 92.63021L465.79688 93.833336L464.59375 93.833336ZM467.0 91.583336L468.10938 91.489586Q468.23438 92.302086 468.67188 92.708336Q469.125 93.114586 469.76562 93.114586Q470.51562 93.114586 471.04688 92.53646Q471.57812 91.958336 471.57812 91.020836Q471.57812 90.114586 471.0625 89.59896Q470.5625 89.06771 469.73438 89.06771Q469.23438 89.06771 468.8125 89.302086Q468.40625 89.53646 468.17188 89.895836L467.1875 89.770836L468.01562 85.364586L472.29688 85.364586L472.29688 86.364586L468.85938 86.364586L468.40625 88.677086Q469.17188 88.13021 470.01562 88.13021Q471.14062 88.13021 471.90625 88.91146Q472.6875 89.69271 472.6875 90.927086Q472.6875 92.083336 472.01562 92.94271Q471.1875 93.97396 469.76562 93.97396Q468.59375 93.97396 467.84375 93.31771Q467.10938 92.66146 467.0 91.583336ZM476.54688 93.833336L479.875 89.34896L476.95312 85.239586L478.29688 85.239586L479.85938 87.44271Q480.34375 88.13021 480.54688 88.50521Q480.84375 88.03646 481.23438 87.520836L482.95312 85.239586L484.1875 85.239586L481.17188 89.28646L484.42188 93.833336L483.01562 93.833336L480.85938 90.770836Q480.67188 90.50521 480.48438 90.19271Q480.20312 90.66146 480.07812 90.833336L477.92188 93.833336L476.54688 93.833336ZM493.5625 90.81771L494.6875 91.114586Q494.32812 92.50521 493.40625 93.239586Q492.48438 93.97396 491.14062 93.97396Q489.75 93.97396 488.875 93.41146Q488.0 92.84896 487.54688 91.78646Q487.09375 90.708336 487.09375 89.47396Q487.09375 88.13021 487.60938 87.13021Q488.125 86.13021 489.0625 85.614586Q490.01562 85.09896 491.15625 85.09896Q492.4375 85.09896 493.3125 85.75521Q494.20312 86.41146 494.54688 87.59896L493.42188 87.864586Q493.125 86.927086 492.54688 86.50521Q491.98438 86.06771 491.125 86.06771Q490.14062 86.06771 489.46875 86.552086Q488.8125 87.020836 488.53125 87.81771Q488.26562 88.614586 488.26562 89.47396Q488.26562 90.56771 488.57812 91.38021Q488.90625 92.19271 489.57812 92.59896Q490.25 93.00521 491.04688 93.00521Q492.0 93.00521 492.65625 92.458336Q493.32812 91.91146 493.5625 90.81771ZM496.42188 93.833336L496.42188 85.239586L499.67188 85.239586Q500.51562 85.239586 500.96875 85.31771Q501.60938 85.427086 502.03125 85.72396Q502.46875 86.020836 502.71875 86.552086Q502.98438 87.083336 502.98438 87.72396Q502.98438 88.81771 502.28125 89.583336Q501.59375 90.333336 499.76562 90.333336L497.5625 90.333336L497.5625 93.833336L496.42188 93.833336ZM497.5625 89.333336L499.78125 89.333336Q500.89062 89.333336 501.34375 88.927086Q501.8125 88.50521 501.8125 87.75521Q501.8125 87.22396 501.53125 86.84896Q501.26562 86.458336 500.82812 86.333336Q500.53125 86.25521 499.76562 86.25521L497.5625 86.25521L497.5625 89.333336ZM510.0625 85.239586L511.20312 85.239586L511.20312 90.208336Q511.20312 91.50521 510.90625 92.270836Q510.60938 93.020836 509.84375 93.50521Q509.07812 93.97396 507.84375 93.97396Q506.64062 93.97396 505.85938 93.56771Q505.09375 93.145836 504.76562 92.364586Q504.4375 91.56771 504.4375 90.208336L504.4375 85.239586L505.57812 85.239586L505.57812 90.19271Q505.57812 91.31771 505.78125 91.84896Q506.0 92.38021 506.5 92.677086Q507.01562 92.958336 507.75 92.958336Q509.0 92.958336 509.53125 92.395836Q510.0625 91.81771 510.0625 90.19271L510.0625 85.239586Z" fill-rule="nonzero"/><path fill="#ff6d01" d="M528.5 84.833336C528.5 84.28105 528.9477 83.833336 529.5 83.833336L539.5 83.833336C540.0523 83.833336 540.5 84.28105 540.5 84.833336L540.5 94.833336C540.5 95.38562 540.0523 95.833336 539.5 95.833336L529.5 95.833336C528.9477 95.833336 528.5 95.38562 528.5 94.833336Z" fill-rule="nonzero"/><path fill="#1a1a1a" d="M550.9219 93.833336L548.6406 85.239586L549.8125 85.239586L551.125 90.88021Q551.3281 91.75521 551.4844 92.63021Q551.8125 91.25521 551.875 91.03646L553.5 85.239586L554.875 85.239586L556.1094 89.583336Q556.5625 91.208336 556.78125 92.63021Q556.9375 91.81771 557.2031 90.75521L558.5469 85.239586L559.6875 85.239586L557.34375 93.833336L556.2344 93.833336L554.4375 87.28646Q554.2031 86.47396 554.15625 86.28646Q554.03125 86.864586 553.90625 87.28646L552.09375 93.833336L550.9219 93.833336ZM560.4531 93.833336L560.4531 85.239586L566.65625 85.239586L566.65625 86.25521L561.59375 86.25521L561.59375 88.88021L566.34375 88.88021L566.34375 89.895836L561.59375 89.895836L561.59375 92.81771L566.8594 92.81771L566.8594 93.833336L560.4531 93.833336ZM568.375 93.833336L568.375 85.239586L571.6094 85.239586Q572.59375 85.239586 573.1875 85.50521Q573.78125 85.770836 574.1094 86.31771Q574.4531 86.84896 574.4531 87.44271Q574.4531 87.989586 574.15625 88.47396Q573.8594 88.958336 573.25 89.25521Q574.03125 89.489586 574.4375 90.052086Q574.8594 90.59896 574.8594 91.34896Q574.8594 91.94271 574.6094 92.47396Q574.3594 92.989586 573.9844 93.270836Q573.6094 93.552086 573.03125 93.69271Q572.46875 93.833336 571.65625 93.833336L568.375 93.833336ZM569.5156 88.84896L571.375 88.84896Q572.125 88.84896 572.4531 88.75521Q572.8906 88.63021 573.1094 88.333336Q573.3281 88.020836 573.3281 87.56771Q573.3281 87.145836 573.125 86.81771Q572.9219 86.489586 572.53125 86.38021Q572.15625 86.25521 571.2344 86.25521L569.5156 86.25521L569.5156 88.84896ZM569.5156 92.81771L571.65625 92.81771Q572.2031 92.81771 572.4219 92.770836Q572.8281 92.708336 573.0781 92.552086Q573.34375 92.38021 573.5156 92.06771Q573.6875 91.75521 573.6875 91.34896Q573.6875 90.864586 573.4375 90.50521Q573.2031 90.145836 572.7656 90.00521Q572.3281 89.864586 571.5 89.864586L569.5156 89.864586L569.5156 92.81771ZM579.0 91.56771L580.0625 91.427086Q580.2344 92.31771 580.6719 92.72396Q581.1094 93.114586 581.7344 93.114586Q582.4844 93.114586 583.0 92.59896Q583.5156 92.083336 583.5156 91.31771Q583.5156 90.59896 583.03125 90.13021Q582.5625 89.645836 581.8281 89.645836Q581.53125 89.645836 581.0781 89.770836L581.2031 88.833336Q581.3125 88.84896 581.375 88.84896Q582.0469 88.84896 582.5781 88.50521Q583.125 88.145836 583.125 87.41146Q583.125 86.833336 582.7344 86.458336Q582.34375 86.06771 581.71875 86.06771Q581.1094 86.06771 580.6875 86.458336Q580.28125 86.84896 580.1719 87.614586L579.1094 87.427086Q579.2969 86.38021 579.9844 85.802086Q580.6719 85.208336 581.6875 85.208336Q582.3906 85.208336 582.9844 85.520836Q583.5781 85.81771 583.8906 86.333336Q584.2031 86.84896 584.2031 87.44271Q584.2031 87.989586 583.90625 88.458336Q583.6094 88.91146 583.03125 89.177086Q583.78125 89.34896 584.2031 89.91146Q584.625 90.458336 584.625 91.302086Q584.625 92.427086 583.7969 93.208336Q582.9844 93.989586 581.7344 93.989586Q580.6094 93.989586 579.8594 93.31771Q579.1094 92.63021 579.0 91.56771ZM588.5469 93.833336L591.875 89.34896L588.9531 85.239586L590.2969 85.239586L591.8594 87.44271Q592.34375 88.13021 592.5469 88.50521Q592.84375 88.03646 593.2344 87.520836L594.9531 85.239586L596.1875 85.239586L593.1719 89.28646L596.4219 93.833336L595.0156 93.833336L592.8594 90.770836Q592.6719 90.50521 592.4844 90.19271Q592.2031 90.66146 592.0781 90.833336L589.9219 93.833336L588.5469 93.833336ZM605.5625 90.81771L606.6875 91.114586Q606.3281 92.50521 605.40625 93.239586Q604.4844 93.97396 603.1406 93.97396Q601.75 93.97396 600.875 93.41146Q600.0 92.84896 599.5469 91.78646Q599.09375 90.708336 599.09375 89.47396Q599.09375 88.13021 599.6094 87.13021Q600.125 86.13021 601.0625 85.614586Q602.0156 85.09896 603.15625 85.09896Q604.4375 85.09896 605.3125 85.75521Q606.2031 86.41146 606.5469 87.59896L605.4219 87.864586Q605.125 86.927086 604.5469 86.50521Q603.9844 86.06771 603.125 86.06771Q602.1406 86.06771 601.46875 86.552086Q600.8125 87.020836 600.53125 87.81771Q600.2656 88.614586 600.2656 89.47396Q600.2656 90.56771 600.5781 91.38021Q600.90625 92.19271 601.5781 92.59896Q602.25 93.00521 603.0469 93.00521Q604.0 93.00521 604.65625 92.458336Q605.3281 91.91146 605.5625 90.81771ZM608.4219 93.833336L608.4219 85.239586L611.6719 85.239586Q612.5156 85.239586 612.96875 85.31771Q613.6094 85.427086 614.03125 85.72396Q614.46875 86.020836 614.71875 86.552086Q614.9844 87.083336 614.9844 87.72396Q614.9844 88.81771 614.28125 89.583336Q613.59375 90.333336 611.7656 90.333336L609.5625 90.333336L609.5625 93.833336L608.4219 93.833336ZM609.5625 89.333336L611.78125 89.333336Q612.8906 89.333336 613.34375 88.927086Q613.8125 88.50521 613.8125 87.75521Q613.8125 87.22396 613.53125 86.84896Q613.2656 86.458336 612.8281 86.333336Q612.53125 86.25521 611.7656 86.25521L609.5625 86.25521L609.5625 89.333336ZM622.0625 85.239586L623.2031 85.239586L623.2031 90.208336Q623.2031 91.50521 622.90625 92.270836Q622.6094 93.020836 621.84375 93.50521Q621.0781 93.97396 619.84375 93.97396Q618.6406 93.97396 617.8594 93.56771Q617.09375 93.145836 616.7656 92.364586Q616.4375 91.56771 616.4375 90.208336L616.4375 85.239586L617.5781 85.239586L617.5781 90.19271Q617.5781 91.31771 617.78125 91.84896Q618.0 92.38021 618.5 92.677086Q619.0156 92.958336 619.75 92.958336Q621.0 92.958336 621.53125 92.395836Q622.0625 91.81771 622.0625 90.19271L622.0625 85.239586Z" fill-rule="nonzero"/><path fill="#999999" d="M22.325 65.7L22.325 55.684372L23.653126 55.684372L23.653126 59.793747L28.85625 59.793747L28.85625 55.684372L30.184376 55.684372L30.184376 65.7L28.85625 65.7L28.85625 60.981247L23.653126 60.981247L23.653126 65.7L22.325 65.7ZM31.1375 57.090622L31.1375 55.684372L32.35625 55.684372L32.35625 57.090622L31.1375 57.090622ZM31.1375 65.7L31.1375 58.434372L32.35625 58.434372L32.35625 65.7L31.1375 65.7ZM33.903126 66.30937L35.090626 66.48125Q35.16875 67.02812 35.5125 67.29375Q35.965626 67.62187 36.7625 67.62187Q37.621876 67.62187 38.075 67.27812Q38.54375 66.95 38.715626 66.325Q38.809376 65.95 38.79375 64.74687Q37.996876 65.7 36.79375 65.7Q35.29375 65.7 34.465626 64.62187Q33.653126 63.543747 33.653126 62.028122Q33.653126 60.996872 34.028126 60.121872Q34.403126 59.231247 35.10625 58.762497Q35.825 58.278122 36.79375 58.278122Q38.075 58.278122 38.91875 59.309372L38.91875 58.434372L40.04375 58.434372L40.04375 64.71562Q40.04375 66.41875 39.7 67.12187Q39.35625 67.825 38.60625 68.23125Q37.85625 68.65312 36.7625 68.65312Q35.465626 68.65312 34.66875 68.05937Q33.871876 67.48125 33.903126 66.30937ZM34.91875 61.934372Q34.91875 63.371872 35.48125 64.02812Q36.04375 64.68437 36.903126 64.68437Q37.746876 64.68437 38.325 64.02812Q38.903126 63.371872 38.903126 61.981247Q38.903126 60.653122 38.309376 59.981247Q37.715626 59.293747 36.8875 59.293747Q36.059376 59.293747 35.48125 59.965622Q34.91875 60.621872 34.91875 61.934372ZM42.121876 65.7L42.121876 55.684372L43.35625 55.684372L43.35625 59.278122Q44.215626 58.278122 45.528126 58.278122Q46.340626 58.278122 46.934376 58.606247Q47.528126 58.918747 47.778126 59.481247Q48.04375 60.028122 48.04375 61.106247L48.04375 65.7L46.809376 65.7L46.809376 61.106247Q46.809376 60.168747 46.403126 59.762497Q46.0125 59.340622 45.278126 59.340622Q44.73125 59.340622 44.246876 59.621872Q43.7625 59.903122 43.559376 60.387497Q43.35625 60.871872 43.35625 61.731247L43.35625 65.7L42.121876 65.7ZM55.090626 63.356247L56.371876 63.512497Q56.059376 64.6375 55.246876 65.2625Q54.434376 65.87187 53.16875 65.87187Q51.575 65.87187 50.6375 64.8875Q49.715626 63.903122 49.715626 62.137497Q49.715626 60.293747 50.653126 59.293747Q51.60625 58.278122 53.10625 58.278122Q54.559376 58.278122 55.48125 59.278122Q56.403126 60.262497 56.403126 62.059372Q56.403126 62.168747 56.403126 62.387497L50.98125 62.387497Q51.059376 63.574997 51.653126 64.21562Q52.2625 64.85625 53.184376 64.85625Q53.85625 64.85625 54.325 64.49687Q54.809376 64.1375 55.090626 63.356247ZM51.059376 61.371872L55.10625 61.371872Q55.028126 60.449997 54.6375 59.996872Q54.059376 59.293747 53.121876 59.293747Q52.2625 59.293747 51.684376 59.856247Q51.121876 60.418747 51.059376 61.371872ZM58.10625 65.7L58.10625 58.434372L59.215626 58.434372L59.215626 59.543747Q59.6375 58.762497 59.996876 58.528122Q60.35625 58.278122 60.79375 58.278122Q61.41875 58.278122 62.059376 58.668747L61.6375 59.809372Q61.184376 59.543747 60.73125 59.543747Q60.325 59.543747 59.996876 59.793747Q59.684376 60.028122 59.54375 60.465622Q59.340626 61.121872 59.340626 61.903122L59.340626 65.7L58.10625 65.7ZM67.1375 57.090622L67.1375 55.684372L68.35625 55.684372L68.35625 57.090622L67.1375 57.090622ZM67.1375 65.7L67.1375 58.434372L68.35625 58.434372L68.35625 65.7L67.1375 65.7ZM69.6375 63.528122L70.84062 63.340622Q70.95 64.075 71.41875 64.46562Q71.8875 64.85625 72.73125 64.85625Q73.575 64.85625 73.98125 64.5125Q74.40312 64.16875 74.40312 63.699997Q74.40312 63.278122 74.02812 63.043747Q73.77812 62.871872 72.77812 62.621872Q71.41875 62.278122 70.8875 62.028122Q70.37187 61.778122 70.10625 61.340622Q69.84062 60.903122 69.84062 60.371872Q69.84062 59.887497 70.05937 59.481247Q70.27812 59.059372 70.66875 58.778122Q70.95 58.574997 71.43437 58.434372Q71.93437 58.278122 72.5125 58.278122Q73.35625 58.278122 73.99687 58.528122Q74.65312 58.762497 74.96562 59.184372Q75.27812 59.606247 75.3875 60.309372L74.18437 60.481247Q74.10625 59.918747 73.7 59.606247Q73.30937 59.293747 72.59062 59.293747Q71.74687 59.293747 71.3875 59.574997Q71.02812 59.840622 71.02812 60.231247Q71.02812 60.465622 71.16875 60.653122Q71.325 60.856247 71.65312 60.981247Q71.825 61.043747 72.73125 61.293747Q74.04375 61.653122 74.55937 61.871872Q75.075 62.090622 75.35625 62.512497Q75.65312 62.934372 75.65312 63.559372Q75.65312 64.18437 75.29375 64.73125Q74.95 65.2625 74.2625 65.575Q73.59062 65.87187 72.73125 65.87187Q71.325 65.87187 70.575 65.27812Q69.84062 64.68437 69.6375 63.528122ZM82.2625 65.7L81.12187 65.7L81.12187 55.684372L82.34062 55.684372L82.34062 59.246872Q83.12187 58.278122 84.34062 58.278122Q85.0125 58.278122 85.60625 58.543747Q86.2 58.809372 86.59062 59.309372Q86.98125 59.793747 87.2 60.481247Q87.41875 61.168747 87.41875 61.965622Q87.41875 63.824997 86.48125 64.85625Q85.55937 65.87187 84.27812 65.87187Q82.99687 65.87187 82.2625 64.79375L82.2625 65.7ZM82.24687 62.012497Q82.24687 63.324997 82.60625 63.903122Q83.18437 64.85625 84.16875 64.85625Q84.98125 64.85625 85.55937 64.15312Q86.15312 63.449997 86.15312 62.059372Q86.15312 60.637497 85.59062 59.965622Q85.02812 59.293747 84.23125 59.293747Q83.41875 59.293747 82.825 59.996872Q82.24687 60.684372 82.24687 62.012497ZM94.09062 63.356247L95.37187 63.512497Q95.05937 64.6375 94.24687 65.2625Q93.43437 65.87187 92.16875 65.87187Q90.575 65.87187 89.6375 64.8875Q88.71562 63.903122 88.71562 62.137497Q88.71562 60.293747 89.65312 59.293747Q90.60625 58.278122 92.10625 58.278122Q93.55937 58.278122 94.48125 59.278122Q95.40312 60.262497 95.40312 62.059372Q95.40312 62.168747 95.40312 62.387497L89.98125 62.387497Q90.05937 63.574997 90.65312 64.21562Q91.2625 64.85625 92.18437 64.85625Q92.85625 64.85625 93.325 64.49687Q93.80937 64.1375 94.09062 63.356247ZM90.05937 61.371872L94.10625 61.371872Q94.02812 60.449997 93.6375 59.996872Q93.05937 59.293747 92.12187 59.293747Q91.2625 59.293747 90.68437 59.856247Q90.12187 60.418747 90.05937 61.371872ZM99.80937 64.60625L99.98125 65.68437Q99.46562 65.79375 99.05937 65.79375Q98.3875 65.79375 98.0125 65.59062Q97.65312 65.37187 97.49687 65.02812Q97.35625 64.68437 97.35625 63.574997L97.35625 59.403122L96.45 59.403122L96.45 58.434372L97.35625 58.434372L97.35625 56.637497L98.575 55.903122L98.575 58.434372L99.80937 58.434372L99.80937 59.403122L98.575 59.403122L98.575 63.637497Q98.575 64.16875 98.6375 64.325Q98.7 64.46562 98.84062 64.55937Q98.99687 64.65312 99.2625 64.65312Q99.48125 64.65312 99.80937 64.60625ZM103.80937 64.60625L103.98125 65.68437Q103.46562 65.79375 103.05937 65.79375Q102.3875 65.79375 102.0125 65.59062Q101.65312 65.37187 101.49687 65.02812Q101.35625 64.68437 101.35625 63.574997L101.35625 59.403122L100.45 59.403122L100.45 58.434372L101.35625 58.434372L101.35625 56.637497L102.575 55.903122L102.575 58.434372L103.80937 58.434372L103.80937 59.403122L102.575 59.403122L102.575 63.637497Q102.575 64.16875 102.6375 64.325Q102.7 64.46562 102.84062 64.55937Q102.99687 64.65312 103.2625 64.65312Q103.48125 64.65312 103.80937 64.60625ZM110.09062 63.356247L111.37187 63.512497Q111.05937 64.6375 110.24687 65.2625Q109.43437 65.87187 108.16875 65.87187Q106.575 65.87187 105.6375 64.8875Q104.71562 63.903122 104.71562 62.137497Q104.71562 60.293747 105.65312 59.293747Q106.60625 58.278122 108.10625 58.278122Q109.55937 58.278122 110.48125 59.278122Q111.40312 60.262497 111.40312 62.059372Q111.40312 62.168747 111.40312 62.387497L105.98125 62.387497Q106.05937 63.574997 106.65312 64.21562Q107.2625 64.85625 108.18437 64.85625Q108.85625 64.85625 109.325 64.49687Q109.80937 64.1375 110.09062 63.356247ZM106.05937 61.371872L110.10625 61.371872Q110.02812 60.449997 109.6375 59.996872Q109.05937 59.293747 108.12187 59.293747Q107.2625 59.293747 106.68437 59.856247Q106.12187 60.418747 106.05937 61.371872ZM113.10625 65.7L113.10625 58.434372L114.21562 58.434372L114.21562 59.543747Q114.6375 58.762497 114.99687 58.528122Q115.35625 58.278122 115.79375 58.278122Q116.41875 58.278122 117.05937 58.668747L116.6375 59.809372Q116.18437 59.543747 115.73125 59.543747Q115.325 59.543747 114.99687 59.793747Q114.68437 60.028122 114.54375 60.465622Q114.34062 61.121872 114.34062 61.903122L114.34062 65.7L113.10625 65.7Z" fill-rule="nonzero"/><path fill="#757575" d="M31.153126 29.3875L29.403126 29.528126Q29.16875 28.496876 28.746876 28.028126Q28.028126 27.2625 26.98125 27.2625Q26.1375 27.2625 25.5125 27.73125Q24.684376 28.340626 24.2 29.5125Q23.715626 30.66875 23.7 32.809376Q24.340626 31.85625 25.246876 31.3875Q26.16875 30.91875 27.184376 30.91875Q28.934376 30.91875 30.16875 32.215626Q31.403126 33.496876 31.403126 35.54375Q31.403126 36.903126 30.825 38.059376Q30.246876 39.215626 29.23125 39.840626Q28.215626 40.45 26.91875 40.45Q24.73125 40.45 23.340626 38.840626Q21.95 37.215626 21.95 33.496876Q21.95 29.35625 23.48125 27.465626Q24.825 25.825 27.090626 25.825Q28.778126 25.825 29.85625 26.778126Q30.934376 27.715626 31.153126 29.3875ZM23.98125 35.559376Q23.98125 36.465626 24.35625 37.29375Q24.746876 38.121876 25.434376 38.559376Q26.1375 38.996876 26.8875 38.996876Q28.0125 38.996876 28.809376 38.10625Q29.60625 37.2 29.60625 35.653126Q29.60625 34.16875 28.809376 33.325Q28.028126 32.465626 26.825 32.465626Q25.6375 32.465626 24.809376 33.325Q23.98125 34.16875 23.98125 35.559376ZM49.965626 35.184376L51.85625 35.653126Q51.2625 37.996876 49.715626 39.23125Q48.16875 40.45 45.91875 40.45Q43.60625 40.45 42.153126 39.5125Q40.715626 38.559376 39.95 36.778126Q39.2 34.98125 39.2 32.934376Q39.2 30.7 40.04375 29.04375Q40.903126 27.371876 42.48125 26.5125Q44.059376 25.6375 45.95 25.6375Q48.10625 25.6375 49.559376 26.73125Q51.028126 27.825 51.60625 29.809376L49.746876 30.246876Q49.246876 28.684376 48.29375 27.98125Q47.35625 27.2625 45.91875 27.2625Q44.2625 27.2625 43.153126 28.059376Q42.04375 28.840626 41.590626 30.184376Q41.153126 31.5125 41.153126 32.91875Q41.153126 34.746876 41.684376 36.121876Q42.215626 37.48125 43.340626 38.153126Q44.465626 38.825 45.7625 38.825Q47.35625 38.825 48.465626 37.903126Q49.575 36.98125 49.965626 35.184376ZM53.746876 40.2L53.746876 25.8875L59.1375 25.8875Q60.575 25.8875 61.325 26.0125Q62.371876 26.2 63.090626 26.7Q63.809376 27.184376 64.23125 28.075Q64.66875 28.965626 64.66875 30.028126Q64.66875 31.85625 63.496876 33.121876Q62.340626 34.371876 59.309376 34.371876L55.6375 34.371876L55.6375 40.2L53.746876 40.2ZM55.6375 32.684376L59.340626 32.684376Q61.16875 32.684376 61.934376 32.0125Q62.715626 31.325 62.715626 30.075Q62.715626 29.184376 62.2625 28.54375Q61.809376 27.903126 61.075 27.7Q60.590626 27.575 59.29375 27.575L55.6375 27.575L55.6375 32.684376ZM76.1375 25.8875L78.02812 25.8875L78.02812 34.153126Q78.02812 36.309376 77.54375 37.590626Q77.05937 38.85625 75.77812 39.653126Q74.5125 40.45 72.43437 40.45Q70.41875 40.45 69.1375 39.7625Q67.87187 39.059376 67.325 37.746876Q66.77812 36.434376 66.77812 34.153126L66.77812 25.8875L68.66875 25.8875L68.66875 34.1375Q68.66875 36.0125 69.0125 36.903126Q69.35625 37.778126 70.2 38.2625Q71.04375 38.73125 72.27812 38.73125Q74.35625 38.73125 75.24687 37.79375Q76.1375 36.840626 76.1375 34.1375L76.1375 25.8875ZM89.3875 40.2L89.3875 27.575L84.66875 27.575L84.66875 25.8875L96.0125 25.8875L96.0125 27.575L91.27812 27.575L91.27812 40.2L89.3875 40.2ZM97.5125 40.2L97.5125 25.8875L99.27812 25.8875L99.27812 31.0125Q100.5125 29.590626 102.3875 29.590626Q103.52812 29.590626 104.37187 30.04375Q105.23125 30.496876 105.59062 31.309376Q105.96562 32.10625 105.96562 33.621876L105.96562 40.2L104.21562 40.2L104.21562 33.621876Q104.21562 32.309376 103.6375 31.715626Q103.05937 31.10625 102.02812 31.10625Q101.24687 31.10625 100.54375 31.5125Q99.85625 31.91875 99.55937 32.621876Q99.27812 33.309376 99.27812 34.528126L99.27812 40.2L97.5125 40.2ZM107.49687 40.2L107.49687 29.825L109.075 29.825L109.075 31.403126Q109.68437 30.29375 110.2 29.95Q110.71562 29.590626 111.325 29.590626Q112.21562 29.590626 113.1375 30.153126L112.52812 31.79375Q111.8875 31.403126 111.24687 31.403126Q110.66875 31.403126 110.2 31.7625Q109.74687 32.10625 109.54375 32.715626Q109.2625 33.653126 109.2625 34.7625L109.2625 40.2L107.49687 40.2ZM113.87187 35.0125Q113.87187 32.1375 115.46562 30.746876Q116.80937 29.590626 118.73125 29.590626Q120.87187 29.590626 122.21562 30.996876Q123.575 32.403126 123.575 34.871876Q123.575 36.871876 122.98125 38.028126Q122.3875 39.16875 121.23125 39.809376Q120.09062 40.434376 118.73125 40.434376Q116.54375 40.434376 115.2 39.04375Q113.87187 37.6375 113.87187 35.0125ZM115.66875 35.0125Q115.66875 37.0125 116.52812 37.996876Q117.40312 38.98125 118.73125 38.98125Q120.04375 38.98125 120.90312 37.996876Q121.77812 36.996876 121.77812 34.95Q121.77812 33.028126 120.90312 32.04375Q120.02812 31.04375 118.73125 31.04375Q117.40312 31.04375 116.52812 32.04375Q115.66875 33.028126 115.66875 35.0125ZM132.30937 40.2L132.30937 38.66875Q131.10625 40.434376 129.02812 40.434376Q128.10625 40.434376 127.30937 40.090626Q126.5125 39.73125 126.12187 39.2Q125.74687 38.66875 125.59062 37.8875Q125.48125 37.371876 125.48125 36.246876L125.48125 29.825L127.23125 29.825L127.23125 35.575Q127.23125 36.95 127.34062 37.434376Q127.5125 38.121876 128.04375 38.528126Q128.59062 38.91875 129.37187 38.91875Q130.16875 38.91875 130.85625 38.5125Q131.55937 38.10625 131.84062 37.41875Q132.1375 36.715626 132.1375 35.3875L132.1375 29.825L133.8875 29.825L133.8875 40.2L132.30937 40.2ZM135.2 41.059376L136.90312 41.309376Q137.0125 42.10625 137.49687 42.465626Q138.15312 42.95 139.29375 42.95Q140.5125 42.95 141.16875 42.465626Q141.84062 41.98125 142.075 41.10625Q142.21562 40.559376 142.2 38.840626Q141.04375 40.2 139.325 40.2Q137.18437 40.2 136.0125 38.653126Q134.84062 37.10625 134.84062 34.95Q134.84062 33.465626 135.37187 32.215626Q135.91875 30.965626 136.93437 30.278126Q137.96562 29.590626 139.34062 29.590626Q141.16875 29.590626 142.37187 31.075L142.37187 29.825L143.98125 29.825L143.98125 38.79375Q143.98125 41.215626 143.48125 42.215626Q142.99687 43.23125 141.91875 43.809376Q140.85625 44.403126 139.29375 44.403126Q137.45 44.403126 136.29375 43.575Q135.15312 42.746876 135.2 41.059376ZM136.65312 34.825Q136.65312 36.871876 137.46562 37.809376Q138.27812 38.746876 139.49687 38.746876Q140.7 38.746876 141.5125 37.809376Q142.34062 36.871876 142.34062 34.8875Q142.34062 32.98125 141.49687 32.0125Q140.65312 31.04375 139.46562 31.04375Q138.29375 31.04375 137.46562 31.996876Q136.65312 32.95 136.65312 34.825ZM146.5125 40.2L146.5125 25.8875L148.27812 25.8875L148.27812 31.0125Q149.5125 29.590626 151.3875 29.590626Q152.52812 29.590626 153.37187 30.04375Q154.23125 30.496876 154.59062 31.309376Q154.96562 32.10625 154.96562 33.621876L154.96562 40.2L153.21562 40.2L153.21562 33.621876Q153.21562 32.309376 152.6375 31.715626Q152.05937 31.10625 151.02812 31.10625Q150.24687 31.10625 149.54375 31.5125Q148.85625 31.91875 148.55937 32.621876Q148.27812 33.309376 148.27812 34.528126L148.27812 40.2L146.5125 40.2ZM156.5125 44.16875L156.5125 29.825L158.12187 29.825L158.12187 31.16875Q158.68437 30.3875 159.3875 29.996876Q160.10625 29.590626 161.12187 29.590626Q162.45 29.590626 163.46562 30.278126Q164.48125 30.965626 164.99687 32.215626Q165.52812 33.45 165.52812 34.934376Q165.52812 36.528126 164.95 37.809376Q164.3875 39.075 163.29375 39.7625Q162.2 40.434376 160.99687 40.434376Q160.12187 40.434376 159.41875 40.059376Q158.73125 39.684376 158.27812 39.121876L158.27812 44.16875L156.5125 44.16875ZM158.10625 35.075Q158.10625 37.075 158.91875 38.028126Q159.73125 38.98125 160.8875 38.98125Q162.05937 38.98125 162.8875 37.996876Q163.73125 37.0125 163.73125 34.91875Q163.73125 32.95 162.90312 31.965626Q162.09062 30.965626 160.96562 30.965626Q159.84062 30.965626 158.96562 32.028126Q158.10625 33.075 158.10625 35.075ZM174.30937 40.2L174.30937 38.66875Q173.10625 40.434376 171.02812 40.434376Q170.10625 40.434376 169.30937 40.090626Q168.5125 39.73125 168.12187 39.2Q167.74687 38.66875 167.59062 37.8875Q167.48125 37.371876 167.48125 36.246876L167.48125 29.825L169.23125 29.825L169.23125 35.575Q169.23125 36.95 169.34062 37.434376Q169.5125 38.121876 170.04375 38.528126Q170.59062 38.91875 171.37187 38.91875Q172.16875 38.91875 172.85625 38.5125Q173.55937 38.10625 173.84062 37.41875Q174.1375 36.715626 174.1375 35.3875L174.1375 29.825L175.8875 29.825L175.8875 40.2L174.30937 40.2ZM181.35625 38.621876L181.60625 40.184376Q180.87187 40.340626 180.27812 40.340626Q179.325 40.340626 178.79375 40.04375Q178.27812 39.73125 178.05937 39.246876Q177.84062 38.746876 177.84062 37.16875L177.84062 31.2L176.55937 31.2L176.55937 29.825L177.84062 29.825L177.84062 27.2625L179.59062 26.2L179.59062 29.825L181.35625 29.825L181.35625 31.2L179.59062 31.2L179.59062 37.2625Q179.59062 38.0125 179.68437 38.23125Q179.77812 38.434376 179.98125 38.575Q180.2 38.7 180.59062 38.7Q180.87187 38.7 181.35625 38.621876Z" fill-rule="nonzero"/></svg>